<?xml version="1.0" encoding="UTF-8"?> <svg xmlns="http://www.w3.org/2000/svg" width="108" height="108" viewBox="0 0 108 108" fill="none"> <g filter="url(#filter0_d_102_3)"> <circle cx="54" cy="50" r="50" fill="white"></circle> </g> <path d="M61.2584 45.6462C60.4166 39.2957 50.0417 41.7917 51.0404 30.3632C51.0404 30.3632 44.3772 33.9959 46.8219 41.5985C47.6617 44.2109 46.9457 46.3726 46.9457 46.3726C45.9373 46.7278 44.0312 45.0891 44.1426 42.0834C44.1426 42.0834 40.8306 45.1859 41.3336 48.4363C41.8365 51.6868 44.0837 54.8666 44.0837 54.8666C39.6862 54.6798 39.297 49.3491 39.297 49.3491C39.297 49.3491 37.1063 53.075 38.0715 59.3127C38.8224 64.1655 46.0018 70.9886 55.648 69.496C65.2943 68.0034 71.9797 59.9607 71.0376 53.8718C70.6249 51.2051 69.1035 47.913 66.6736 46.367C66.6736 46.367 67.7849 51.6445 64.8683 51.838C64.8683 51.838 66.1705 44.5229 63.1884 41.7263C63.1884 41.7263 62.5186 45.3458 61.2584 45.6462Z" fill="url(#paint0_linear_102_3)"></path> <path d="M60.5325 40.8716C62.6036 35.711 55.5589 36.1331 55.0965 33.2279C55.0965 33.2279 54.3344 36.4163 57.5791 38.012C60.2255 39.3018 60.5325 40.8716 60.5325 40.8716Z" fill="url(#paint1_linear_102_3)"></path> <path d="M44.3945 34.1102C43.4798 35.2362 45.5582 38.9812 42.4728 41.0642C42.4728 41.0642 40.672 36.8777 44.3945 34.1102Z" fill="url(#paint2_linear_102_3)"></path> <path opacity="0.5" d="M39.0298 51.0196C38.3289 52.6164 37.4815 55.5016 38.0712 59.3128C38.73 63.5705 45.8717 70.4814 55.568 68.9811C65.0391 67.5156 71.3633 59.7046 70.476 53.9705C70.1555 51.8989 69.1208 49.3519 67.4416 47.6897C67.5239 48.8841 67.4591 50.5348 66.625 51.5194C66.1918 52.0317 65.5964 52.3231 64.8976 52.3609L64.1881 52.4121L64.307 51.7726C64.3231 51.7115 65.2978 46.0057 63.4865 42.9928C63.1434 44.253 62.4781 45.9146 61.3895 46.1651L60.7711 46.3077L60.695 45.7335C60.3785 43.3566 58.5947 42.3435 56.5306 41.1745C53.5809 39.498 50.2509 37.5991 50.4132 31.4448C48.7388 32.7117 45.6053 35.974 47.3597 41.4333C48.244 44.1678 47.5028 46.4154 47.4795 46.5127L47.3915 46.7724L47.1234 46.8608C46.6121 47.0337 46.0314 46.9243 45.4637 46.5668C44.6942 46.0647 43.9041 45.0151 43.6382 43.4624C42.761 44.5825 41.604 46.4609 41.8963 48.3494C42.3762 51.451 44.5448 54.5375 44.5626 54.5699L45.1708 55.4368L44.0361 55.3897C41.07 55.2627 39.615 52.9799 39.0298 51.0196Z" fill="url(#paint3_linear_102_3)"></path> <path d="M55.0964 33.2279C55.1136 34.9949 56.2486 37.3624 57.5789 38.012C58.7986 38.6085 60.2409 39.733 60.5198 40.8735C61.8759 37.2182 59.0429 36.3792 57.4529 36.1213C56.783 36.014 55.4209 34.9942 55.0964 33.2279Z" fill="url(#paint4_radial_102_3)"></path> <path d="M49.2525 33.6282C46.0196 40.2225 52.3843 45.6715 50.1894 49.8668C47.9946 54.0621 44.6411 51.0183 44.0886 48.6896C44.0886 48.6896 45.2931 56.3083 49.8752 58.6815C54.4572 61.0547 42.3203 62.2647 40.1003 58.8463C40.1003 58.8463 41.9935 71.0813 55.5683 68.9808C69.1431 66.8803 69.6455 55.1418 69.6455 55.1418C69.6455 55.1418 65.3004 59.7636 61.5441 57.2627C61.5441 57.2627 63.3979 52.9326 63.3965 48.7842C63.3965 48.7842 61.8473 50.0318 59.1739 50.0587C59.1739 50.0587 59.7451 44.1458 56.4912 42.7391C52.3176 40.9355 48.2203 35.7333 49.2525 33.6282Z" fill="url(#paint5_linear_102_3)"></path> <path d="M51.3743 40.4721C49.6029 43.43 54.8855 49.5035 50.8441 52.8595C48.6079 54.7173 46.9196 53.162 46.9196 53.162C46.9196 53.162 48.0042 55.7834 51.032 57.7994C54.0599 59.8154 47.9247 64.1282 41.8752 60.7164C41.8752 60.7164 45.3049 70.6276 57.5881 66.9691C71.1459 62.9375 68.6625 53.6767 68.6625 53.6767C68.6625 53.6767 65.745 59.6597 60.0024 57.8997C60.0024 57.8997 62.7038 53.087 62.3231 50.6262C62.3231 50.6262 60.2373 52.2147 57.4507 51.427C57.4507 51.427 57.8038 45.5127 56.1947 44.8828C52.3334 43.359 51.3743 40.4721 51.3743 40.4721Z" fill="url(#paint6_linear_102_3)"></path> <path opacity="0.5" d="M61.2584 45.6462C60.4166 39.2957 50.0417 41.7917 51.0404 30.3632C51.0404 30.3632 44.3772 33.9959 46.8219 41.5985C47.6617 44.2109 46.9457 46.3726 46.9457 46.3726C45.9373 46.7278 44.0312 45.0891 44.1426 42.0834C44.1426 42.0834 40.8306 45.1859 41.3336 48.4363C41.8365 51.6868 44.0837 54.8666 44.0837 54.8666C39.6862 54.6798 39.297 49.3491 39.297 49.3491C39.297 49.3491 37.1063 53.075 38.0715 59.3127C38.8224 64.1655 46.0018 70.9886 55.648 69.496C65.2943 68.0034 71.9797 59.9607 71.0376 53.8718C70.6249 51.2051 69.1035 47.913 66.6736 46.367C66.6736 46.367 67.7849 51.6445 64.8683 51.838C64.8683 51.838 66.1705 44.5229 63.1884 41.7263C63.1884 41.7263 62.5186 45.3458 61.2584 45.6462Z" fill="url(#paint7_radial_102_3)"></path> <path opacity="0.5" d="M61.2584 45.6462C60.4166 39.2957 50.0417 41.7917 51.0404 30.3632C51.0404 30.3632 44.3772 33.9959 46.8219 41.5985C47.6617 44.2109 46.9457 46.3726 46.9457 46.3726C45.9373 46.7278 44.0312 45.0891 44.1426 42.0834C44.1426 42.0834 40.8306 45.1859 41.3336 48.4363C41.8365 51.6868 44.0837 54.8666 44.0837 54.8666C39.6862 54.6798 39.297 49.3491 39.297 49.3491C39.297 49.3491 37.1063 53.075 38.0715 59.3127C38.8224 64.1655 46.0018 70.9886 55.648 69.496C65.2943 68.0034 71.9797 59.9607 71.0376 53.8718C70.6249 51.2051 69.1035 47.913 66.6736 46.367C66.6736 46.367 67.7849 51.6445 64.8683 51.838C64.8683 51.838 66.1705 44.5229 63.1884 41.7263C63.1884 41.7263 62.5186 45.3458 61.2584 45.6462Z" fill="url(#paint8_radial_102_3)"></path> <path d="M38.5116 56.5259C39.7999 62.948 46.8167 69.7962 55.9124 68.3888C65.0082 66.9813 68.1914 57.5 67.684 52.3166C67.684 52.3166 66.45 55.6014 62.7029 56.8024C58.9558 58.0033 62.0305 50.7186 58.7314 47.1976C58.7314 47.1976 57.415 54.4212 54.0759 55.1957C50.7368 55.9702 47.1315 51.6294 46.733 49.0542C46.733 49.0542 45.3734 54.0109 46.4566 57.6169C48.1108 63.0917 38.5116 56.5259 38.5116 56.5259Z" fill="url(#paint9_radial_102_3)"></path> <path opacity="0.5" d="M61.2584 45.6462C60.4166 39.2957 50.0417 41.7917 51.0404 30.3632C51.0404 30.3632 44.3772 33.9959 46.8219 41.5985C47.6617 44.2109 46.9457 46.3726 46.9457 46.3726C45.9373 46.7278 44.0312 45.0891 44.1426 42.0834C44.1426 42.0834 40.8306 45.1859 41.3336 48.4363C41.8365 51.6868 44.0837 54.8666 44.0837 54.8666C39.6862 54.6798 39.297 49.3491 39.297 49.3491C39.297 49.3491 37.1063 53.075 38.0715 59.3127C38.8224 64.1655 46.0018 70.9886 55.648 69.496C65.2943 68.0034 71.9797 59.9607 71.0376 53.8718C70.6249 51.2051 69.1035 47.913 66.6736 46.367C66.6736 46.367 67.7849 51.6445 64.8683 51.838C64.8683 51.838 66.1705 44.5229 63.1884 41.7263C63.1884 41.7263 62.5186 45.3458 61.2584 45.6462Z" fill="url(#paint10_radial_102_3)"></path> <path opacity="0.5" d="M60.5325 40.8716C62.6036 35.711 55.5589 36.1331 55.0965 33.2279C55.0965 33.2279 54.3344 36.4163 57.5791 38.012C60.2255 39.3018 60.5325 40.8716 60.5325 40.8716Z" fill="url(#paint11_radial_102_3)"></path> <path d="M44.3945 34.1102C43.4923 35.2342 44.6373 38.1627 42.4728 41.0642C42.4728 41.0642 40.672 36.8777 44.3945 34.1102Z" fill="url(#paint12_radial_102_3)"></path> <path opacity="0.5" d="M44.3945 34.1102C43.4798 35.2362 45.5582 38.9812 42.4728 41.0642C42.4728 41.0642 40.672 36.8777 44.3945 34.1102Z" fill="url(#paint13_radial_102_3)"></path> <path opacity="0.5" d="M61.2584 45.6462C60.4166 39.2957 50.0417 41.7917 51.0404 30.3632C51.0404 30.3632 44.3772 33.9959 46.8219 41.5985C47.6617 44.2109 46.9457 46.3726 46.9457 46.3726C45.9373 46.7278 44.0312 45.0891 44.1426 42.0834C44.1426 42.0834 40.8306 45.1859 41.3336 48.4363C41.8365 51.6868 44.0837 54.8666 44.0837 54.8666C39.6862 54.6798 39.297 49.3491 39.297 49.3491C39.297 49.3491 37.1063 53.075 38.0715 59.3127C38.8224 64.1655 46.0018 70.9886 55.648 69.496C65.2943 68.0034 71.9797 59.9607 71.0376 53.8718C70.6249 51.2051 69.1035 47.913 66.6736 46.367C66.6736 46.367 67.7849 51.6445 64.8683 51.838C64.8683 51.838 66.1705 44.5229 63.1884 41.7263C63.1884 41.7263 62.5186 45.3458 61.2584 45.6462Z" fill="url(#paint14_radial_102_3)"></path> <path opacity="0.25" d="M61.2584 45.6462C60.4166 39.2957 50.0417 41.7917 51.0404 30.3632C51.0404 30.3632 44.3772 33.9959 46.8219 41.5985C47.6617 44.2109 46.9457 46.3726 46.9457 46.3726C45.9373 46.7278 44.0312 45.0891 44.1426 42.0834C44.1426 42.0834 40.8306 45.1859 41.3336 48.4363C41.8365 51.6868 44.0837 54.8666 44.0837 54.8666C39.6862 54.6798 39.297 49.3491 39.297 49.3491C39.297 49.3491 37.1063 53.075 38.0715 59.3127C38.8224 64.1655 46.0018 70.9886 55.648 69.496C65.2943 68.0034 71.9797 59.9607 71.0376 53.8718C70.6249 51.2051 69.1035 47.913 66.6736 46.367C66.6736 46.367 67.7849 51.6445 64.8683 51.838C64.8683 51.838 66.1705 44.5229 63.1884 41.7263C63.1884 41.7263 62.5186 45.3458 61.2584 45.6462Z" fill="url(#paint15_radial_102_3)"></path> <path opacity="0.25" d="M61.2584 45.6462C60.4166 39.2957 50.0417 41.7917 51.0404 30.3632C51.0404 30.3632 44.3772 33.9959 46.8219 41.5985C47.6617 44.2109 46.9457 46.3726 46.9457 46.3726C45.9373 46.7278 44.0312 45.0891 44.1426 42.0834C44.1426 42.0834 40.8306 45.1859 41.3336 48.4363C41.8365 51.6868 44.0837 54.8666 44.0837 54.8666C39.6862 54.6798 39.297 49.3491 39.297 49.3491C39.297 49.3491 37.1063 53.075 38.0715 59.3127C38.8224 64.1655 46.0018 70.9886 55.648 69.496C65.2943 68.0034 71.9797 59.9607 71.0376 53.8718C70.6249 51.2051 69.1035 47.913 66.6736 46.367C66.6736 46.367 67.7849 51.6445 64.8683 51.838C64.8683 51.838 66.1705 44.5229 63.1884 41.7263C63.1884 41.7263 62.5186 45.3458 61.2584 45.6462Z" fill="url(#paint16_radial_102_3)"></path> <defs> <filter id="filter0_d_102_3" x="0" y="0" width="108" height="108" filterUnits="userSpaceOnUse" color-interpolation-filters="sRGB"> <feFlood flood-opacity="0" result="BackgroundImageFix"></feFlood> <feColorMatrix in="SourceAlpha" type="matrix" values="0 0 0 0 0 0 0 0 0 0 0 0 0 0 0 0 0 0 127 0" result="hardAlpha"></feColorMatrix> <feOffset dy="4"></feOffset> <feGaussianBlur stdDeviation="2"></feGaussianBlur> <feComposite in2="hardAlpha" operator="out"></feComposite> <feColorMatrix type="matrix" values="0 0 0 0 0 0 0 0 0 0 0 0 0 0 0 0 0 0 0.25 0"></feColorMatrix> <feBlend mode="normal" in2="BackgroundImageFix" result="effect1_dropShadow_102_3"></feBlend> <feBlend mode="normal" in="SourceGraphic" in2="effect1_dropShadow_102_3" result="shape"></feBlend> </filter> <linearGradient id="paint0_linear_102_3" x1="58.8123" y1="70.1077" x2="44.4826" y2="20.1024" gradientUnits="userSpaceOnUse"> <stop stop-color="#FF0000"></stop> <stop offset="0.2317" stop-color="#FF1500"></stop> <stop offset="0.7367" stop-color="#FF3D00"></stop> <stop offset="0.9987" stop-color="#FF4C00"></stop> </linearGradient> <linearGradient id="paint1_linear_102_3" x1="67.6242" y1="67.5825" x2="53.2944" y2="17.5773" gradientUnits="userSpaceOnUse"> <stop stop-color="#FF0000"></stop> <stop offset="0.2317" stop-color="#FF1500"></stop> <stop offset="0.7367" stop-color="#FF3D00"></stop> <stop offset="0.9987" stop-color="#FF4C00"></stop> </linearGradient> <linearGradient id="paint2_linear_102_3" x1="54.0276" y1="71.4786" x2="39.6979" y2="21.4733" gradientUnits="userSpaceOnUse"> <stop stop-color="#FF0000"></stop> <stop offset="0.2317" stop-color="#FF1500"></stop> <stop offset="0.7367" stop-color="#FF3D00"></stop> <stop offset="0.9987" stop-color="#FF4C00"></stop> </linearGradient> <linearGradient id="paint3_linear_102_3" x1="57.2652" y1="61.4787" x2="36.0871" y2="19.1076" gradientUnits="userSpaceOnUse"> <stop stop-color="#FF8000"></stop> <stop offset="0.6388" stop-color="#FF5B00"></stop> <stop offset="0.9987" stop-color="#FF4C00"></stop> </linearGradient> <radialGradient id="paint4_radial_102_3" cx="0" cy="0" r="1" gradientUnits="userSpaceOnUse" gradientTransform="translate(58.9294 24.7329) rotate(-8.79595) scale(22.5998 20.6743)"> <stop offset="0.00134333" stop-color="#FFED1C" stop-opacity="0.6"></stop> <stop offset="0.9477" stop-color="#FFED1C" stop-opacity="0.0264782"></stop> <stop offset="0.9914" stop-color="#FFED1C" stop-opacity="0"></stop> </radialGradient> <linearGradient id="paint5_linear_102_3" x1="46.2362" y1="33.2664" x2="56.1692" y2="63.7314" gradientUnits="userSpaceOnUse"> <stop stop-color="#FF8000"></stop> <stop offset="0.022669" stop-color="#FE7F02" stop-opacity="0.9773"></stop> <stop offset="0.6663" stop-color="#ED582A" stop-opacity="0.3337"></stop> <stop offset="1" stop-color="#E74939" stop-opacity="0"></stop> </linearGradient> <linearGradient id="paint6_linear_102_3" x1="56.1411" y1="66.1415" x2="53.8576" y2="44.1266" gradientUnits="userSpaceOnUse"> <stop stop-color="#FFBC47"></stop> <stop offset="0.1869" stop-color="#FFB137" stop-opacity="0.8131"></stop> <stop offset="0.7223" stop-color="#FF940F" stop-opacity="0.2777"></stop> <stop offset="1" stop-color="#FF8900" stop-opacity="0"></stop> </linearGradient> <radialGradient id="paint7_radial_102_3" cx="0" cy="0" r="1" gradientUnits="userSpaceOnUse" gradientTransform="translate(54.9043 60.2994) rotate(-8.79595) scale(17.4822 12.9828)"> <stop offset="0.00134333" stop-color="#FFBC47"></stop> <stop offset="0.2941" stop-color="#FFBF4B" stop-opacity="0.7068"></stop> <stop offset="0.5624" stop-color="#FEC656" stop-opacity="0.4382"></stop> <stop offset="0.8201" stop-color="#FCD368" stop-opacity="0.1801"></stop> <stop offset="1" stop-color="#FBE07A" stop-opacity="0"></stop> </radialGradient> <radialGradient id="paint8_radial_102_3" cx="0" cy="0" r="1" gradientUnits="userSpaceOnUse" gradientTransform="translate(54.8038 59.6497) rotate(-8.79595) scale(16.9435 12.5828)"> <stop offset="0.00134333" stop-color="white"></stop> <stop offset="1" stop-color="white" stop-opacity="0"></stop> </radialGradient> <radialGradient id="paint9_radial_102_3" cx="0" cy="0" r="1" gradientUnits="userSpaceOnUse" gradientTransform="translate(47.899 63.6113) rotate(-8.79595) scale(20.8139 22.1688)"> <stop offset="0.00134333" stop-color="#FFED1C" stop-opacity="0.6"></stop> <stop offset="0.9477" stop-color="#FFED1C" stop-opacity="0.0264782"></stop> <stop offset="0.9914" stop-color="#FFED1C" stop-opacity="0"></stop> </radialGradient> <radialGradient id="paint10_radial_102_3" cx="0" cy="0" r="1" gradientUnits="userSpaceOnUse" gradientTransform="translate(54.8044 59.648) rotate(84.3601) scale(6.01919 5.33856)"> <stop offset="0.00134333" stop-color="white"></stop> <stop offset="1" stop-color="white" stop-opacity="0"></stop> </radialGradient> <radialGradient id="paint11_radial_102_3" cx="0" cy="0" r="1" gradientUnits="userSpaceOnUse" gradientTransform="translate(54.4107 33.3229) rotate(-8.79595) scale(7.46678 6.83058)"> <stop offset="0.00134333" stop-color="#FFED1C"></stop> <stop offset="0.1997" stop-color="#FFEE2B" stop-opacity="0.8013"></stop> <stop offset="0.5839" stop-color="#FFF254" stop-opacity="0.4167"></stop> <stop offset="1" stop-color="#FFF686" stop-opacity="0"></stop> </radialGradient> <radialGradient id="paint12_radial_102_3" cx="0" cy="0" r="1" gradientUnits="userSpaceOnUse" gradientTransform="translate(42.7452 38.4537) rotate(-62.8177) scale(5.69558 1.33435)"> <stop offset="0.00134333" stop-color="#FFED1C" stop-opacity="0.6"></stop> <stop offset="0.9477" stop-color="#FFED1C" stop-opacity="0.0264782"></stop> <stop offset="0.9914" stop-color="#FFED1C" stop-opacity="0"></stop> </radialGradient> <radialGradient id="paint13_radial_102_3" cx="0" cy="0" r="1" gradientUnits="userSpaceOnUse" gradientTransform="translate(43.2655 33.9829) rotate(86.7296) scale(4.97536 2.18509)"> <stop offset="0.00134333" stop-color="#FFED1C"></stop> <stop offset="0.1997" stop-color="#FFEE2B" stop-opacity="0.8013"></stop> <stop offset="0.5839" stop-color="#FFF254" stop-opacity="0.4167"></stop> <stop offset="1" stop-color="#FFF686" stop-opacity="0"></stop> </radialGradient> <radialGradient id="paint14_radial_102_3" cx="0" cy="0" r="1" gradientUnits="userSpaceOnUse" gradientTransform="translate(52.6369 32.7104) rotate(-8.79595) scale(23.2986 21.3134)"> <stop offset="0.00134333" stop-color="#FF4C00"></stop> <stop offset="0.135" stop-color="#FF5B0C" stop-opacity="0.8661"></stop> <stop offset="0.3941" stop-color="#FF842C" stop-opacity="0.6067"></stop> <stop offset="0.7491" stop-color="#FFC45F" stop-opacity="0.2512"></stop> <stop offset="1" stop-color="#FFF686" stop-opacity="0"></stop> </radialGradient> <radialGradient id="paint15_radial_102_3" cx="0" cy="0" r="1" gradientUnits="userSpaceOnUse" gradientTransform="translate(65.7495 48.1542) rotate(-8.79595) scale(12.3665 11.3128)"> <stop offset="0.00134333" stop-color="#FFED1C"></stop> <stop offset="0.1997" stop-color="#FFEE2B" stop-opacity="0.8013"></stop> <stop offset="0.5839" stop-color="#FFF254" stop-opacity="0.4167"></stop> <stop offset="1" stop-color="#FFF686" stop-opacity="0"></stop> </radialGradient> <radialGradient id="paint16_radial_102_3" cx="0" cy="0" r="1" gradientUnits="userSpaceOnUse" gradientTransform="translate(41.3492 56.0097) rotate(-8.79595) scale(13.1811 12.058)"> <stop offset="0.00134333" stop-color="#FFED1C"></stop> <stop offset="0.1997" stop-color="#FFEE2B" stop-opacity="0.8013"></stop> <stop offset="0.5839" stop-color="#FFF254" stop-opacity="0.4167"></stop> <stop offset="1" stop-color="#FFF686" stop-opacity="0"></stop> </radialGradient> </defs> </svg> 