<?xml version="1.0" encoding="UTF-8"?> <svg xmlns="http://www.w3.org/2000/svg" width="108" height="108" viewBox="0 0 108 108" fill="none"> <g filter="url(#filter0_d_102_4)"> <circle cx="54" cy="50" r="50" fill="white"></circle> </g> <path d="M61.9485 35C58.8557 35 56.1237 36.5872 54.4948 39.0047C52.866 36.5872 50.134 35 47.0412 35C42.0515 35 38 39.1308 38 44.2182C38 55.4545 54.4948 65.5556 54.4948 65.5556C54.4948 65.5556 70.9897 55.4545 70.9897 44.2182C70.9897 39.1308 66.9381 35 61.9485 35Z" fill="url(#paint0_radial_102_4)"></path> <path opacity="0.5" d="M65.6904 35.82C70.6389 43.8609 66.0822 54.414 60.6079 57.4097C54.5667 60.7206 50.4327 59.165 41.876 54.2143C46.7523 60.8047 54.4945 65.5452 54.4945 65.5452C54.4945 65.5452 70.9894 55.4441 70.9894 44.2078C70.9894 40.4869 68.8141 37.2705 65.6904 35.82Z" fill="url(#paint1_radial_102_4)"></path> <path opacity="0.5" d="M61.9485 35C58.8557 35 56.1237 36.5872 54.4948 39.0047C52.866 36.5872 50.134 35 47.0412 35C42.0515 35 38 39.1308 38 44.2182C38 55.4545 54.4948 65.5556 54.4948 65.5556C54.4948 65.5556 70.9897 55.4545 70.9897 44.2182C70.9897 39.1308 66.9381 35 61.9485 35Z" fill="url(#paint2_radial_102_4)"></path> <path opacity="0.5" d="M61.9485 35C58.8557 35 56.1237 36.5872 54.4948 39.0047C52.866 36.5872 50.134 35 47.0412 35C42.0515 35 38 39.1308 38 44.2182C38 55.4545 54.4948 65.5556 54.4948 65.5556C54.4948 65.5556 70.9897 55.4545 70.9897 44.2182C70.9897 39.1308 66.9381 35 61.9485 35Z" fill="url(#paint3_radial_102_4)"></path> <path opacity="0.24" d="M52.2372 38.7417C53.1445 40.9175 51.1341 43.8711 47.7424 45.3321C44.3506 46.7932 40.8764 46.2256 39.9692 44.0603C39.062 41.895 41.0723 38.9309 44.464 37.4699C47.8558 36.0089 51.33 36.5659 52.2372 38.7417Z" fill="url(#paint4_radial_102_4)"></path> <path opacity="0.24" d="M63.2887 36.976C64.5774 38.4265 63.7836 41.296 61.5258 43.3772C59.2681 45.4584 56.3918 45.9734 55.1031 44.5229C53.8145 43.0724 54.6083 40.2029 56.866 38.1217C59.1238 36.0405 62 35.5254 63.2887 36.976Z" fill="url(#paint5_radial_102_4)"></path> <path opacity="0.32" d="M62.1136 37.4491C66.6497 39.0257 70.9796 45.8579 63.66 54.3718C59.2786 59.4697 54.4951 62.0449 48.4126 61.0358C51.7013 63.8317 54.5054 65.5556 54.5054 65.5556C54.5054 65.5556 71.0002 55.4545 71.0002 44.2182C70.9899 39.1308 66.9384 35 61.9487 35C58.8559 35 56.1239 36.5872 54.4951 39.0047C54.4951 39.0047 58.794 36.2929 62.1136 37.4491Z" fill="url(#paint6_linear_102_4)"></path> <defs> <filter id="filter0_d_102_4" x="0" y="0" width="108" height="108" filterUnits="userSpaceOnUse" color-interpolation-filters="sRGB"> <feFlood flood-opacity="0" result="BackgroundImageFix"></feFlood> <feColorMatrix in="SourceAlpha" type="matrix" values="0 0 0 0 0 0 0 0 0 0 0 0 0 0 0 0 0 0 127 0" result="hardAlpha"></feColorMatrix> <feOffset dy="4"></feOffset> <feGaussianBlur stdDeviation="2"></feGaussianBlur> <feComposite in2="hardAlpha" operator="out"></feComposite> <feColorMatrix type="matrix" values="0 0 0 0 0 0 0 0 0 0 0 0 0 0 0 0 0 0 0.25 0"></feColorMatrix> <feBlend mode="normal" in2="BackgroundImageFix" result="effect1_dropShadow_102_4"></feBlend> <feBlend mode="normal" in="SourceGraphic" in2="effect1_dropShadow_102_4" result="shape"></feBlend> </filter> <radialGradient id="paint0_radial_102_4" cx="0" cy="0" r="1" gradientUnits="userSpaceOnUse" gradientTransform="translate(49.7766 43.5227) rotate(-29.8854) scale(25.9331 20.7762)"> <stop offset="0.2479" stop-color="#FF0000"></stop> <stop offset="0.8639" stop-color="#C20000"></stop> </radialGradient> <radialGradient id="paint1_radial_102_4" cx="0" cy="0" r="1" gradientUnits="userSpaceOnUse" gradientTransform="translate(50.4147 41.9086) rotate(-29.8854) scale(22.3276 17.8876)"> <stop offset="0.2479" stop-color="#FF0000"></stop> <stop offset="1" stop-color="#C20000"></stop> </radialGradient> <radialGradient id="paint2_radial_102_4" cx="0" cy="0" r="1" gradientUnits="userSpaceOnUse" gradientTransform="translate(49.7766 43.5227) rotate(-29.8854) scale(25.9331 20.7762)"> <stop stop-color="white" stop-opacity="0.25"></stop> <stop offset="1" stop-color="white" stop-opacity="0"></stop> </radialGradient> <radialGradient id="paint3_radial_102_4" cx="0" cy="0" r="1" gradientUnits="userSpaceOnUse" gradientTransform="translate(59.055 52.4562) rotate(-26.7396) scale(18.9136 9.45555)"> <stop stop-color="#BD2719" stop-opacity="0.25"></stop> <stop offset="1" stop-color="#BD2719" stop-opacity="0"></stop> </radialGradient> <radialGradient id="paint4_radial_102_4" cx="0" cy="0" r="1" gradientUnits="userSpaceOnUse" gradientTransform="translate(46.1012 41.401) rotate(-22.0748) scale(6.71591 4.23061)"> <stop stop-color="white"></stop> <stop offset="1" stop-color="white" stop-opacity="0"></stop> </radialGradient> <radialGradient id="paint5_radial_102_4" cx="0" cy="0" r="1" gradientUnits="userSpaceOnUse" gradientTransform="translate(59.1865 40.7603) rotate(-41.3133) scale(5.59197 3.48316)"> <stop stop-color="white"></stop> <stop offset="1" stop-color="white" stop-opacity="0"></stop> </radialGradient> <linearGradient id="paint6_linear_102_4" x1="57.899" y1="77.556" x2="61.2205" y2="33.6294" gradientUnits="userSpaceOnUse"> <stop stop-color="#860805"></stop> <stop offset="1" stop-color="#BD2719" stop-opacity="0"></stop> </linearGradient> </defs> </svg> 