<?xml version="1.0" encoding="UTF-8"?> <svg xmlns="http://www.w3.org/2000/svg" width="108" height="108" viewBox="0 0 108 108" fill="none"> <g filter="url(#filter0_d_103_5)"> <circle cx="54" cy="50" r="50" fill="white"></circle> </g> <path d="M74.7717 63.088L62.9385 42.3048L44.7021 57.1552L70.2127 66.7914C70.6199 66.9296 72.2603 67.4547 73.8214 66.0268C75.5071 64.4791 74.9414 63.4197 74.7717 63.088Z" fill="url(#paint0_linear_103_5)"></path> <path d="M50.2114 59.2372L54.3406 60.7849C55.8226 61.2824 66.7621 52.4569 65.8797 47.4729L62.9384 42.3048C66.4114 48.431 52.2251 59.9926 50.2114 59.2372Z" fill="url(#paint1_linear_103_5)"></path> <path d="M58.5376 62.3694L59.4766 62.7287L62.6894 63.9447C63.9565 63.9539 70.4727 58.6383 70.3369 55.3126L67.9386 51.0934C68.9115 55.6627 59.9065 62.8945 58.5376 62.3694Z" fill="url(#paint2_linear_103_5)"></path> <path d="M69.9637 66.6901C71.0497 66.2479 73.697 64.0829 74.3192 62.2865L71.7851 57.8277L71.7625 57.8001C73.3123 60.5454 67.5654 65.1884 66.2305 65.2713L69.9637 66.6901Z" fill="url(#paint3_linear_103_5)"></path> <path opacity="0.75" d="M74.7717 63.088L62.9385 42.3048L44.7021 57.1552L70.2127 66.7914C70.6199 66.9296 72.2603 67.4547 73.8214 66.0268C75.5071 64.4791 74.9414 63.4197 74.7717 63.088Z" fill="url(#paint4_radial_103_5)"></path> <path opacity="0.75" d="M74.7717 63.088L62.9385 42.3048L44.7021 57.1552L70.2127 66.7914C70.6199 66.9296 72.2603 67.4547 73.8214 66.0268C75.5071 64.4791 74.9414 63.4197 74.7717 63.088Z" fill="url(#paint5_radial_103_5)"></path> <path d="M44.7925 50.0526C45.4147 50.3013 45.5052 50.7896 45.3695 51.1489L43.9327 50.5593C43.9327 50.5593 44.1137 49.896 43.582 49.8775L44.3287 49.8499L44.7925 50.0526Z" fill="url(#paint6_linear_103_5)"></path> <path d="M36.8735 48.4034C36.8735 48.4034 36.6359 47.9797 35.9571 47.7125C35.2784 47.4453 34 48.7627 34 48.7627L35.3236 49.3799C35.3236 49.3799 36.1608 48.3389 36.4436 48.6614C36.7264 48.993 36.8735 48.4034 36.8735 48.4034Z" fill="url(#paint7_linear_103_5)"></path> <path d="M47.7564 37.6249C45.6748 37.4315 44.9847 38.5738 45.0413 38.9884C45.0413 38.9884 44.3625 39.0621 44.1476 38.3251C44.0118 37.8368 45.3694 36.5931 46.9079 36.9156L47.7564 37.6249Z" fill="url(#paint8_linear_103_5)"></path> <path d="M62.7801 42.1298C64.0471 43.1616 60.97 47.3256 55.9245 51.4435C50.8789 55.5523 45.7542 58.0581 44.4872 57.0263C43.2201 55.9945 46.2972 51.8305 51.3428 47.7125C56.3996 43.6038 61.513 41.1072 62.7801 42.1298Z" fill="url(#paint9_linear_103_5)"></path> <path d="M61.9425 42.4799C62.9041 43.2629 59.8723 47.0032 55.1662 50.8263C50.46 54.6495 45.8783 57.1276 44.9167 56.3446C43.9551 55.5615 46.987 51.8213 51.6931 47.9981C56.3992 44.1749 60.981 41.6968 61.9425 42.4799Z" fill="url(#paint10_linear_103_5)"></path> <path d="M35.957 47.7219C35.957 47.7219 37.2128 48.2009 37.3485 48.2654C37.8463 48.5049 38.016 49.1774 37.8123 50.3842C37.6087 51.5911 37.6879 51.9411 37.6992 51.9964C37.7218 52.0517 37.0204 52.761 37.0204 52.761L36.3077 52.6966C36.3077 52.6966 36.0362 52.5307 36.1267 51.978C36.3077 50.9923 36.9073 48.0904 35.957 47.7219Z" fill="url(#paint11_linear_103_5)"></path> <path d="M56.9649 45.3263C55.6074 44.359 56.6708 43.4562 55.6979 42.885L54.4761 43.8616C55.4377 44.4327 54.5326 45.2618 55.8562 46.2844L56.9649 45.3263Z" fill="url(#paint12_linear_103_5)"></path> <path d="M40.4935 55.8194C41.4664 54.4836 42.8013 55.672 43.5593 54.9166L42.4167 53.8756C41.6587 54.631 40.3464 53.5439 39.3735 54.8797L40.4935 55.8194Z" fill="url(#paint13_linear_103_5)"></path> <path d="M45.528 41.6785C45.5167 41.6417 45.2452 41.6233 44.7701 41.0797C44.2949 40.5362 45.0303 39.311 45.1434 39.1543C45.2565 38.9885 47.1232 39.1267 47.1232 39.1267C47.1232 39.1267 45.1208 40.656 45.5846 41.4206C46.0371 42.1852 45.528 41.6785 45.528 41.6785Z" fill="url(#paint14_linear_103_5)"></path> <path d="M50.1776 41.4755C50.1776 41.4755 50.913 41.5308 51.2523 41.8072C51.8519 42.3047 50.9469 43.0969 51.275 44.1011C51.275 44.1011 49.8382 43.6405 49.7251 43.5944C49.7251 43.5944 49.4197 43.189 49.7138 42.7745C49.9966 42.3507 50.0871 41.9822 49.9174 41.7243C49.7477 41.4663 50.1776 41.4755 50.1776 41.4755Z" fill="url(#paint15_linear_103_5)"></path> <path d="M46.9419 38.7766C46.9419 38.7766 47.4962 39.7623 47.5754 39.8913C47.6546 40.0202 44.8377 40.315 44.5549 39.6057C44.272 38.8871 44.1702 38.3989 44.1589 38.3252C44.1363 38.2515 44.306 39.5596 46.9419 38.7766Z" fill="#FFBF00"></path> <path d="M51.2406 41.8075C50.7202 41.4021 49.9509 40.8494 49.736 40.877C48.3558 41.006 45.3126 41.918 44.7583 41.0797C44.7583 41.0797 45.4371 41.8628 45.6407 42.1023C45.8443 42.3418 46.3874 42.5169 47.2811 42.4984C48.8422 42.4524 50.7767 41.439 51.2406 41.8075Z" fill="#FFBF00"></path> <path d="M40.0747 44.6079C45.8782 45.2804 51.4215 49.9695 51.4215 49.9695L52.6094 49.3338C52.6094 49.3338 46.0818 44.2301 40.2557 43.5761L40.0747 44.6079Z" fill="url(#paint16_linear_103_5)"></path> <path d="M37.6543 53.2583C37.9031 53.3689 38.3217 53.0465 39.4756 52.2726C40.6295 51.4988 43.684 49.4905 44.7927 50.0616L43.2315 49.4444C43.2315 49.4444 41.9871 49.4352 40.7766 50.0432C38.876 51.0013 36.8284 52.8346 36.3193 52.6964L37.6543 53.2583Z" fill="url(#paint17_linear_103_5)"></path> <path d="M55.3134 49.1497C55.3134 48.9411 55.1057 48.772 54.8496 48.772C54.5934 48.772 54.3857 48.9411 54.3857 49.1497C54.3857 49.3583 54.5934 49.5274 54.8496 49.5274C55.1057 49.5274 55.3134 49.3583 55.3134 49.1497Z" fill="url(#paint18_linear_103_5)"></path> <path d="M36.0365 43.8893C36.0365 43.6807 35.8289 43.5115 35.5727 43.5115C35.3165 43.5115 35.1089 43.6807 35.1089 43.8893C35.1089 44.0979 35.3165 44.267 35.5727 44.267C35.8289 44.267 36.0365 44.0979 36.0365 43.8893Z" fill="url(#paint19_linear_103_5)"></path> <path d="M42.7675 47.4362C42.7675 47.2276 42.5598 47.0585 42.3037 47.0585C42.0475 47.0585 41.8398 47.2276 41.8398 47.4362C41.8398 47.6448 42.0475 47.8139 42.3037 47.8139C42.5598 47.8139 42.7675 47.6448 42.7675 47.4362Z" fill="url(#paint20_linear_103_5)"></path> <path d="M50.1322 35.4875C50.1322 35.2789 49.9246 35.1098 49.6684 35.1098C49.4123 35.1098 49.2046 35.2789 49.2046 35.4875C49.2046 35.6961 49.4123 35.8652 49.6684 35.8652C49.9246 35.8652 50.1322 35.6961 50.1322 35.4875Z" fill="url(#paint21_linear_103_5)"></path> <path d="M59.9174 37.8921C59.9174 37.6835 59.7097 37.5144 59.4536 37.5144C59.1974 37.5144 58.9897 37.6835 58.9897 37.8921C58.9897 38.1007 59.1974 38.2698 59.4536 38.2698C59.7097 38.2698 59.9174 38.1007 59.9174 37.8921Z" fill="url(#paint22_linear_103_5)"></path> <path d="M53.9443 39.4675C53.9443 39.2589 53.7366 39.0898 53.4804 39.0898C53.2243 39.0898 53.0166 39.2589 53.0166 39.4675C53.0166 39.6761 53.2243 39.8452 53.4804 39.8452C53.7366 39.8452 53.9443 39.6761 53.9443 39.4675Z" fill="url(#paint23_linear_103_5)"></path> <path d="M41.3417 37.3946C41.3417 37.186 41.1341 37.0169 40.8779 37.0169C40.6217 37.0169 40.4141 37.186 40.4141 37.3946C40.4141 37.6032 40.6217 37.7723 40.8779 37.7723C41.1341 37.7723 41.3417 37.6032 41.3417 37.3946Z" fill="url(#paint24_linear_103_5)"></path> <path d="M42.8578 41.6324C42.8578 41.4238 42.6502 41.2547 42.394 41.2547C42.1378 41.2547 41.9302 41.4238 41.9302 41.6324C41.9302 41.841 42.1378 42.0101 42.394 42.0101C42.6502 42.0101 42.8578 41.841 42.8578 41.6324Z" fill="url(#paint25_linear_103_5)"></path> <path d="M61.1843 44.8659C57.304 41.0151 56.5008 34.4927 56.5008 34.4927L54.7134 34.2808C54.7134 34.2808 55.8447 42.0008 60.2001 46.0911C60.5734 45.6489 60.9015 45.2436 61.1843 44.8659Z" fill="url(#paint26_linear_103_5)"></path> <path d="M50.0078 54.5297C50.4377 54.2718 50.8676 53.9862 51.3201 53.6822C49.1028 52.8623 47.3606 53.0373 47.3606 53.0373L46.5913 54.0415C47.9602 53.9401 49.2725 54.281 50.0078 54.5297Z" fill="url(#paint27_linear_103_5)"></path> <defs> <filter id="filter0_d_103_5" x="0" y="0" width="108" height="108" filterUnits="userSpaceOnUse" color-interpolation-filters="sRGB"> <feFlood flood-opacity="0" result="BackgroundImageFix"></feFlood> <feColorMatrix in="SourceAlpha" type="matrix" values="0 0 0 0 0 0 0 0 0 0 0 0 0 0 0 0 0 0 127 0" result="hardAlpha"></feColorMatrix> <feOffset dy="4"></feOffset> <feGaussianBlur stdDeviation="2"></feGaussianBlur> <feComposite in2="hardAlpha" operator="out"></feComposite> <feColorMatrix type="matrix" values="0 0 0 0 0 0 0 0 0 0 0 0 0 0 0 0 0 0 0.25 0"></feColorMatrix> <feBlend mode="normal" in2="BackgroundImageFix" result="effect1_dropShadow_103_5"></feBlend> <feBlend mode="normal" in="SourceGraphic" in2="effect1_dropShadow_103_5" result="shape"></feBlend> </filter> <linearGradient id="paint0_linear_103_5" x1="48.266" y1="68.0111" x2="68.0197" y2="47.5415" gradientUnits="userSpaceOnUse"> <stop offset="0.2544" stop-color="#FBE07A"></stop> <stop offset="1" stop-color="#FF40BF"></stop> </linearGradient> <linearGradient id="paint1_linear_103_5" x1="50.017" y1="59.0753" x2="63.3788" y2="42.6671" gradientUnits="userSpaceOnUse"> <stop offset="0.2544" stop-color="#9F00E8"></stop> <stop offset="1" stop-color="#7000A3"></stop> </linearGradient> <linearGradient id="paint2_linear_103_5" x1="59.1389" y1="62.8573" x2="68.4058" y2="51.4775" gradientUnits="userSpaceOnUse"> <stop offset="0.2544" stop-color="#9F00E8"></stop> <stop offset="1" stop-color="#7000A3"></stop> </linearGradient> <linearGradient id="paint3_linear_103_5" x1="66.7632" y1="65.7179" x2="72.6278" y2="58.5161" gradientUnits="userSpaceOnUse"> <stop offset="0.2544" stop-color="#9F00E8"></stop> <stop offset="1" stop-color="#7000A3"></stop> </linearGradient> <radialGradient id="paint4_radial_103_5" cx="0" cy="0" r="1" gradientUnits="userSpaceOnUse" gradientTransform="translate(56.2722 59.1018) rotate(24.8235) scale(11.1046 3.01632)"> <stop stop-color="white" stop-opacity="0.5"></stop> <stop offset="1" stop-color="white" stop-opacity="0"></stop> </radialGradient> <radialGradient id="paint5_radial_103_5" cx="0" cy="0" r="1" gradientUnits="userSpaceOnUse" gradientTransform="translate(66.6627 52.4688) rotate(56.527) scale(15.7937 5.4291)"> <stop stop-color="#440063" stop-opacity="0.75"></stop> <stop offset="1" stop-color="#420061" stop-opacity="0"></stop> </radialGradient> <linearGradient id="paint6_linear_103_5" x1="44.3699" y1="49.9828" x2="43.7629" y2="47.6488" gradientUnits="userSpaceOnUse"> <stop stop-color="#BD2719"></stop> <stop offset="1" stop-color="#FF4E0D"></stop> </linearGradient> <linearGradient id="paint7_linear_103_5" x1="37.4798" y1="47.8802" x2="34.5953" y2="49.306" gradientUnits="userSpaceOnUse"> <stop stop-color="#BD2719"></stop> <stop offset="1" stop-color="#FF4E0D"></stop> </linearGradient> <linearGradient id="paint8_linear_103_5" x1="46.9135" y1="36.6195" x2="44.7318" y2="40.8006" gradientUnits="userSpaceOnUse"> <stop stop-color="#FFCB4B"></stop> <stop offset="1" stop-color="#E81CA2"></stop> </linearGradient> <linearGradient id="paint9_linear_103_5" x1="40.862" y1="46.2815" x2="72.0359" y2="58.4236" gradientUnits="userSpaceOnUse"> <stop offset="0.2544" stop-color="#FBE07A"></stop> <stop offset="1" stop-color="#E81CA2"></stop> </linearGradient> <linearGradient id="paint10_linear_103_5" x1="48.3499" y1="43.5152" x2="56.6583" y2="58.0622" gradientUnits="userSpaceOnUse"> <stop stop-color="#FBE07A"></stop> <stop offset="1" stop-color="white"></stop> </linearGradient> <linearGradient id="paint11_linear_103_5" x1="37.0306" y1="53.9241" x2="36.979" y2="49.7474" gradientUnits="userSpaceOnUse"> <stop stop-color="#BD2719"></stop> <stop offset="1" stop-color="#FF4E0D"></stop> </linearGradient> <linearGradient id="paint12_linear_103_5" x1="54.7167" y1="44.0926" x2="56.6917" y2="45.4444" gradientUnits="userSpaceOnUse"> <stop stop-color="#FF9214"></stop> <stop offset="1" stop-color="#FF4E0D"></stop> </linearGradient> <linearGradient id="paint13_linear_103_5" x1="37.7063" y1="55.8254" x2="42.7624" y2="53.6552" gradientUnits="userSpaceOnUse"> <stop stop-color="#80DAFE"></stop> <stop offset="1" stop-color="#008EE6"></stop> </linearGradient> <linearGradient id="paint14_linear_103_5" x1="48.0752" y1="40.306" x2="42.7097" y2="40.8286" gradientUnits="userSpaceOnUse"> <stop stop-color="#FFCB4B"></stop> <stop offset="1" stop-color="#E81CA2"></stop> </linearGradient> <linearGradient id="paint15_linear_103_5" x1="50.3438" y1="43.9868" x2="50.666" y2="41.544" gradientUnits="userSpaceOnUse"> <stop stop-color="#FFCB4B"></stop> <stop offset="1" stop-color="#E81CA2"></stop> </linearGradient> <linearGradient id="paint16_linear_103_5" x1="40.2835" y1="45.6513" x2="57.9397" y2="50.9198" gradientUnits="userSpaceOnUse"> <stop offset="0.2544" stop-color="#E100FF"></stop> <stop offset="1" stop-color="#7000A3"></stop> </linearGradient> <linearGradient id="paint17_linear_103_5" x1="37.309" y1="52.7175" x2="42.1037" y2="49.1848" gradientUnits="userSpaceOnUse"> <stop stop-color="#FF9214"></stop> <stop offset="1" stop-color="#FF4E0D"></stop> </linearGradient> <linearGradient id="paint18_linear_103_5" x1="52.2389" y1="49.8721" x2="57.1603" y2="47.8174" gradientUnits="userSpaceOnUse"> <stop stop-color="#FFCB4B"></stop> <stop offset="1" stop-color="#E81CA2"></stop> </linearGradient> <linearGradient id="paint19_linear_103_5" x1="33.2529" y1="45.0416" x2="37.4434" y2="41.9093" gradientUnits="userSpaceOnUse"> <stop stop-color="#FBE07A"></stop> <stop offset="1" stop-color="#E81CA2"></stop> </linearGradient> <linearGradient id="paint20_linear_103_5" x1="42.047" y1="47.4926" x2="44.7045" y2="46.6305" gradientUnits="userSpaceOnUse"> <stop stop-color="#80DAFE"></stop> <stop offset="1" stop-color="#008EE6"></stop> </linearGradient> <linearGradient id="paint21_linear_103_5" x1="48.5856" y1="35.2135" x2="51.1126" y2="36.1871" gradientUnits="userSpaceOnUse"> <stop stop-color="#FFCB4B"></stop> <stop offset="1" stop-color="#E81CA2"></stop> </linearGradient> <linearGradient id="paint22_linear_103_5" x1="56.4899" y1="38.0034" x2="62.1306" y2="37.6857" gradientUnits="userSpaceOnUse"> <stop stop-color="#FFCB4B"></stop> <stop offset="1" stop-color="#E81CA2"></stop> </linearGradient> <linearGradient id="paint23_linear_103_5" x1="52.6039" y1="39.715" x2="53.804" y2="39.1999" gradientUnits="userSpaceOnUse"> <stop offset="0.2544" stop-color="#9F00E8"></stop> <stop offset="1" stop-color="#7000A3"></stop> </linearGradient> <linearGradient id="paint24_linear_103_5" x1="39.3322" y1="36.6613" x2="41.9511" y2="38.5231" gradientUnits="userSpaceOnUse"> <stop stop-color="#80DAFE"></stop> <stop offset="1" stop-color="#008EE6"></stop> </linearGradient> <linearGradient id="paint25_linear_103_5" x1="41.7359" y1="41.7298" x2="44.8462" y2="41.041" gradientUnits="userSpaceOnUse"> <stop stop-color="#FF9214"></stop> <stop offset="1" stop-color="#FF4E0D"></stop> </linearGradient> <linearGradient id="paint26_linear_103_5" x1="57.7145" y1="48.7018" x2="57.9396" y2="35.2498" gradientUnits="userSpaceOnUse"> <stop stop-color="#80DAFE"></stop> <stop offset="1" stop-color="#008EE6"></stop> </linearGradient> <linearGradient id="paint27_linear_103_5" x1="55.878" y1="56.1321" x2="46.6862" y2="51.5912" gradientUnits="userSpaceOnUse"> <stop stop-color="#FBE07A"></stop> <stop offset="1" stop-color="#E81CA2"></stop> </linearGradient> </defs> </svg> 