<?xml version="1.0" encoding="UTF-8"?> <svg xmlns="http://www.w3.org/2000/svg" width="699" height="425" viewBox="0 0 699 425" fill="none"> <path d="M349.5 408.033C193.892 408.033 67.747 396.989 67.747 383.365C67.747 369.741 193.892 358.697 349.5 358.697C505.108 358.697 631.253 369.741 631.253 383.365C631.253 396.989 505.108 408.033 349.5 408.033Z" fill="white"></path> <path d="M622.879 353.505H453.553L487.315 137.728H613.932L622.879 353.505Z" fill="#63A8C7"></path> <path d="M622.879 353.505H608.032L599.7 137.728H613.932L622.879 353.505Z" fill="white"></path> <path d="M642.045 354.35L568.902 353.966L495.773 353.828L349.5 353.582L203.227 353.828L130.098 353.966L56.9544 354.35L130.098 354.719L203.227 354.857L349.5 355.103L495.773 354.857L568.902 354.719L642.045 354.35Z" fill="#263238"></path> <path d="M325.706 351.585H335.744V358.789H325.706V351.585Z" fill="#455A64"></path> <path d="M312.677 351.109H322.714V358.313H312.677V351.109Z" fill="#455A64"></path> <path d="M299.661 350.633H309.699V357.837H299.661V350.633Z" fill="#455A64"></path> <path d="M286.632 350.157H296.669V357.361H286.632V350.157Z" fill="#455A64"></path> <path d="M273.616 349.681H283.654V356.885H273.616V349.681Z" fill="#455A64"></path> <path d="M260.587 349.204H270.625V356.408H260.587V349.204Z" fill="#455A64"></path> <path d="M247.572 348.728H257.609V355.932H247.572V348.728Z" fill="#455A64"></path> <path d="M234.542 348.252H244.58V355.456H234.542V348.252Z" fill="#455A64"></path> <path d="M221.527 347.776H231.565V354.98H221.527V347.776Z" fill="#455A64"></path> <path d="M219.067 362.921H338.204V354.166L219.067 350.51V362.921Z" fill="#63A8C7"></path> <path d="M102.781 328.361H299.452L268.178 167.48H71.5076L102.781 328.361Z" fill="#455A64"></path> <path d="M95.5112 328.361H292.182L260.909 167.48H64.224L95.5112 328.361Z" fill="#63A8C7"></path> <path d="M162.517 251.284C163.118 254.948 164.845 258.275 167.41 260.707C169.975 263.14 173.223 264.531 176.609 264.648C178.138 264.701 179.659 264.373 181.056 263.688C182.453 263.002 183.69 261.978 184.675 260.692C185.66 259.406 186.367 257.891 186.742 256.262C187.118 254.632 187.152 252.931 186.843 251.284C186.24 247.622 184.512 244.297 181.947 241.865C179.383 239.433 176.137 238.041 172.751 237.921C171.222 237.868 169.702 238.196 168.305 238.881C166.908 239.566 165.67 240.591 164.685 241.877C163.7 243.163 162.993 244.678 162.618 246.307C162.243 247.937 162.208 249.638 162.517 251.284Z" fill="#263238"></path> <path d="M187.206 198.139L191.945 222.561H196.237L191.498 198.139H187.206Z" fill="#263238"></path> <path d="M178.049 198.139L182.788 222.561H187.094L182.355 198.139H178.049Z" fill="#263238"></path> <path d="M168.906 198.139L173.646 222.561H177.937L173.198 198.139H168.906Z" fill="#263238"></path> <path d="M159.749 198.139L164.489 222.561H168.794L164.055 198.139H159.749Z" fill="#263238"></path> <path d="M150.607 198.139L155.346 222.561H159.638L154.898 198.139H150.607Z" fill="#263238"></path> <path d="M141.45 198.139L146.189 222.561H150.495L145.755 198.139H141.45Z" fill="#263238"></path> <path d="M153.934 370.371H250.661V362.122L153.934 358.682V370.371Z" fill="#455A64"></path> <path d="M127.623 370.355H179.559L210.846 280.223H158.911L127.623 370.355Z" fill="#455A64"></path> <path d="M119.082 370.355H171.017L202.291 280.223H150.355L119.082 370.355Z" fill="#263238"></path> <path d="M316.255 372.567H415.989C424.503 372.567 412.186 345.948 381.123 335.703C350.059 325.458 306.455 362.583 316.255 372.567Z" fill="#63A8C7"></path> <path d="M355.385 372.567C355.29 369.536 354.82 366.534 353.987 363.643C353.18 360.724 352.053 357.923 350.632 355.302C349.207 352.667 347.425 350.284 345.348 348.237C343.291 346.199 340.925 344.572 338.358 343.429C339.434 344.381 340.651 345.057 341.629 346.102L343.167 347.53L344.565 349.066C346.419 351.187 348.042 353.537 349.402 356.07C350.781 358.599 351.964 361.25 352.939 363.996C353.936 366.787 354.754 369.651 355.385 372.567Z" fill="#263238"></path> <path d="M343.572 347.238C337.664 349.373 332.069 352.442 326.964 356.347C324.37 358.307 322.021 360.631 319.974 363.259C318.97 364.6 318.103 366.057 317.388 367.606C316.703 369.159 316.304 370.845 316.214 372.567C316.557 370.929 317.158 369.37 317.989 367.959C318.793 366.549 319.73 365.236 320.785 364.042C322.921 361.655 325.262 359.499 327.775 357.606C330.249 355.64 332.864 353.889 335.492 352.154C336.806 351.293 338.148 350.464 339.504 349.65C340.86 348.836 342.202 348.037 343.572 347.238Z" fill="#263238"></path> <path d="M489.44 37.2122C494.193 27.0899 511.221 6.07747 531.506 17.321C560.43 33.3722 548.631 99.5891 558.823 124.411C577.276 169.385 569.098 205.911 545.01 204.867C518.001 203.684 500.806 166.313 517.931 101.862C528.654 61.5578 522.754 40.4224 515.135 39.4548C507.516 38.4871 500.917 47.4419 500.917 47.4419L489.44 37.2122Z" fill="#263238"></path> <path d="M491.481 33.4797C494.25 28.9349 497.508 24.7731 501.183 21.0842C504.9 17.2787 509.3 14.3697 514.1 12.544C519.051 10.7102 524.4 10.6296 529.395 12.3137C534.344 13.9865 538.852 16.9479 542.536 20.946C546.102 25.026 548.833 29.8964 550.546 35.2308C552.215 40.455 553.336 45.871 553.888 51.3741C554.819 62.2525 554.636 73.2113 553.342 84.0449C553.538 73.2332 553 62.4207 551.735 51.6967C550.993 46.4531 549.765 41.3064 548.072 36.3367C546.432 31.4182 543.87 26.9334 540.551 23.1732C537.195 19.4952 533.094 16.7424 528.584 15.1399C524.101 13.5081 519.272 13.4224 514.744 14.8941C510.118 16.4298 505.81 18.9449 502.064 22.2977C500.103 23.9371 498.236 25.7068 496.472 27.5968C494.78 29.44 493.103 31.4369 491.481 33.4797Z" fill="#263238"></path> <path d="M523.341 79.4983C522.055 86.0109 520.112 92.3393 518.392 98.729C516.673 105.119 514.814 111.432 513.206 117.821C511.598 124.211 510.186 130.632 509.18 137.129C508.095 143.582 507.585 150.136 507.656 156.698C507.65 163.181 508.76 169.607 510.927 175.637C513.317 181.579 516.628 187.021 520.713 191.718C524.794 196.465 529.838 200.086 535.434 202.286C538.245 203.405 541.178 204.107 544.158 204.375C545.656 204.498 547.161 204.498 548.659 204.375C550.169 204.342 551.667 204.068 553.105 203.561C550.235 204.739 547.176 205.262 544.116 205.097C541.034 205.023 537.974 204.506 535.015 203.561C532.043 202.603 529.193 201.241 526.529 199.506C523.873 197.737 521.406 195.645 519.175 193.27C516.945 190.897 514.927 188.295 513.15 185.498L511.864 183.378L510.647 181.197C509.838 179.715 509.119 178.175 508.495 176.589C506.133 170.249 504.899 163.471 504.86 156.621C504.692 142.997 507.53 129.741 511.123 117.007C512.926 110.618 514.981 104.335 517.092 98.0993C519.203 91.8631 521.454 85.8881 523.341 79.4983Z" fill="#263238"></path> <path d="M487.65 36.8589C488.056 33.7869 490.712 30.1927 492.613 29.993C494.515 29.7933 506.943 38.7328 507.488 42.7571C508.033 46.7815 501.519 48.9011 501.519 48.9011L487.65 36.8589Z" fill="white"></path> <path d="M486.434 179.814C445.207 207.232 387.246 235.356 366.989 231.194C350.576 227.845 289.12 178.755 286.059 175.898C278.496 168.878 314.564 106.163 323.693 112.077C335.199 119.511 379.068 166.328 384.059 166.344C389.259 166.344 426.376 160.891 468.959 154.056C498.387 149.463 512.018 162.857 486.434 179.814Z" fill="#EB9481"></path> <path d="M313.376 90.88C303.52 85.3504 292.643 78.1466 281.124 76.7027C269.604 75.2589 258.071 90.5267 257.498 95.2883C256.924 100.05 257.637 130.432 269.115 132.152C280.593 133.873 276.441 109.973 277.195 107.423C277.95 104.873 278.775 101.586 280.914 102.139C283.053 102.692 318.562 128.005 318.562 128.005L313.376 90.88Z" fill="#EB9481"></path> <path d="M312.425 92.5082C311.782 92.416 282.634 74.5831 271.128 73.1392C259.623 71.6954 248.061 86.9632 247.488 91.7248C246.915 96.4864 247.642 126.868 259.119 128.589C270.597 130.309 266.431 106.409 267.186 103.859C267.941 101.309 268.779 98.0224 270.918 98.5754C273.057 99.1283 308.567 124.442 308.567 124.442L312.425 92.5082Z" fill="#EB9481"></path> <path d="M263.202 127.514C264.865 125.732 265.466 122.767 265.998 120.34C266.567 117.686 266.756 114.949 266.557 112.23C266.19 109.871 266.003 107.482 265.998 105.088C266.298 102.753 267.13 100.54 268.416 98.6522C269.507 97.0086 271.128 97.8688 272.498 98.6522C274.532 99.8548 276.493 101.199 278.37 102.676C280.425 104.212 282.438 105.748 284.465 107.284C286.617 108.811 288.681 110.483 290.644 112.292C290.784 112.43 290.644 112.722 290.463 112.614C288.578 111.476 286.748 110.23 284.982 108.882C282.941 107.438 280.886 106.015 278.817 104.612C276.888 103.306 275.015 101.893 273.057 100.618C272.372 100.173 271.016 99.0823 270.15 99.1898C269.283 99.2973 268.528 101.571 268.248 102.262C267.491 104.459 267.341 106.852 267.815 109.143C268.141 111.485 268.258 113.857 268.164 116.224C268.102 118.461 267.671 120.668 266.892 122.737C265.945 124.553 264.804 126.239 263.495 127.759C263.355 128.036 263.02 127.713 263.202 127.514Z" fill="#263238"></path> <path d="M344.831 130.939C344.831 130.939 316.871 94.4282 311.027 87.1322C299.27 72.4941 246.37 39.1936 238.681 37.1507C230.992 35.1079 226.099 52.2496 261.803 76.0576C280.662 88.6068 282.69 101.724 281.459 108.652C280.229 115.579 272.596 127.698 261.887 125.809C251.179 123.919 246.398 105.841 236.807 102.446C227.217 99.0515 231.299 119.818 236.807 132.26C242.315 144.701 253.891 155.96 262.67 161.152C271.45 166.344 298.403 184.038 298.403 184.038L344.831 130.939Z" fill="#EB9481"></path> <path d="M249.683 115.61C253.29 119.634 257.316 124.733 262.586 125.716C267.857 126.7 272.065 123.366 275.168 118.835C278.272 114.304 280.509 108.851 279.949 103.014C279.327 97.7608 277.336 92.8165 274.218 88.7757C270.403 83.8602 265.957 79.5811 261.021 76.073C260.811 75.904 261.021 75.5661 261.286 75.7197C265.914 78.7917 280.369 88.0077 281.627 103.26C282.144 109.512 279.838 114.673 276.65 119.373C273.714 123.704 269.66 127.698 264.488 127.406C258.099 127.037 253.304 120.602 249.333 115.732C249.179 115.517 249.501 115.41 249.683 115.61Z" fill="#263238"></path> <path d="M389.343 161.567L437.071 211.348C437.071 211.348 468.777 195.896 492.613 177.265C516.449 158.633 491.858 147.113 452.505 151.644C413.151 156.175 389.343 161.567 389.343 161.567Z" fill="white"></path> <path d="M448.45 205.42L449.08 205.082C449.08 204.974 449.08 204.882 449.08 204.774C449.239 200.574 449.999 196.428 451.33 192.486C452.007 190.556 453.183 188.885 454.713 187.679C455.497 187.131 456.371 186.76 457.286 186.588C458.215 186.484 459.149 186.448 460.082 186.481C463.901 186.691 467.67 187.524 471.266 188.954C472.258 189.338 473.251 189.752 474.23 190.198L474.775 189.845C473.67 189.338 472.566 188.862 471.448 188.416C467.789 186.955 463.955 186.096 460.068 185.866C459.088 185.831 458.107 185.872 457.132 185.989C456.138 186.166 455.186 186.563 454.336 187.157C452.707 188.427 451.453 190.195 450.729 192.241C449.356 196.241 448.573 200.457 448.408 204.728L448.45 205.42ZM415.779 156.682L415.989 157.312C417.736 162.427 419.931 167.573 423.734 171.136C425.648 172.881 427.976 173.989 430.444 174.331C432.928 174.571 435.423 174.038 437.644 172.795C442.159 170.429 445.864 166.559 449.387 162.673C452.91 158.787 456.056 154.824 459.439 150.953H459.69C456.293 154.901 453.022 158.986 449.555 162.903C446.186 167.039 442.201 170.514 437.77 173.179C435.502 174.495 432.928 175.034 430.379 174.728C427.83 174.421 425.423 173.282 423.468 171.459C419.582 167.772 417.373 162.565 415.583 157.45C415.5 157.205 415.416 156.974 415.346 156.728L415.779 156.682ZM440.943 209.367C438.455 210.657 437.029 211.349 437.029 211.349C438.315 210.627 439.657 209.997 440.985 209.367H440.943Z" fill="white"></path> <path d="M448.884 202.225C439.252 190.72 428.878 179.937 418.337 169.416C415.364 166.436 412.321 163.533 409.209 160.707C409.191 160.694 409.169 160.689 409.148 160.691C409.127 160.693 409.107 160.702 409.091 160.718C409.075 160.734 409.065 160.754 409.061 160.777C409.057 160.8 409.059 160.824 409.069 160.845C413.99 166.467 419.12 171.889 424.223 177.326C429.326 182.764 434.484 188.201 439.741 193.5C442.705 196.495 445.654 199.491 448.688 202.424C448.758 202.624 449.01 202.363 448.884 202.225Z" fill="#263238"></path> <path opacity="0.1" d="M417.233 190.659L437.071 211.348C437.071 211.348 468.777 195.896 492.613 177.265C502.315 169.677 503.993 163.272 499.925 158.664L417.233 190.659Z" fill="black"></path> <path d="M420.435 353.782H579.988C579.988 353.782 545.332 206.725 513.262 165.315C512.549 164.362 511.864 163.471 511.053 162.627C510.899 162.427 510.773 162.289 510.62 162.12C508.139 159.201 505.245 156.743 502.05 154.839C501.491 154.501 500.931 154.194 500.344 153.902C487.986 147.666 474.943 152.842 465.52 161.69C462.528 164.501 428.711 212.854 425.719 231.286C423.133 247.552 433.142 265.078 433.142 265.078L420.435 353.782Z" fill="white"></path> <path d="M457.146 258.734C463.918 259.454 470.633 260.722 477.235 262.528C480.521 263.48 483.736 264.602 486.951 265.8C488.559 266.383 490.167 266.921 491.788 267.459C493.47 268.062 495.211 268.438 496.975 268.58C497 268.589 497.021 268.607 497.036 268.63C497.051 268.654 497.059 268.682 497.059 268.71C497.059 268.739 497.051 268.767 497.036 268.791C497.021 268.814 497 268.832 496.975 268.841C495.301 268.926 493.624 268.879 491.956 268.703C490.348 268.469 488.756 268.12 487.189 267.658C483.862 266.721 480.562 265.615 477.235 264.586C470.525 262.62 463.828 260.654 456.992 259.226C456.685 259.287 456.769 258.703 457.146 258.734Z" fill="#263238"></path> <path d="M440.23 265.201C445.838 264.609 451.471 264.363 457.104 264.463C459.9 264.463 462.696 264.771 465.492 265.093C466.82 265.262 468.162 265.431 469.49 265.631C470.818 265.83 472.398 266.291 473.866 266.491C474.02 266.491 474.02 266.767 473.866 266.752C472.468 266.614 471.07 266.752 469.672 266.675L465.478 266.522C462.682 266.414 459.886 266.353 457.09 266.214C451.498 265.953 445.906 265.754 440.244 265.708C439.909 265.708 439.937 265.231 440.23 265.201Z" fill="#263238"></path> <g opacity="0.1"> <path d="M472.384 241.024C471.906 241.314 471.546 241.792 471.375 242.361C471.204 242.931 471.235 243.55 471.461 244.096C471.603 244.314 471.786 244.495 471.999 244.625C472.212 244.755 472.449 244.832 472.692 244.849C473.275 244.906 473.859 244.737 474.341 244.372L486.308 235.402C486.406 235.402 486.462 235.31 486.532 235.218H486.644C486.713 235.133 486.774 235.041 486.825 234.941C486.885 234.922 486.935 234.878 486.965 234.819C486.965 234.819 487.049 234.65 487.091 234.619C487.133 234.588 487.189 234.481 487.203 234.45L487.273 234.204C487.314 234.143 487.347 234.076 487.371 234.004C487.364 233.948 487.364 233.892 487.371 233.836L487.441 233.59C487.441 233.513 487.441 233.482 487.441 233.436C487.441 233.39 487.441 233.267 487.441 233.16C487.441 233.052 487.441 233.16 487.441 233.16C487.45 233.052 487.45 232.944 487.441 232.837V232.76C487.427 232.66 487.383 232.568 487.315 232.499L481.22 221.747C480.863 221.3 480.363 221.021 479.823 220.969C479.284 220.918 478.747 221.097 478.326 221.471C477.848 221.761 477.488 222.239 477.316 222.808C477.145 223.378 477.176 223.997 477.403 224.543L482.562 233.559L472.384 241.024Z" fill="black"></path> <path d="M463.856 241.285L461.983 220.365C461.948 220.119 461.863 219.885 461.733 219.681C461.603 219.477 461.432 219.308 461.234 219.188C461.035 219.068 460.814 218.999 460.588 218.988C460.362 218.976 460.136 219.021 459.928 219.121C459.454 219.261 459.037 219.572 458.743 220.004C458.449 220.435 458.296 220.963 458.306 221.501L460.18 242.452C460.227 242.801 460.382 243.121 460.619 243.359C460.856 243.596 461.16 243.737 461.48 243.758C461.701 243.809 461.929 243.809 462.151 243.758C462.654 243.632 463.102 243.315 463.414 242.863C463.726 242.411 463.882 241.852 463.856 241.285Z" fill="black"></path> <path d="M439.615 230.548C439.656 230.642 439.708 230.73 439.769 230.81L445.864 241.562C446.012 241.784 446.203 241.968 446.423 242.1C446.643 242.233 446.886 242.311 447.136 242.33C447.712 242.37 448.283 242.197 448.758 241.838C449.238 241.551 449.601 241.073 449.772 240.502C449.943 239.932 449.911 239.311 449.681 238.766L444.522 229.75L454.602 222.239C455.079 221.948 455.44 221.471 455.611 220.901C455.782 220.332 455.751 219.712 455.524 219.167C455.168 218.719 454.667 218.44 454.128 218.389C453.589 218.337 453.052 218.517 452.63 218.89L440.677 227.86C440.573 227.921 440.475 227.993 440.384 228.076C440.292 228.169 440.207 228.272 440.132 228.383C440.075 228.491 440.009 228.594 439.937 228.69C439.937 228.69 439.937 228.69 439.937 228.782L439.867 229.028L439.783 229.197C439.783 229.197 439.783 229.335 439.783 229.366V229.642C439.783 229.642 439.783 229.642 439.783 229.719C439.788 229.826 439.788 229.934 439.783 230.042C439.783 230.042 439.783 230.042 439.783 230.149L439.615 230.548Z" fill="black"></path> </g> <path d="M429.731 288.824C429.952 288.973 430.181 289.106 430.416 289.224L431.814 289.9C432.262 290.115 432.737 290.253 433.212 290.437C434.125 290.77 435.06 291.021 436.008 291.19C437.966 291.491 439.959 291.349 441.866 290.775C442.81 290.428 443.694 289.909 444.48 289.239C445.241 288.534 445.905 287.712 446.451 286.797C447.518 284.986 448.315 283 448.814 280.914C449.779 276.783 450.337 272.55 450.478 268.288C450.478 267.551 450.478 266.752 450.478 266.076C450.478 265.8 450.478 265.523 450.478 265.247C450.673 257.766 450.338 250.301 449.974 242.852C449.555 234.389 448.996 225.956 448.828 217.477C448.828 213.76 448.744 210.028 448.94 206.326C448.94 206.157 448.94 205.988 448.94 205.819C448.94 205.65 448.94 205.158 448.94 204.821C449.099 200.62 449.859 196.474 451.191 192.533C451.868 190.602 453.044 188.931 454.574 187.725C455.357 187.177 456.231 186.807 457.146 186.634C458.075 186.53 459.009 186.494 459.942 186.527C463.761 186.737 467.53 187.57 471.126 189C473.572 189.963 475.97 191.065 478.312 192.302L478.857 192.579C483.261 194.913 487.511 197.617 491.719 200.366C498.345 204.698 504.86 209.244 511.71 213.176C514.045 214.497 516.407 215.757 518.826 216.863L519.105 217.001C520.149 217.472 521.212 217.917 522.293 218.337C525.937 219.815 529.765 220.67 533.645 220.872C535.781 220.92 537.912 220.609 539.964 219.95C539.964 219.843 539.964 219.75 539.852 219.658C537.832 220.277 535.74 220.561 533.645 220.503C529.82 220.276 526.049 219.412 522.461 217.938C521.412 217.523 520.364 217.078 519.329 216.617L519.036 216.479C516.617 215.357 514.254 214.113 511.934 212.777C505.125 208.845 498.625 204.283 491.998 199.921C487.902 197.248 483.75 194.591 479.416 192.241L478.885 191.949C476.42 190.635 473.896 189.461 471.322 188.431C467.663 186.971 463.829 186.111 459.942 185.882C458.962 185.847 457.981 185.888 457.006 186.005C456.012 186.181 455.061 186.578 454.21 187.172C452.581 188.442 451.327 190.21 450.603 192.256C449.23 196.257 448.447 200.472 448.283 204.744C448.283 205.189 448.283 205.635 448.213 206.08C448.199 206.244 448.199 206.408 448.213 206.572C448.017 210.212 448.017 213.852 448.073 217.477C448.227 225.971 448.758 234.373 449.177 242.883C449.527 250.01 449.862 257.137 449.737 264.248C449.737 264.525 449.737 264.801 449.737 265.078C449.737 266.138 449.737 267.182 449.639 268.242C449.513 272.451 448.974 276.632 448.031 280.714C447.555 282.733 446.791 284.657 445.766 286.413C445.246 287.271 444.62 288.046 443.907 288.717C443.188 289.38 442.37 289.9 441.488 290.253C439.669 290.804 437.767 290.945 435.896 290.668C434.949 290.505 434.015 290.264 433.1 289.946C432.653 289.761 432.206 289.623 431.702 289.423L430.416 288.778L429.577 288.302L429.731 288.824ZM425.845 230.641C428.939 234.051 431.865 237.64 434.61 241.393C440.035 248.75 444.969 256.507 449.988 264.248L450.617 265.231L452.477 268.119C455.916 273.449 459.397 278.794 463.088 283.924C463.185 284.063 463.283 284.216 463.395 284.355C465.828 287.718 468.344 290.99 471.028 294.108C474.412 298.164 478.185 301.805 482.282 304.968C483.291 305.771 484.341 306.509 485.428 307.18C486.49 307.917 487.622 308.501 488.727 309.13C490.9 310.427 493.416 310.851 495.843 310.328C498.239 309.651 500.438 308.314 502.232 306.442C504.072 304.594 505.727 302.535 507.166 300.298C510.041 295.797 512.585 291.051 514.772 286.106C519.259 276.245 523.076 266.03 527.018 255.893C530.83 245.665 535.152 235.676 539.964 225.971C540.453 225.034 540.956 224.113 541.473 223.191L541.767 223.99C541.334 224.758 540.914 225.526 540.509 226.325C535.724 236.013 531.435 245.987 527.661 256.2C523.691 266.322 519.86 276.536 515.345 286.413C513.125 291.388 510.554 296.164 507.656 300.698C506.183 302.961 504.496 305.046 502.623 306.918C500.751 308.863 498.454 310.244 495.955 310.927C493.408 311.471 490.769 311.026 488.489 309.668C487.357 309.038 486.21 308.439 485.148 307.702C484.086 306.965 482.995 306.258 481.961 305.459C477.849 302.246 474.054 298.57 470.637 294.492C467.981 291.42 465.464 288.102 463.06 284.754C462.948 284.616 462.85 284.462 462.752 284.324C459.033 279.148 455.552 273.772 452.099 268.396L450.589 266.045L449.974 265.062C444.914 257.137 439.909 249.18 434.359 241.654C431.684 237.987 428.833 234.48 425.817 231.148C425.775 230.979 425.803 230.81 425.845 230.641ZM502.455 341.586C508.69 332.954 514.814 324.168 521.566 315.996C528.318 307.825 535.798 300.114 544.954 295.322C547.252 294.183 549.657 293.328 552.126 292.772C553.364 292.49 554.614 292.285 555.873 292.157C557.129 292.055 558.389 292.029 559.647 292.081C561.052 292.111 562.453 292.244 563.841 292.48L563.925 292.757C562.537 292.518 561.136 292.384 559.731 292.357C558.482 292.319 557.231 292.35 555.985 292.449C554.744 292.587 553.512 292.802 552.294 293.094C549.846 293.654 547.464 294.514 545.192 295.66C536.133 300.437 528.682 308.178 521.971 316.288C515.261 324.398 509.138 333.184 502.917 341.893C500.037 345.887 497.129 349.88 494.123 353.782H493.48C496.486 349.788 499.478 345.687 502.455 341.586ZM425.789 316.396C426.754 319.222 427.69 322.033 428.585 324.859C431.786 334.551 434.876 344.289 438.525 353.782H437.826C434.205 344.366 431.129 334.72 427.928 325.12C427.131 322.724 426.32 320.312 425.509 317.916L425.789 316.396ZM440.37 331.756C440.496 330.957 440.608 330.143 440.761 329.329L441.265 326.933C441.558 325.396 442.02 323.768 442.425 322.186C444.167 315.908 446.565 309.873 449.569 304.2C453.345 297.096 457.737 290.409 462.682 284.232C462.802 284.101 462.914 283.963 463.018 283.817C465.814 280.269 468.749 276.859 471.713 273.495C480.101 264.141 488.825 255.309 497.213 246.047C501.407 241.439 505.489 236.677 509.375 231.731C510.354 230.502 511.319 229.258 512.255 227.999C513.192 226.739 514.129 225.464 515.051 224.143C516.597 221.808 517.949 219.325 519.091 216.725C519.161 216.604 519.218 216.475 519.259 216.341C519.363 216.142 519.457 215.937 519.539 215.726C522 209.774 523.305 203.324 523.369 196.787C523.407 190.251 522.501 183.75 520.685 177.526C520.475 176.773 520.238 175.99 520 175.268L520.322 175.821C520.499 176.374 520.667 176.927 520.825 177.48C522.68 183.713 523.624 190.23 523.621 196.787C523.575 203.366 522.285 209.862 519.832 215.864C519.748 216.079 519.665 216.279 519.567 216.479C519.526 216.617 519.465 216.747 519.385 216.863C518.24 219.491 516.888 222.004 515.345 224.374C514.478 225.71 513.541 226.985 512.549 228.245C511.556 229.504 510.661 230.764 509.683 231.992C505.796 236.954 501.7 241.7 497.52 246.354C489.132 255.57 480.367 264.494 472.077 273.833C469.085 277.212 466.149 280.684 463.353 284.247C463.227 284.385 463.129 284.524 463.018 284.662C458.12 290.784 453.775 297.415 450.044 304.461C447.058 310.132 444.675 316.162 442.942 322.432C442.551 323.968 442.104 325.504 441.81 327.148L441.307 329.528C441.167 330.327 441.055 331.141 440.915 331.94C439.528 339.362 440.515 347.083 443.711 353.797H443.04C439.91 347.02 438.973 339.273 440.384 331.832L440.37 331.756ZM432.485 213.484L433.254 213.069C438.231 210.458 443.306 208.138 448.423 205.926L449.038 205.65C453.469 203.73 457.929 201.871 462.347 199.951C467.212 197.816 472.049 195.62 476.746 193.101L478.521 192.118L479.081 191.795C482.974 189.632 486.668 187.06 490.111 184.115C494.288 180.669 497.741 176.273 500.232 171.228C501.451 168.712 502.336 166.017 502.861 163.226C503.319 160.652 503.451 158.021 503.252 155.407C503.454 155.529 503.65 155.663 503.839 155.807C503.989 158.326 503.843 160.855 503.406 163.333C502.855 166.183 501.942 168.934 500.694 171.505C498.159 176.61 494.655 181.058 490.418 184.545C487.029 187.392 483.412 189.896 479.612 192.026L479.067 192.333L476.956 193.5C472.23 196.035 467.379 198.216 462.514 200.335C458.027 202.286 453.497 204.145 449.01 206.095L448.395 206.357C443.334 208.538 438.329 210.811 433.422 213.391L432.164 214.052C432.276 214.037 432.387 213.821 432.485 213.606V213.484Z" fill="white"></path> <path d="M519.077 169.093C546.73 200.397 613.275 318.653 592.766 341.125C572.257 363.597 457.803 349.542 426.236 342.892C415.695 340.664 441.027 264.356 452.379 262.559C461.843 261.023 517.707 272.973 519.637 270.239C521.202 268.058 509.976 239.519 497.506 193.439C483.121 140.447 506.859 155.254 519.077 169.093Z" fill="#EB9481"></path> <path d="M398.234 252.39C374.468 252.728 368.401 256.829 348.2 245.402C334.947 237.906 324.895 243.989 333.8 257.935C348.368 280.745 379.124 287.396 390.391 286.321L398.234 252.39Z" fill="#EB9481"></path> <path d="M463.493 266.66C463.493 266.66 435.128 255.078 409.754 252.682C392.209 251.023 353.666 252.099 323.19 299.146C315.962 310.298 312.858 331.832 330.697 318.316C343.363 308.731 348.745 298.424 357.049 294.323C357.049 294.323 356.057 322.232 366.514 329.743C375.658 336.323 385.216 342.18 395.117 347.269C396.377 345.486 397.534 343.619 398.584 341.678C398.584 341.678 408.957 347.699 426.236 342.922L463.493 266.66Z" fill="#EB9481"></path> <path d="M392.838 254.034C385.387 260.024 369.799 273.019 360.404 288.517C349.975 305.72 334.108 341.97 345.753 350.295C354.295 356.439 361.453 343.153 361.453 343.153C361.453 343.153 357.776 359.649 366.584 363.32C374.608 366.653 379.599 356.04 379.599 356.04C379.599 356.04 378.928 366.469 387.218 368.051C397.2 369.941 397.004 347.776 408.593 340.096C411.138 338.376 392.838 254.034 392.838 254.034Z" fill="#EB9481"></path> <path d="M378.746 297.58C372.581 304.476 362.236 324.091 361.215 342.769C361.215 343.199 361.481 343.445 361.565 343.061C365.638 327.223 371.445 311.988 378.858 297.687C378.942 297.595 378.858 297.503 378.746 297.58Z" fill="#263238"></path> <path d="M394.236 309.652C389.469 316.211 379.641 336.932 379.194 355.917C379.194 356.331 379.487 356.562 379.571 356.178C382.897 340.139 387.869 324.567 394.39 309.76C394.394 309.739 394.391 309.717 394.384 309.697C394.376 309.677 394.363 309.66 394.346 309.649C394.33 309.637 394.31 309.631 394.291 309.632C394.271 309.632 394.252 309.64 394.236 309.652Z" fill="#263238"></path> <path d="M357.021 294.154C349.766 297.887 345.404 302.802 339.672 308.762C336.877 311.751 333.932 314.566 330.851 317.194C328.055 319.544 323.861 323.093 320.142 320.758C318.087 319.468 317.709 316.549 317.807 314.184C317.877 311.515 318.473 308.894 319.555 306.504C319.555 306.396 319.415 306.273 319.359 306.396C318.309 308.496 317.542 310.752 317.08 313.093C316.547 315.273 316.62 317.579 317.29 319.713C319.052 324.122 324.07 323.891 327.384 322.048C329.37 320.864 331.243 319.465 332.976 317.87C334.653 316.334 336.261 314.798 337.841 313.262C341.07 309.99 344.132 306.504 347.333 303.186C350.458 300.032 353.764 297.103 357.231 294.415C357.301 294.308 357.161 294.077 357.021 294.154Z" fill="#263238"></path> <path d="M345.194 326.149C346.494 321.065 354.379 299.484 357.203 294.323C357.215 294.297 357.217 294.267 357.211 294.238C357.204 294.21 357.188 294.185 357.166 294.168C357.144 294.152 357.117 294.144 357.091 294.147C357.064 294.15 357.04 294.164 357.021 294.185C351.961 301.343 344.733 319.298 343.237 324.905C341.741 330.511 340.161 337.5 340.972 343.337C342.175 352.046 347.669 352.814 349.668 352.906C352.037 352.978 354.356 352.154 356.238 350.571C358.421 348.54 360.205 346.042 361.481 343.229C361.551 343.091 361.383 342.953 361.299 343.091C359.034 346.977 354.938 351.14 350.549 351.232C349.581 351.291 348.612 351.137 347.7 350.778C346.788 350.419 345.95 349.863 345.236 349.143C343.77 347.244 342.976 344.828 342.999 342.339C342.89 336.844 343.633 331.37 345.194 326.149Z" fill="#263238"></path> <path d="M379.207 355.917C378.257 357.13 376.481 361.124 372.972 362.506C371.744 363.102 370.402 363.36 369.062 363.258C367.723 363.156 366.426 362.698 365.283 361.923C363.137 360.105 361.722 357.437 361.341 354.488C361.12 350.743 361.162 346.984 361.467 343.245C361.467 343.061 361.285 343.014 361.257 343.245C360.463 347.248 360.214 351.358 360.516 355.441C360.681 357.042 361.137 358.591 361.857 359.995C362.578 361.399 363.548 362.629 364.71 363.612C365.958 364.554 367.418 365.1 368.93 365.189C370.442 365.279 371.947 364.908 373.28 364.119C374.678 363.305 378.634 359.419 379.501 356.101C379.557 355.963 379.249 355.855 379.207 355.917Z" fill="#263238"></path> <path d="M407.573 338.652C406.471 339.755 405.486 340.992 404.637 342.339C403.687 343.69 402.792 345.103 401.911 346.517C400.183 349.417 398.73 352.505 397.577 355.733C396.375 358.958 395.368 362.491 393.034 364.949C391.938 366.192 390.514 367.025 388.963 367.328C387.412 367.632 385.813 367.39 384.394 366.638C382.903 365.777 381.728 364.377 381.067 362.675C380.264 360.841 379.789 358.854 379.669 356.823C379.669 356.791 379.657 356.759 379.636 356.736C379.615 356.713 379.587 356.7 379.557 356.7C379.527 356.7 379.499 356.713 379.478 356.736C379.457 356.759 379.445 356.791 379.445 356.823C379.406 358.649 379.527 360.475 379.809 362.276C380.183 363.906 380.94 365.399 382.004 366.607C383.127 367.768 384.521 368.565 386.03 368.912C387.539 369.259 389.107 369.142 390.559 368.574C393.775 367.345 395.83 364.211 397.214 360.894C398.752 357.253 399.926 353.475 401.617 349.911C402.512 348.037 403.379 346.148 404.413 344.351C405.448 342.554 406.818 340.864 407.783 338.867C407.853 338.714 407.713 338.529 407.573 338.652Z" fill="#263238"></path> <path d="M417.876 344.535C413.474 344.743 409.064 344.486 404.707 343.767C404.567 343.767 404.441 344.182 404.567 344.228C406.722 344.909 408.941 345.321 411.18 345.457C413.429 345.606 415.687 345.383 417.876 344.796C418.002 344.765 418.002 344.52 417.876 344.535Z" fill="#263238"></path> <path d="M576.829 296.535C569.936 291.659 562.731 287.337 555.272 283.602C547.893 279.917 540.276 276.837 532.484 274.386C528.053 272.942 523.565 271.729 519.091 270.5C519.074 270.493 519.056 270.491 519.038 270.493C519.02 270.496 519.003 270.503 518.989 270.514C518.974 270.525 518.962 270.541 518.953 270.558C518.945 270.576 518.941 270.595 518.941 270.615C518.941 270.635 518.945 270.654 518.953 270.672C518.962 270.69 518.974 270.705 518.989 270.716C519.003 270.727 519.02 270.734 519.038 270.737C519.056 270.739 519.074 270.737 519.091 270.73C526.914 273.215 534.597 276.2 542.102 279.67C549.558 283.039 556.986 286.546 564.387 290.191C568.581 292.265 572.635 294.554 576.731 296.781C576.752 296.772 576.772 296.759 576.789 296.742C576.806 296.725 576.819 296.704 576.828 296.681C576.837 296.658 576.842 296.633 576.842 296.608C576.842 296.583 576.838 296.558 576.829 296.535Z" fill="#263238"></path> <path d="M575.878 243.098L510.074 242.099C510.074 242.099 497.213 206.694 491.998 175.068C486.784 143.442 510.606 152.627 535.881 186.066C561.157 219.505 575.878 243.098 575.878 243.098Z" fill="white"></path> <path d="M498.345 203.976C498.345 204.206 498.457 204.437 498.527 204.667C502.931 207.601 507.348 210.488 511.92 213.115C514.254 214.436 516.617 215.695 519.035 216.801L519.315 216.94C520.359 217.411 521.421 217.856 522.503 218.276C526.146 219.753 529.975 220.608 533.854 220.81C537.628 220.899 541.355 219.875 544.647 217.846L544.982 217.646L546.045 216.94C548.77 214.941 551.174 212.46 553.161 209.598L553.063 209.444C551.218 212.048 549.027 214.332 546.562 216.218C546.065 216.61 545.547 216.969 545.01 217.293L544.857 217.4C541.514 219.511 537.708 220.574 533.854 220.472C530.029 220.246 526.258 219.381 522.67 217.907C521.622 217.493 520.573 217.047 519.539 216.586L519.245 216.448C516.827 215.327 514.464 214.083 512.143 212.746C507.474 210.012 502.875 207.002 498.345 203.976ZM539.894 225.956C541.335 223.154 542.922 220.447 544.647 217.846L545.01 217.293C546.163 215.617 547.41 214.021 548.743 212.516C549.934 211.162 551.261 209.961 552.699 208.937L553.063 209.444C551.651 210.463 550.347 211.653 549.176 212.992C548.254 214.021 547.387 215.096 546.562 216.218L546.045 216.94C543.978 219.911 542.109 223.042 540.453 226.309C537.741 231.547 535.336 236.954 533.071 242.453H532.344C534.651 236.831 537.112 231.301 539.894 225.956ZM509.375 231.808C510.354 230.579 511.318 229.335 512.255 228.076C513.192 226.816 514.128 225.541 515.051 224.22C516.597 221.885 517.949 219.402 519.091 216.801C519.161 216.681 519.218 216.552 519.259 216.417C519.363 216.219 519.457 216.014 519.539 215.803C522 209.851 523.305 203.401 523.369 196.864C523.407 190.328 522.501 183.827 520.685 177.603C519.343 172.935 517.651 168.399 515.624 164.04C515.687 164.076 515.743 164.122 515.792 164.178C517.803 168.477 519.486 172.952 520.825 177.557C522.68 183.79 523.624 190.306 523.621 196.864C523.575 203.443 522.285 209.939 519.832 215.941C519.748 216.156 519.665 216.356 519.567 216.556C519.526 216.694 519.465 216.824 519.385 216.94C518.24 219.568 516.888 222.081 515.345 224.451C514.478 225.787 513.541 227.062 512.549 228.321C511.556 229.581 510.661 230.84 509.683 232.069C508.984 232.96 508.285 233.836 507.572 234.711C507.572 234.573 507.474 234.435 507.418 234.281C508.061 233.467 508.718 232.638 509.375 231.808ZM500.232 171.413C501.451 168.896 502.336 166.201 502.861 163.41C503.268 161.114 503.418 158.772 503.308 156.437C503.498 156.497 503.685 156.569 503.867 156.652C503.965 158.952 503.81 161.258 503.406 163.518C502.855 166.368 501.942 169.118 500.694 171.689C498.787 175.602 496.275 179.121 493.27 182.088L493.145 181.458C496.01 178.577 498.407 175.18 500.232 171.413Z" fill="white"></path> <path d="M512.786 241.792C512.423 241.792 510.102 241.408 510.102 241.408C509.92 240.471 505.908 225.633 504.86 222.423C502.735 215.849 500.26 209.398 497.87 202.947C497.85 202.913 497.82 202.888 497.786 202.875C497.751 202.861 497.714 202.861 497.679 202.873C497.644 202.885 497.614 202.909 497.593 202.942C497.572 202.975 497.561 203.014 497.562 203.054C499.142 208.614 500.638 214.221 502.259 219.766C501.784 218.982 501.323 218.23 500.861 217.4C499.939 215.757 499.128 214.067 498.261 212.393C498.246 212.358 498.22 212.332 498.187 212.319C498.154 212.306 498.118 212.308 498.086 212.324C498.055 212.34 498.031 212.37 498.019 212.406C498.007 212.442 498.009 212.481 498.024 212.516C498.763 214.848 499.778 217.063 501.043 219.105C501.573 219.983 502.157 220.819 502.791 221.609C502.93 222.07 503.056 222.546 503.196 223.007C504.189 226.248 509.291 242.284 509.543 242.284H512.716C512.912 242.284 512.968 241.792 512.786 241.792Z" fill="#263238"></path> <path d="M564.988 229.335C550.784 228.475 536.51 228.69 522.279 229.228C518.253 229.381 514.226 229.637 510.2 229.996C510.088 229.996 510.074 230.195 510.2 230.195C517.288 230.472 524.404 230.41 531.506 230.41C538.607 230.41 545.779 230.41 552.909 230.103C556.935 229.965 560.948 229.842 564.974 229.627C565.002 229.619 565.028 229.6 565.046 229.575C565.065 229.55 565.076 229.519 565.077 229.487C565.079 229.454 565.071 229.422 565.055 229.395C565.039 229.368 565.015 229.347 564.988 229.335Z" fill="#263238"></path> <path d="M494.682 155.392C494.193 158.464 481.988 179.215 469.225 179.4C465.031 179.4 463.814 154.532 463.814 154.532L463.339 152.719L456.699 127.36L483.191 106.148L487.035 103.322C487.035 103.322 488.433 110.403 490.083 119.25C490.167 119.649 490.251 120.064 490.32 120.509C490.39 120.955 490.544 121.477 490.614 121.938C490.88 123.259 491.145 124.611 491.383 125.947C491.565 126.976 491.746 127.974 491.914 129.019C492.082 130.063 492.25 131.154 492.431 132.245C493.665 139.894 494.417 147.629 494.682 155.392Z" fill="#EB9481"></path> <path d="M490.083 119.189C488.106 126.575 484.691 133.4 480.072 139.19C475.454 144.981 469.744 149.597 463.339 152.719L456.699 127.36L483.191 106.148L487.035 103.322C487.035 103.322 488.433 110.341 490.083 119.189Z" fill="#263238"></path> <path d="M427.243 76.457C415.318 121.001 438.245 133.857 446.982 136.668C454.923 139.218 482.226 146.821 498.289 103.89C514.352 60.9587 499.268 40.791 481.401 33.8944C463.535 26.9978 439.182 31.9283 427.243 76.457Z" fill="#EB9481"></path> <path d="M435.03 70.6202C435.996 70.7305 436.966 70.7869 437.937 70.7892C438.955 71.0123 440.011 70.8612 440.943 70.3591C441.207 70.1367 441.396 69.825 441.482 69.4724C441.568 69.1197 441.546 68.7457 441.418 68.4084C441.072 67.7855 440.581 67.2743 439.997 66.9264C439.413 66.5785 438.755 66.4062 438.091 66.4269C436.742 66.2516 435.381 66.6349 434.275 67.5021C434.033 67.7166 433.853 68.0034 433.757 68.3278C433.66 68.6523 433.651 69.0005 433.731 69.3303C433.811 69.6602 433.976 69.9575 434.207 70.1864C434.437 70.4153 434.723 70.566 435.03 70.6202Z" fill="#263238"></path> <path d="M462.319 78.9914C461.396 78.5766 460.599 78.039 459.718 77.5322C458.742 77.1519 457.904 76.4353 457.328 75.4893C457.201 75.152 457.178 74.778 457.264 74.4253C457.35 74.0726 457.54 73.7609 457.803 73.5386C458.386 73.1876 459.044 73.0152 459.708 73.0396C460.372 73.0639 461.018 73.284 461.578 73.6768C462.829 74.2765 463.828 75.3739 464.374 76.7488C464.473 77.063 464.489 77.4014 464.42 77.7251C464.352 78.0489 464.202 78.3449 463.987 78.5791C463.773 78.8134 463.502 78.9763 463.207 79.0492C462.912 79.1222 462.604 79.1021 462.319 78.9914Z" fill="#263238"></path> <path d="M454.811 88.2381C454.811 88.1306 454.993 88.4531 454.951 88.576C454.042 91.5712 453.469 95.1808 455.692 96.9933C455.692 96.9933 455.692 97.2083 455.692 97.1622C452.714 95.703 453.511 90.9261 454.811 88.2381Z" fill="#263238"></path> <path d="M458.125 85.888C462.668 86.9632 460.375 96.8551 456.181 95.8567C451.987 94.8583 454.35 84.9818 458.125 85.888Z" fill="#263238"></path> <path d="M459.774 86.8864C460.431 87.6698 460.976 88.8678 461.899 89.2365C462.822 89.6051 464.038 88.8525 464.975 88.0691C465.073 87.977 465.129 88.0691 465.101 88.2227C464.695 90.1274 463.577 91.8784 461.662 91.648C459.746 91.4176 459.103 89.4208 459.103 87.3933C459.103 87.0246 459.509 86.5792 459.774 86.8864Z" fill="#263238"></path> <path d="M438.497 82.9389C438.497 82.816 438.245 83.0311 438.217 83.154C437.616 86.226 436.456 89.682 433.702 90.0199C433.618 90.0199 433.59 90.1735 433.702 90.1888C436.889 90.496 438.385 85.9802 438.497 82.9389Z" fill="#263238"></path> <path d="M436.721 79.0682C432.304 77.5322 429.731 87.2858 433.827 88.745C437.923 90.2042 440.37 80.3891 436.721 79.0682Z" fill="#263238"></path> <path d="M434.68 79.1143C433.841 79.4215 432.905 80.1434 432.038 79.9283C431.171 79.7133 430.64 78.3923 430.248 77.1943C430.248 77.0714 430.109 77.1943 430.081 77.1943C429.536 79.0528 429.591 81.1879 431.143 82.0634C432.695 82.9389 434.065 81.6026 434.96 79.8669C435.128 79.6058 435.03 78.9914 434.68 79.1143Z" fill="#263238"></path> <path d="M448.688 114.135C447.877 114.703 447.01 115.548 445.976 115.41C444.928 115.154 443.942 114.657 443.082 113.951C443.065 113.941 443.046 113.937 443.027 113.939C443.009 113.941 442.991 113.949 442.976 113.962C442.961 113.975 442.95 113.993 442.944 114.012C442.938 114.032 442.937 114.053 442.942 114.074C443.226 114.777 443.68 115.383 444.254 115.824C444.828 116.265 445.501 116.526 446.2 116.577C446.816 116.553 447.412 116.326 447.91 115.927C448.409 115.527 448.787 114.973 448.996 114.335C449.01 114.166 448.758 114.058 448.688 114.135Z" fill="#263238"></path> <path d="M439.405 98.6983C439.405 98.6983 437.728 103.091 437.211 105.242C437.211 105.441 443.907 109.143 448.311 104.765C448.349 104.729 448.373 104.679 448.381 104.624C448.388 104.57 448.377 104.514 448.35 104.467C448.323 104.421 448.281 104.386 448.233 104.371C448.185 104.355 448.133 104.359 448.087 104.381C445.138 105.532 441.929 105.596 438.944 104.566C438.944 103.936 442.048 97.1469 441.74 97.0394C440.185 96.7438 438.6 96.6766 437.029 96.8397C440.286 87.6237 444.858 78.9607 447.975 69.6986C447.993 69.632 447.989 69.5609 447.965 69.4968C447.941 69.4327 447.898 69.3794 447.843 69.3456C447.788 69.3118 447.724 69.2994 447.662 69.3105C447.599 69.3217 447.542 69.3556 447.5 69.4068C442.117 78.0545 438.161 88.6221 434.568 98.0992C434.107 99.2666 438.539 98.8365 439.405 98.6983Z" fill="#263238"></path> <path d="M439.461 105.303C440.032 107.167 441.022 108.842 442.341 110.172C443.09 110.86 444.011 111.283 444.983 111.386C447.108 111.57 447.779 109.619 447.947 107.807C448.054 106.843 448.054 105.868 447.947 104.904C445.23 106.031 442.256 106.171 439.461 105.303Z" fill="#263238"></path> <path d="M442.341 110.172C443.09 110.86 444.011 111.283 444.983 111.386C447.108 111.57 447.779 109.619 447.947 107.807C445.78 107.238 443.166 108.006 442.341 110.172Z" fill="#FF99BA"></path> <path d="M496.29 109.512C493.846 107.56 491.905 104.944 490.658 101.92C489.411 98.8963 488.899 95.5685 489.174 92.2624C482.446 87.3314 477.036 80.5181 473.503 72.5248C473.628 73.5232 474.537 80.7424 475.11 84.3981C449.555 73.7844 444.997 49.961 444.997 49.961C434.904 57.641 432.206 63.3549 430.472 66.1044C430.472 66.1044 433.184 48.256 443.46 37.9648C456.042 25.3543 469.504 30.8532 469.504 30.8532C476.315 30.396 483.112 31.9653 489.179 35.3956C495.246 38.8259 500.359 43.9903 503.979 50.345C517.805 74.2759 496.29 109.512 496.29 109.512Z" fill="#263238"></path> <path d="M455.748 75.6429C459.577 79.0304 463.847 81.7692 468.414 83.7684C468.414 83.7684 468.414 83.7684 468.414 83.7684C461.345 80.0842 455.355 74.3008 451.121 67.0721C449.318 63.9913 447.876 60.673 446.829 57.1956C445.557 53.4418 444.977 49.4475 445.123 45.4452C445.123 45.3841 445.101 45.3255 445.062 45.2823C445.022 45.2391 444.969 45.2148 444.913 45.2148C444.858 45.2148 444.804 45.2391 444.765 45.2823C444.726 45.3255 444.704 45.3841 444.704 45.4452C444.181 49.3848 444.261 53.3926 444.941 57.3031C445.773 61.1437 447.232 64.7867 449.247 68.0551C451.068 70.9389 453.252 73.5246 455.734 75.7351" fill="#263238"></path> <path d="M457.006 104.474C459.299 104.868 461.646 104.547 463.782 103.548C465.917 102.55 467.754 100.912 469.084 98.8232C470.415 96.7339 471.185 94.2764 471.307 91.7301C471.429 89.1839 470.898 86.6511 469.775 84.4198C468.652 82.1885 466.982 80.3482 464.954 79.1083C462.926 77.8683 460.622 77.2785 458.304 77.4059C455.987 77.5332 453.748 78.3727 451.843 79.8287C449.938 81.2848 448.443 83.2989 447.528 85.6422C446.239 88.9652 446.2 92.7139 447.421 96.0677C448.642 99.4215 451.023 102.107 454.042 103.537C454.991 103.985 455.986 104.299 457.006 104.474ZM460.599 79.3447C462.813 79.7259 464.862 80.8574 466.462 82.581C468.061 84.3046 469.131 86.5342 469.521 88.9583C469.911 91.3823 469.602 93.8797 468.637 96.1013C467.672 98.3229 466.099 100.158 464.139 101.349C462.178 102.541 459.928 103.03 457.702 102.748C455.477 102.466 453.387 101.427 451.725 99.7762C450.063 98.1254 448.912 95.9454 448.432 93.5407C447.953 91.1361 448.17 88.627 449.052 86.3642C449.994 83.952 451.641 81.953 453.731 80.6821C455.822 79.4113 458.238 78.9407 460.599 79.3447Z" fill="white"></path> <path d="M429.633 95.9028C434.317 96.7169 439.336 92.1703 441.069 85.3197C441.952 82.0619 441.889 78.5827 440.887 75.3664C440.532 73.9563 439.851 72.671 438.91 71.6351C437.97 70.5992 436.801 69.8478 435.519 69.4538C434.236 69.0597 432.883 69.0364 431.589 69.3861C430.296 69.7358 429.107 70.4466 428.138 71.4497C425.764 73.6269 424.068 76.5642 423.286 79.8516C421.441 87.0861 423.93 94.1978 428.878 95.7184L429.633 95.9028ZM434.457 71.0657C434.664 71.1022 434.87 71.1535 435.072 71.2192C436.066 71.5922 436.965 72.22 437.694 73.0508C438.423 73.8815 438.962 74.8912 439.266 75.9962C440.141 78.8538 440.19 81.9389 439.405 84.8282C437.812 91.0951 433.254 95.1962 429.214 93.952C425.174 92.7079 423.217 86.61 424.81 80.3431C425.497 77.4238 426.998 74.8137 429.102 72.8781C429.829 72.1809 430.682 71.6594 431.604 71.3471C432.527 71.0349 433.498 70.939 434.457 71.0657Z" fill="white"></path> <path d="M447.542 87.2858L448.94 86.2567C447.542 84.0295 443.935 80.4967 440.146 83.0311L441.013 84.5671C444.368 82.3091 447.36 87.0861 447.542 87.2858Z" fill="white"></path> <path d="M499.911 107.008L501.547 106.639C501.379 105.81 499.911 98.4679 496.5 96.7322C493.312 95.1194 471.336 90.7572 470.413 90.5882L470.119 92.37C476.424 93.6141 493.354 97.1469 495.801 98.4064C498.247 99.6659 499.533 104.996 499.911 107.008Z" fill="white"></path> <path d="M490.698 102.062C490.698 102.062 502.343 89.8816 507.558 94.72C512.772 99.5584 502.19 118.636 494.78 119.926C493.846 120.162 492.878 120.189 491.933 120.006C490.989 119.823 490.088 119.433 489.283 118.86C488.479 118.287 487.787 117.542 487.25 116.67C486.712 115.798 486.34 114.815 486.154 113.782L490.698 102.062Z" fill="#EB9481"></path> <path d="M504.44 100.111C504.458 100.119 504.474 100.133 504.485 100.151C504.496 100.169 504.502 100.19 504.502 100.211C504.502 100.233 504.496 100.254 504.485 100.272C504.474 100.289 504.458 100.303 504.44 100.311C499.212 101.386 495.773 105.749 493.047 110.449C494.85 108.805 497.003 108.16 499.044 110.572C499.156 110.694 499.044 110.894 498.862 110.833C498.068 110.348 497.158 110.144 496.255 110.249C495.352 110.353 494.5 110.761 493.815 111.416C492.689 112.536 491.673 113.782 490.782 115.133C490.46 115.548 489.733 115.133 489.999 114.611C490.002 114.575 490.002 114.54 489.999 114.504C491.187 107.715 497.688 99.3127 504.44 100.111Z" fill="#263238"></path> <path d="M499.925 158.664C498.247 161.014 496.528 163.272 494.71 165.53C492.893 167.788 491.075 169.938 489.118 171.981C485.218 176.036 481.038 179.953 476.145 182.211C473.781 183.423 471.161 183.901 468.568 183.593C467.959 183.559 467.362 183.393 466.812 183.103C466.262 182.812 465.771 182.405 465.366 181.903C464.552 180.814 463.926 179.57 463.521 178.232C462.709 175.43 462.239 172.522 462.123 169.585C461.864 166.622 461.864 163.639 462.123 160.676C461.579 163.622 461.336 166.625 461.396 169.631C461.394 172.663 461.77 175.681 462.514 178.601C462.887 180.131 463.555 181.556 464.472 182.779C464.961 183.426 465.571 183.949 466.261 184.315C466.937 184.644 467.653 184.866 468.386 184.975C471.219 185.376 474.098 184.908 476.704 183.624C479.235 182.367 481.615 180.773 483.792 178.877C485.966 177.007 488.004 174.952 489.887 172.733C493.654 168.425 497.016 163.711 499.925 158.664Z" fill="#263238"></path> <path d="M477.264 223.142C478.135 224.558 478.557 226.171 479.064 227.752C479.426 228.881 480.431 229.805 481.07 230.734C481.799 231.792 482.363 232.277 483.499 232.774C484.505 233.214 485.294 233.604 486.166 234.367C486.866 234.979 486.644 232.991 486.632 232.532C486.59 230.894 483.666 229.66 482.664 228.718C481.41 227.54 479.646 226.462 478.652 225.001C478.487 224.758 477.59 222.798 478.164 222.514C479.257 221.973 481.249 223.826 481.883 224.735C483.305 226.774 483.643 230.491 483.987 233.063C484.12 234.061 484.292 235.467 483.976 236.443C483.738 237.179 481.795 237.652 481.222 238.012C479.815 238.896 478.777 240.092 477.416 241.005C475.813 242.08 474.749 243.846 473.252 245.061C472.582 245.605 472.775 244.606 472.775 244.168C472.775 243.295 472.495 242.316 472.927 241.585C475.423 237.361 481.815 238.582 482.816 232.846C482.961 232.011 483.1 231.198 483.315 230.384C483.401 230.056 483.475 229.726 483.586 229.406C483.908 228.473 482.141 230.594 481.439 231.217C480.598 231.962 479.652 232.712 478.956 233.643C478.786 233.87 478.826 234.085 478.826 233.462C478.826 231.036 478.826 228.609 478.826 226.183" stroke="white" stroke-width="3" stroke-linecap="round"></path> <path d="M459.504 220.317C459.852 222.384 460.332 224.262 460.49 226.376C460.526 226.849 460.775 227.262 460.827 227.752C461.11 230.43 461.39 233.307 461.39 235.996C461.39 236.314 461.075 243.063 460.675 243.033C460.409 243.013 460.676 235.765 460.664 234.982C460.626 232.621 460.48 230.273 460.48 227.909C460.48 226.77 460.378 225.574 460.523 224.445C460.686 223.174 461.168 222.039 461.304 220.752C461.313 220.664 461.512 218.831 461.835 219.46C462.544 220.843 462.317 223.4 462.518 224.976C462.956 228.412 463.407 231.737 463.407 235.212C463.407 236.064 463.39 236.919 463.407 237.771C463.424 238.609 462.693 237.114 462.193 237.179C461.382 237.285 461.651 242.149 461.651 242.768C461.651 243.474 461.525 244.385 461.727 245.073C461.875 245.58 462.372 245.619 462.637 246.002C462.839 246.294 463.585 245.434 463.667 245.375C464.505 244.774 464.683 245.17 465.467 245.471C466.514 245.874 466.303 245.762 465.814 244.482C465.727 244.252 464.79 241.357 464.578 241.44C464.39 241.514 463.979 241.799 463.819 241.488C463.704 241.264 463.554 241.035 463.429 241.488C463.406 241.571 463.692 240.224 463.646 239.702C463.395 236.875 462.555 234.496 461.152 232.146C460.659 231.32 459.309 229.756 459.309 228.682C459.309 227.994 459.127 227.322 458.962 226.666C458.624 225.329 457.909 224.146 457.747 222.707" stroke="white" stroke-width="3" stroke-linecap="round"></path> <path d="M449.851 220.534C449.949 220.769 450.016 221.023 450.062 221.278C450.092 221.445 450.057 221.62 450.088 221.783C450.121 221.96 450.174 222.125 450.182 222.307C450.187 222.434 450.161 222.585 450.191 222.708C450.233 222.877 450.27 223.101 450.282 223.275C450.311 223.705 450.416 224.129 450.416 224.562C450.416 224.807 450.483 225.013 450.483 225.248C450.483 225.528 450.486 225.759 450.557 226.025C450.567 226.065 450.59 226.199 450.623 226.223C450.781 226.332 451.113 226.125 451.207 225.997C451.469 225.638 451.474 225.06 451.524 224.628C451.586 224.103 451.68 223.578 451.727 223.051C451.812 222.108 451.746 221.12 451.746 220.172C451.746 220.068 451.723 219.942 451.781 219.851C451.831 219.772 451.962 219.796 452.03 219.794C452.497 219.779 452.958 219.738 453.422 219.679C453.866 219.622 454.367 219.591 454.811 219.654C455.373 219.733 455.595 220.796 455.645 221.29C455.722 222.044 454.935 222.546 454.349 222.663C454.119 222.709 453.877 222.754 453.725 222.979C453.68 223.046 453.618 223.15 453.609 223.236C453.606 223.258 453.574 223.534 453.555 223.51C453.503 223.444 453.54 222.95 453.54 222.924C453.54 222.562 453.547 222.198 453.522 221.837C453.511 221.673 453.521 221.408 453.441 221.274" stroke="white" stroke-width="3" stroke-linecap="round"></path> <path d="M446.993 222.235C447.09 222.262 447.027 223.023 447.027 223.107C447.027 223.339 447.06 223.565 447.06 223.797C447.06 224.009 447.117 224.203 447.152 224.41C447.188 224.617 447.16 224.852 447.16 225.063C447.16 225.246 447.193 225.42 447.193 225.602C447.193 225.824 447.248 226.028 447.257 226.241C447.281 226.771 447.094 227.122 446.751 227.503C446.686 227.576 446.626 227.657 446.561 227.731C446.535 227.761 446.513 227.856 446.487 227.826C446.395 227.715 446.394 227.34 446.384 227.213C446.306 226.2 446.362 225.161 446.362 224.145C446.362 223.473 446.367 222.8 446.362 222.128C446.361 222.043 446.365 221.949 446.345 221.865C446.336 221.826 446.305 221.935 446.294 221.974C446.162 222.409 446.078 222.723 445.965 223.203C445.616 224.69 445.365 226.193 445.202 227.719C445.048 229.172 445.007 230.634 444.922 232.093C444.916 232.192 444.896 232.826 444.863 232.165C444.774 230.431 444.804 228.688 444.853 226.954C444.874 226.227 444.933 225.492 444.933 224.763C444.933 224.524 444.821 224.545 444.626 224.537C444.237 224.523 443.833 224.515 443.447 224.576C442.656 224.701 442.52 225.356 442.352 226.138C442.106 227.277 442.008 228.4 442.008 229.565C442.008 230.014 442.022 230.467 442.001 230.917C442 230.931 441.965 231.155 441.981 231.18C442.021 231.247 442.027 231.027 442.049 230.95C442.184 230.468 442.282 230.123 442.411 229.612C442.491 229.294 442.573 228.977 442.64 228.656C442.673 228.496 442.854 227.616 442.787 227.341C442.628 226.679 441.131 227.881 441 227.99C440.403 228.487 439.914 229.1 439.671 229.893C439.555 230.271 439.363 231.326 440.007 231.299C440.809 231.266 441.51 230.334 441.934 229.7C442.365 229.056 442.829 228.093 443.127 227.349C443.183 227.21 443.465 226.43 443.079 227.074C442.09 228.724 441.261 230.553 440.515 232.347C440.179 233.153 439.443 234.853 439.386 235.905C439.339 236.774 439.753 236.732 440.358 236.507C442.06 235.876 443.599 234.259 444.726 232.775C445.48 231.783 446.136 230.606 446.583 229.4C446.693 229.105 446.865 228.442 446.823 228.04C446.8 227.812 446.486 227.598 446.329 227.489" stroke="white" stroke-width="3" stroke-linecap="round"></path> <path d="M442.839 232.446C442.945 232.283 443.039 232.114 443.131 231.941C443.177 231.853 443.186 231.674 443.277 231.684C443.373 231.694 443.222 231.891 443.179 231.988C442.939 232.522 442.601 232.989 442.348 233.515C442.248 233.724 442.2 233.88 442.056 234.058C441.874 234.283 441.731 234.447 441.536 234.67C441.394 234.832 441.284 235.08 441.085 235.128C440.994 235.151 441.069 234.432 441.124 234.353C441.173 234.283 441.272 234.441 441.316 234.516C441.458 234.758 441.603 235.099 441.715 235.342C442.233 236.472 442.79 237.573 443.406 238.641C443.722 239.188 444.082 239.709 444.386 240.265C444.713 240.861 444.92 241.526 445.129 242.18C445.251 242.565 445.361 242.955 445.513 243.327C445.54 243.393 445.647 243.773 445.738 243.775C445.862 243.778 445.986 243.28 446.004 243.216C446.222 242.414 446.29 241.546 446.258 240.713C446.226 239.834 446.085 238.928 445.701 238.152C445.595 237.937 445.482 237.723 445.393 237.498C445.288 237.236 445.263 236.972 445.195 236.701C445.149 236.516 445.081 236.384 445.071 236.185C445.054 235.854 445.066 235.519 445.066 235.188C445.066 234.777 445.037 234.446 445.197 234.076C445.285 233.873 445.31 233.862 445.465 233.762C445.739 233.584 445.828 234.102 445.874 234.263C445.943 234.503 446.04 234.727 446.118 234.962C446.127 234.988 446.096 235.152 446.096 235.167C446.092 235.555 446.07 235.96 446.103 236.347C446.166 237.069 446.327 237.797 446.487 238.499C446.538 238.722 446.531 238.621 446.523 238.425C446.495 237.747 446.449 237.071 446.434 236.392C446.418 235.674 446.381 234.944 446.521 234.243C446.535 234.172 446.522 233.664 446.606 233.667C446.713 233.671 446.77 233.953 446.807 234.037C446.983 234.443 447.171 234.822 447.285 235.258C447.444 235.868 447.558 236.479 447.558 237.116C447.558 237.489 447.505 237.915 447.625 238.263C447.692 238.456 447.691 238.64 447.691 238.842C447.691 238.915 447.793 238.92 447.837 238.945C448.03 239.056 447.925 239.708 447.902 239.899C447.845 240.376 447.794 240.842 447.791 241.325C447.787 242.003 447.791 242.682 447.791 243.36" stroke="white" stroke-width="3" stroke-linecap="round"></path> </svg> 