<?xml version="1.0" encoding="utf-8"?>
<!-- Generator: Adobe Illustrator 23.0.2, SVG Export Plug-In . SVG Version: 6.00 Build 0)  -->
<svg version="1.1" id="Слой_1" xmlns="http://www.w3.org/2000/svg" xmlns:xlink="http://www.w3.org/1999/xlink" x="0px" y="0px"
	 viewBox="0 0 500 500" style="enable-background:new 0 0 500 500;" xml:space="preserve">
<style type="text/css">
	.st0{fill-rule:evenodd;clip-rule:evenodd;fill:#004B96;}
	.st1{fill-rule:evenodd;clip-rule:evenodd;fill:#FFFFFF;}
</style>
<g>
	<path class="st0" d="M243.8,483C373.9,483,480,376.9,480,246.8S373.9,10.6,243.8,10.6S7.6,116.7,7.6,246.8S113.7,483,243.8,483
		L243.8,483z"/>
	<path class="st1" d="M119.7,245.6c0.9-0.3,25.9-1.1,29.3-1.3c35.5-1.9,67.6-5.4,83.2-39.6c6.7-14.6,8.3-35.7,9.1-52.2
		c0.5-9.8,1.1-20,1.1-29.8h-23.7c-0.8,0-1.3,0-1.7,0l-3,0c-5.7,0.5-8.4-0.1-13.6,0.4l-6.1,0.3c-2.5,0-4.3,0.3-6.7,0.4
		c-9.3,0.5-24.2,2.9-32.6,6.2l-4.1,1.8c-4.5,2-7.5,3.8-11.2,6.9c-2.4,1.9-5.7,5.9-7.2,8.5l-2.8,5.1c-1.4,2.7-2.4,5.5-3.3,8.4
		c-0.4,1-0.7,2.1-0.9,3.1c-2,7.5-2.7,12.3-3.7,20.3c-1,8.1-1.5,17.8-1.6,26c0,1.3-0.2,2.3-0.2,3.8c0,5.4-0.2,10.2-0.2,15.6
		C119.7,235,119.7,240.3,119.7,245.6L119.7,245.6z"/>
	<path class="st1" d="M367.8,245.4l-0.3-35.3c0-0.7-0.1-1.7-0.1-3.2c0-1.3,0-2.8-0.1-3.5c-0.2-2.4-0.1-7.7-0.6-10.6
		c-0.2-1.1-0.2-2.8-0.3-3.8c-0.2-4-1.7-14-2.4-17.5c-2.1-10.9-6.5-23.6-14.6-31.4c-0.5-0.4-0.7-0.5-1.1-0.9
		c-5.8-5.2-12.7-8.3-21.1-10.8c-10.9-3.2-16.2-3.1-26.5-4.4c-1.1-0.1-2.5-0.2-3.1-0.2l-10-0.5c-4.8-0.4-7.5,0-13.5-0.3
		c-1.5-0.1-3.1-0.1-4.8-0.2h-24.1c0.3,4.8,0.2,9.8,0.5,14.7c1,21.4,1.2,47.7,9.7,67c6,13.9,16.9,24.8,30.7,30.8
		c14.8,6.4,35.6,8.5,52.3,9C348,244.6,358,245.1,367.8,245.4L367.8,245.4z"/>
	<path class="st1" d="M242.6,370.8c-0.4-1.3-1-25.5-1.2-29.4c-1.7-26.7-3.1-52.2-21.5-70.7c-18.3-18.3-44-19.8-70.5-21.5
		c-3.9-0.2-28.4-0.9-29.6-1.2c0,5.2,0,10.4,0,15.6c0,5.3,0.2,10,0.2,15.4c0,2.7,0.2,4.7,0.2,7.5l0.4,7.5c0.3,5.1,0.5,9.7,1.1,14.5
		c0.6,4.6,1.1,9.1,2,13.6c3.3,16.5,9.3,30.6,24.5,38.2c16.9,8.4,36.4,9.1,55,10.1l5.1,0.1c0.5,0,0.8,0,1.3,0c1.3,0.1,2.7,0,4,0
		L242.6,370.8z"/>
	<path class="st1" d="M244.9,370.8l19.1-0.1c1,0,1.9,0,2.9,0l27.6-0.9c1-0.1,2.6-0.1,3.5-0.2c1.4-0.1,2.5-0.1,3.8-0.3
		c11.6-0.9,24.4-3.1,35.1-7.9c4.4-2,8.6-4.5,12-7.9l1.9-1.9c4.3-4.3,8-12.1,9.9-17.7c3.2-9.4,4-16.7,5.2-26.3
		c0.6-4.3,0.8-10.2,1.1-14.1l0.7-45.6c-4.9,0-10.1,0.3-15.1,0.5c-13.2,0.5-30.2,1.2-42.7,3.2c-19.3,3-32.1,8.7-42.5,19.1
		c-17.8,17.9-20,44.5-21.4,70.8C246.1,345,245.4,369.9,244.9,370.8L244.9,370.8z"/>
</g>
</svg>
