<?xml version="1.0" encoding="UTF-8"?> <svg xmlns="http://www.w3.org/2000/svg" width="32" height="28" viewBox="0 0 32 28" fill="none"> <rect width="32" height="28" rx="5" fill="black"></rect> <circle cx="16.5" cy="13.5" r="7.5" fill="white"></circle> <path d="M17.3153 14.3154C16.7732 14.8748 16.7337 15.5721 16.6869 17.1C18.1113 17.1 19.0945 17.0951 19.6022 16.6022C20.095 16.0946 20.1 15.0645 20.1 13.687C18.5721 13.7363 17.8747 13.7732 17.3153 14.3154ZM13.2 13.687C13.2 15.0645 13.2049 16.0946 13.6977 16.6022C14.2054 17.0951 15.1886 17.1 16.613 17.1C16.5637 15.5721 16.5267 14.8748 15.9846 14.3154C15.4252 13.7732 14.7278 13.7338 13.2 13.687ZM16.613 10.2C15.1911 10.2 14.2054 10.2049 13.6977 10.6978C13.2049 11.2054 13.2 12.2355 13.2 13.613C14.7278 13.5638 15.4252 13.5268 15.9846 12.9846C16.5267 12.4253 16.5662 11.7279 16.613 10.2ZM17.3153 12.9846C16.7732 12.4253 16.7337 11.7279 16.6869 10.2C18.1113 10.2 19.0945 10.2049 19.6022 10.6978C20.095 11.2054 20.1 12.2355 20.1 13.613C18.5721 13.5638 17.8747 13.5268 17.3153 12.9846Z" fill="black"></path> <path d="M20.1 13.687V13.613C18.5721 13.5638 17.8747 13.5268 17.3153 12.9846C16.7732 12.4253 16.7337 11.7279 16.6869 10.2H16.613C16.5637 11.7279 16.5267 12.4253 15.9846 12.9846C15.4252 13.5268 14.7278 13.5662 13.2 13.613V13.687C14.7278 13.7363 15.4252 13.7732 15.9846 14.3154C16.5267 14.8748 16.5662 15.5721 16.613 17.1H16.6869C16.7362 15.5721 16.7732 14.8748 17.3153 14.3154C17.8747 13.7732 18.5721 13.7338 20.1 13.687Z" fill="white"></path> </svg> 