<?xml version="1.0" encoding="UTF-8"?> <svg xmlns="http://www.w3.org/2000/svg" width="330" height="330" viewBox="0 0 330 330" fill="none"> <path fill-rule="evenodd" clip-rule="evenodd" d="M261.066 31.2733L31.2715 261.064C34.6804 265.732 38.3081 270.248 42.2352 274.616L274.617 42.2338C270.249 38.3099 265.73 34.6789 261.066 31.2733M68.0026 297.795L297.794 68.0044C294.391 63.3401 290.76 58.8207 286.836 54.4526L54.4508 286.838C58.8222 290.762 63.3383 294.39 68.0026 297.795M99.2198 315.606L315.604 99.2184C313.199 93.7012 310.46 88.2225 307.421 82.8887L82.8869 307.423C88.2207 310.459 93.6994 313.198 99.2198 315.606M137.024 326.753L326.752 137.025C325.606 130.323 324.086 123.692 322.123 117.138L117.14 322.121C123.694 324.088 130.322 325.604 137.024 326.753M185.012 327.786L327.788 185.01C328.825 176.496 329.234 167.869 329.008 159.278L159.277 329.01C167.868 329.232 176.495 328.826 185.012 327.786M280.875 280.877C299.574 262.175 312.829 240.109 320.642 216.595L216.596 320.644C240.107 312.828 262.176 299.576 280.875 280.877M229.852 13.4625L13.4612 229.85C15.8689 235.367 18.6115 240.849 21.6469 246.179L246.181 21.645C240.848 18.6096 235.369 15.8702 229.852 13.4625M192.049 2.31883L2.3174 192.047C3.46656 198.749 4.98268 205.376 6.94624 211.93L211.929 6.94445C205.375 4.98411 198.75 3.46477 192.049 2.31883M144.057 1.28211L1.28071 144.058C0.244207 152.576 -0.16138 161.203 0.0575082 169.794L169.793 0.0589083C161.204 -0.163199 152.574 0.242388 144.057 1.28211M112.473 8.42824L8.42693 112.474C16.2393 88.9598 29.4982 66.894 48.1938 48.1951C66.8927 29.4962 88.9618 16.2406 112.473 8.42824" fill="#5881FA"></path> </svg> 