<?xml version="1.0" encoding="UTF-8"?> <svg xmlns="http://www.w3.org/2000/svg" width="288" height="503" viewBox="0 0 288 503" fill="none"> <path d="M0 77.8121C0 77.2099 0.565945 76.7217 1.26407 76.7217H7.20652C7.90465 76.7217 8.47059 77.2099 8.47059 77.8121V95.7251C8.47059 96.3274 7.90465 96.8155 7.20652 96.8155H1.26407C0.565944 96.8155 0 96.3273 0 95.7251V77.8121Z" fill="#1877F2"></path> <path d="M0 114.346C0 113.744 0.565945 113.256 1.26407 113.256H7.20652C7.90465 113.256 8.47059 113.744 8.47059 114.346V150.527C8.47059 151.129 7.90465 151.617 7.20652 151.617H1.26407C0.565944 151.617 0 151.129 0 150.527V114.346Z" fill="#1877F2"></path> <path d="M0 163.668C0 163.065 0.565945 162.577 1.26407 162.577H7.20652C7.90465 162.577 8.47059 163.065 8.47059 163.668V199.848C8.47059 200.45 7.90465 200.938 7.20652 200.938H1.26407C0.565944 200.938 0 200.45 0 199.848V163.668Z" fill="#1877F2"></path> <path d="M279.529 128.96C279.529 128.358 280.095 127.87 280.793 127.87H286.736C287.434 127.87 288 128.358 288 128.96V185.234C288 185.836 287.434 186.325 286.736 186.325H280.793C280.095 186.325 279.529 185.836 279.529 185.234V128.96Z" fill="#1877F2"></path> <path fill-rule="evenodd" clip-rule="evenodd" d="M4 19.6273C4 8.78746 14.187 0 26.7533 0H260.776C273.343 0 283.53 8.78746 283.53 19.6273V482.719C283.53 493.559 273.343 502.346 260.776 502.346H26.7533C14.187 502.346 4 493.559 4 482.719V19.6273ZM14.5883 24.3992C14.5883 15.9682 22.5116 9.1335 32.2854 9.1335H73.8826V19.7678C73.8826 23.9834 77.8442 27.4007 82.7311 27.4007H204.799C209.686 27.4007 213.647 23.9834 213.647 19.7678V9.1335H255.244C265.018 9.1335 272.941 15.9682 272.941 24.3992V477.947C272.941 486.378 265.018 493.213 255.244 493.213H32.2854C22.5116 493.213 14.5883 486.378 14.5883 477.947V24.3992Z" fill="#0088CC"></path> <rect x="123" y="12.7871" width="42.353" height="3.65343" rx="1.82671" fill="#5E5E5E"></rect> <ellipse cx="144.235" cy="14.6134" rx="4.2353" ry="3.65343" fill="#36566B"></ellipse> </svg> 