<?xml version="1.0" encoding="UTF-8"?> <svg xmlns="http://www.w3.org/2000/svg" width="1840" height="339" viewBox="0 0 1840 339" fill="none"> <path d="M335.416 175.99C335.885 218.157 318.794 258.792 287.902 288.955C257.011 319.119 214.85 336.34 170.694 336.831C126.538 337.322 84.0047 321.042 52.4503 291.573C20.8959 262.104 2.9054 221.859 2.43656 179.692L35.7345 179.322C36.1096 213.056 50.5019 245.251 75.7455 268.827C100.989 292.402 135.016 305.426 170.34 305.033C205.665 304.641 239.394 290.863 264.107 266.732C288.82 242.602 302.493 210.094 302.118 176.36L335.416 175.99Z" fill="#B39BC8"></path> <path d="M937.459 162.297C937.691 183.176 933.589 203.899 925.386 223.282C917.183 242.665 905.041 260.329 889.652 275.266C874.264 290.202 855.93 302.119 835.698 310.335C815.466 318.551 793.732 322.905 771.737 323.15C749.742 323.394 727.916 319.524 707.507 311.76C687.097 303.996 668.503 292.49 652.786 277.899C637.069 263.309 624.537 245.919 615.905 226.723C607.274 207.527 602.712 186.901 602.48 166.022L635.977 165.649C636.163 182.352 639.813 198.853 646.718 214.21C653.623 229.567 663.649 243.479 676.223 255.151C688.796 266.824 703.672 276.029 719.999 282.24C736.327 288.451 753.787 291.547 771.383 291.352C788.979 291.156 806.367 287.672 822.552 281.1C838.738 274.527 853.405 264.994 865.716 253.044C878.027 241.095 887.74 226.964 894.303 211.457C900.865 195.951 904.147 179.373 903.961 162.67L937.459 162.297Z" fill="#E64398"></path> <path d="M1537.5 162.626C1537.73 183.505 1533.66 204.227 1525.5 223.61C1517.35 242.992 1505.28 260.656 1489.99 275.591C1474.69 290.527 1456.47 302.442 1436.36 310.656C1416.25 318.871 1394.64 323.224 1372.78 323.467C1350.91 323.71 1329.22 319.839 1308.93 312.073C1288.64 304.308 1270.16 292.801 1254.53 278.209C1238.91 263.617 1226.45 246.227 1217.87 227.03C1209.29 207.834 1204.75 187.207 1204.52 166.328L1237.82 165.958C1238 182.661 1241.63 199.162 1248.5 214.519C1255.36 229.877 1265.33 243.789 1277.83 255.463C1290.33 267.136 1305.12 276.342 1321.35 282.554C1337.58 288.766 1354.93 291.864 1372.42 291.669C1389.92 291.475 1407.2 287.992 1423.29 281.42C1439.38 274.849 1453.95 265.317 1466.19 253.368C1478.43 241.42 1488.08 227.289 1494.6 211.783C1501.13 196.277 1504.39 179.699 1504.2 162.996L1537.5 162.626Z" fill="#63A8C7"></path> <path d="M302.463 176.998C302.203 156.11 306.255 135.371 314.388 115.965C322.521 96.5597 334.576 78.8675 349.863 63.8989C365.151 48.9303 383.372 36.9783 403.488 28.7255C423.603 20.4726 445.217 16.0805 467.097 15.7998C488.977 15.5191 510.694 19.3554 531.008 27.0896C551.322 34.8238 569.836 46.3045 585.491 60.8762C601.146 75.4478 613.637 92.8251 622.251 112.016C630.864 131.206 635.431 151.835 635.691 172.723L602.368 173.15C602.16 156.44 598.507 139.937 591.616 124.585C584.725 109.232 574.733 95.3303 562.208 83.673C549.684 72.0156 534.873 62.8311 518.622 56.6437C502.371 50.4564 484.997 47.3873 467.493 47.6119C449.989 47.8364 432.697 51.3502 416.605 57.9524C400.513 64.5547 385.936 74.1163 373.706 86.0912C361.476 98.0661 351.832 112.22 345.326 127.744C338.82 143.269 335.578 159.86 335.786 176.57L302.463 176.998Z" fill="#FF99BA"></path> <path d="M903.446 170.598C903.186 149.71 907.238 128.971 915.371 109.565C923.504 90.1598 935.558 72.4676 950.846 57.499C966.134 42.5304 984.355 30.5784 1004.47 22.3256C1024.59 14.0727 1046.2 9.68056 1068.08 9.39987C1089.96 9.11918 1111.68 12.9555 1131.99 20.6897C1152.31 28.4239 1170.82 39.9046 1186.47 54.4763C1202.13 69.0479 1214.62 86.4252 1223.23 105.616C1231.85 124.807 1236.41 145.435 1236.67 166.323L1203.35 166.75C1203.14 150.04 1199.49 133.537 1192.6 118.185C1185.71 102.832 1175.72 88.9304 1163.19 77.2731C1150.67 65.6157 1135.86 56.4312 1119.6 50.2438C1103.35 44.0565 1085.98 40.9874 1068.48 41.212C1050.97 41.4365 1033.68 44.9503 1017.59 51.5525C1001.5 58.1548 986.919 67.7164 974.689 79.6913C962.459 91.6662 952.815 105.82 946.309 121.344C939.802 136.869 936.561 153.46 936.769 170.17L903.446 170.598Z" fill="#85CDEE"></path> <path d="M1504.62 169.005C1504.36 148.117 1508.41 127.378 1516.55 107.973C1524.68 88.567 1536.73 70.8748 1552.02 55.9062C1567.31 40.9376 1585.53 28.9857 1605.65 20.7328C1625.76 12.4799 1647.38 8.08779 1669.26 7.8071C1691.14 7.52641 1712.85 11.3627 1733.17 19.0969C1753.48 26.8311 1771.99 38.3118 1787.65 52.8835C1803.31 67.4551 1815.8 84.8324 1824.41 104.023C1833.02 123.214 1837.59 143.842 1837.85 164.73L1804.53 165.158C1804.32 148.447 1800.67 131.945 1793.77 116.592C1786.88 101.239 1776.89 87.3376 1764.37 75.6803C1751.84 64.023 1737.03 54.8384 1720.78 48.651C1704.53 42.4637 1687.16 39.3947 1669.65 39.6192C1652.15 39.8438 1634.86 43.3575 1618.76 49.9598C1602.67 56.5621 1588.09 66.1236 1575.86 78.0985C1563.63 90.0734 1553.99 104.227 1547.48 119.752C1540.98 135.276 1537.74 151.867 1537.94 168.578L1504.62 169.005Z" fill="#F4CFD6"></path> <circle cx="19.0654" cy="177.009" r="16.5" transform="rotate(-0.637017 19.0654 177.009)" fill="#B39BC8"></circle> </svg> 