<?xml version="1.0" encoding="UTF-8"?> <svg xmlns="http://www.w3.org/2000/svg" width="204" height="204" viewBox="0 0 204 204" fill="none"> <path d="M29.8411 189.758C69.6906 208.747 134.266 208.747 174.115 189.758C213.965 170.768 213.915 140.008 174.115 121.019C134.315 102.029 69.7105 102.034 29.8809 121.019C-9.94869 140.003 -9.95864 170.778 29.8411 189.758Z" fill="#63A8C7"></path> <path d="M158.235 48.6181L160.066 47.2102V43.1805C160.066 39.9915 162.608 36.2852 165.374 34.6882C168.14 33.0912 170.384 34.3847 170.384 37.5787V38.1607C170.966 37.2165 171.759 36.421 172.702 35.8374C174.692 34.6882 176.309 35.6185 176.309 37.917V38.1856L179.971 36.0712C181.279 35.315 182.344 35.927 182.344 37.4394C182.299 38.2626 182.06 39.0636 181.648 39.7775C181.236 40.4915 180.661 41.0982 179.971 41.5487L158.235 54.0955C156.927 54.8517 155.862 54.2398 155.862 52.7274C155.907 51.9042 156.145 51.1032 156.558 50.3893C156.97 49.6753 157.545 49.0686 158.235 48.6181Z" fill="#63A8C7"></path> <path d="M26.9009 158.137C26.6422 158.092 26.3686 158.013 26.0601 157.933C25.0206 157.654 23.996 157.322 22.9906 156.938C20.9852 156.21 19.0938 155.2 17.3738 153.938C16.4306 153.267 15.6235 152.423 14.9958 151.451C14.3684 150.466 14.1456 149.277 14.3739 148.132C14.5003 147.567 14.7858 147.05 15.1966 146.642C15.6073 146.234 16.1263 145.952 16.6923 145.829C17.2246 145.744 17.7768 145.829 18.3091 145.734C18.5817 145.713 18.8402 145.604 19.0469 145.425C19.2536 145.246 19.3977 145.006 19.4583 144.739C19.4605 144.434 19.3778 144.135 19.2196 143.874C18.253 142.103 17.4215 140.262 16.7321 138.367C16.155 136.675 16.1202 134.845 16.6326 133.133C17.0676 131.429 17.9993 129.893 19.3091 128.72C19.9061 128.223 20.7319 127.795 21.4533 128.108C21.6827 128.225 21.8841 128.39 22.0438 128.592C22.2035 128.793 22.3177 129.027 22.3787 129.277C22.49 129.777 22.5467 130.288 22.5478 130.8C22.6189 131.901 22.8295 132.99 23.1746 134.038C23.3291 134.694 23.7052 135.275 24.2393 135.685C25.1646 136.262 26.4382 135.809 27.4233 136.277C28.4083 136.745 28.7466 137.819 28.7914 138.834C28.8362 139.849 28.6322 140.874 28.7466 141.884C28.7666 142.202 28.8677 142.511 29.0401 142.779C29.314 143.073 29.6311 143.323 29.9804 143.521C30.4393 143.9 30.8072 144.378 31.0569 144.919C31.3066 145.459 31.4318 146.049 31.4231 146.645C31.393 147.835 31.166 149.012 30.7515 150.127C30.2948 151.687 29.9621 153.281 29.7565 154.893C29.5944 155.881 29.1758 156.809 28.5426 157.585C28.3549 157.83 28.0984 158.013 27.806 158.111C27.5135 158.21 27.1984 158.219 26.9009 158.137Z" fill="#263238"></path> <path d="M28.5527 157.311C28.5234 157.311 28.4946 157.303 28.4694 157.288C28.4441 157.273 28.4231 157.252 28.4084 157.227C22.6026 147.436 20.7668 140.541 20.2445 136.476C19.6724 132.048 20.4783 129.974 20.5131 129.889C20.5213 129.868 20.5335 129.849 20.549 129.833C20.5646 129.817 20.5832 129.804 20.6037 129.795C20.6243 129.786 20.6464 129.781 20.6689 129.78C20.6913 129.78 20.7136 129.784 20.7345 129.792C20.7554 129.8 20.7745 129.813 20.7907 129.828C20.8069 129.844 20.8199 129.862 20.8289 129.883C20.8379 129.903 20.8427 129.925 20.8432 129.948C20.8437 129.97 20.8397 129.993 20.8315 130.014C20.8315 130.048 20.0256 132.133 20.5877 136.481C21.0852 140.506 22.9459 147.341 28.7019 157.057C28.7136 157.077 28.7212 157.098 28.7245 157.12C28.7278 157.142 28.7267 157.165 28.7211 157.187C28.7155 157.209 28.7057 157.229 28.6922 157.247C28.6786 157.265 28.6616 157.28 28.6422 157.291C28.6143 157.305 28.5836 157.311 28.5527 157.311Z" fill="white"></path> <path d="M25.4482 151.635C18.3738 150.859 16.3739 148.535 16.2893 148.436C16.2577 148.404 16.24 148.361 16.24 148.316C16.24 148.272 16.2577 148.229 16.2893 148.197C16.3047 148.181 16.3232 148.168 16.3437 148.159C16.3642 148.15 16.3864 148.146 16.4087 148.146C16.4311 148.146 16.4532 148.15 16.4737 148.159C16.4943 148.168 16.5128 148.181 16.5281 148.197C16.5281 148.222 18.548 150.515 25.4582 151.277C25.4987 151.283 25.5355 151.304 25.562 151.336C25.5884 151.367 25.603 151.407 25.603 151.448C25.603 151.489 25.5884 151.529 25.562 151.56C25.5355 151.592 25.4987 151.613 25.4582 151.62L25.4482 151.635Z" fill="white"></path> <path d="M23.4533 147.227C23.4156 147.227 23.379 147.215 23.3488 147.192C23.3311 147.178 23.3162 147.161 23.3051 147.142C23.294 147.123 23.2868 147.101 23.284 147.079C23.2812 147.057 23.2829 147.034 23.2889 147.013C23.2949 146.991 23.3051 146.971 23.319 146.953C25.5627 144.003 25.707 139.167 25.7119 139.118C25.7119 139.095 25.7165 139.073 25.7253 139.053C25.7342 139.032 25.7472 139.013 25.7635 138.998C25.7798 138.983 25.7991 138.971 25.8202 138.963C25.8413 138.955 25.8637 138.952 25.8861 138.954C25.9085 138.954 25.9307 138.958 25.9513 138.967C25.9719 138.976 25.9904 138.989 26.0058 139.005C26.0212 139.021 26.0331 139.041 26.0407 139.062C26.0484 139.083 26.0516 139.105 26.0502 139.128C26.0502 139.332 25.901 144.103 23.5926 147.157C23.5764 147.179 23.5554 147.196 23.5312 147.209C23.507 147.221 23.4803 147.227 23.4533 147.227Z" fill="white"></path> <path d="M168.444 127.899C169.13 123.272 169.14 117.626 165.742 109.377C162.344 101.129 163.399 96.8056 167.041 95.6266C170.682 94.4475 178.752 100.711 178.453 111.243C178.16 121.412 171.289 129.81 171.289 129.81L168.444 127.899Z" fill="#263238"></path> <path opacity="0.1" d="M168.444 127.899C169.13 123.272 169.14 117.626 165.742 109.377C162.344 101.129 163.399 96.8056 167.041 95.6266C170.682 94.4475 178.752 100.711 178.453 111.243C178.16 121.412 171.289 129.81 171.289 129.81L168.444 127.899Z" fill="black"></path> <path d="M170.22 129.262C170.198 129.267 170.176 129.267 170.155 129.262C170.134 129.254 170.115 129.242 170.099 129.226C170.082 129.21 170.07 129.191 170.061 129.17C170.053 129.149 170.049 129.126 170.05 129.104C170.05 129.081 170.056 129.059 170.066 129.038C170.1 128.954 173.822 120.263 173.548 112.372C173.24 103.293 168.21 98.2981 168.16 98.2484C168.144 98.2327 168.131 98.214 168.123 98.1934C168.114 98.1728 168.109 98.1507 168.109 98.1283C168.109 98.1058 168.113 98.0836 168.121 98.0628C168.13 98.042 168.142 98.0231 168.158 98.0071C168.173 97.9911 168.192 97.9783 168.213 97.9695C168.233 97.9607 168.255 97.9561 168.278 97.9559C168.3 97.9556 168.322 97.9598 168.343 97.9682C168.364 97.9766 168.383 97.9889 168.399 98.0046C168.449 98.0544 173.573 103.134 173.871 112.362C174.145 120.322 170.389 129.088 170.359 129.173C170.345 129.198 170.325 129.22 170.301 129.235C170.276 129.251 170.249 129.26 170.22 129.262Z" fill="white"></path> <path d="M168.643 132.004C168.643 132.004 170.563 120.82 177.379 114.392C184.194 107.964 195.557 106.741 199.119 110.173C202.681 113.606 200.398 116.944 195.378 118.103C189.707 119.412 186.229 121.7 189.707 123.452C192.935 125.073 192.572 128.591 189.209 130.277C183.836 132.974 174.135 130.407 171.797 135.71L168.643 132.004Z" fill="#263238"></path> <path d="M170.085 134.372H170.031C169.988 134.356 169.954 134.324 169.934 134.283C169.915 134.242 169.912 134.196 169.926 134.153C171.497 129.779 173.919 125.76 177.05 122.327C179.505 119.672 182.379 117.439 185.558 115.716C188.716 113.973 192.153 112.794 195.716 112.233C195.762 112.229 195.807 112.243 195.843 112.271C195.878 112.3 195.9 112.342 195.906 112.387C195.908 112.409 195.907 112.432 195.901 112.454C195.895 112.475 195.884 112.495 195.87 112.513C195.857 112.531 195.839 112.545 195.82 112.556C195.8 112.567 195.779 112.574 195.756 112.576C192.229 113.143 188.828 114.321 185.707 116.059C180.732 118.76 173.981 124.118 170.235 134.292C170.218 134.317 170.196 134.337 170.17 134.351C170.144 134.364 170.115 134.372 170.085 134.372Z" fill="white"></path> <path d="M173.543 127.337C173.507 127.337 173.472 127.326 173.443 127.306C173.414 127.285 173.391 127.256 173.379 127.223C173.364 127.18 173.367 127.133 173.387 127.092C173.406 127.051 173.441 127.019 173.483 127.004C179.299 124.974 187.637 126.039 187.722 126.048C187.744 126.051 187.765 126.059 187.785 126.07C187.804 126.081 187.821 126.096 187.835 126.114C187.848 126.132 187.858 126.152 187.864 126.174C187.87 126.195 187.871 126.218 187.868 126.24C187.866 126.262 187.858 126.284 187.847 126.303C187.836 126.322 187.821 126.339 187.803 126.353C187.785 126.367 187.765 126.377 187.743 126.382C187.722 126.388 187.699 126.39 187.677 126.387C187.597 126.387 179.334 125.322 173.598 127.327C173.581 127.335 173.562 127.338 173.543 127.337Z" fill="white"></path> <path d="M26.6372 160.903L83.715 193.847C84.3855 194.188 85.127 194.366 85.8791 194.366C86.6312 194.366 87.3727 194.188 88.0432 193.847L177.055 142.461C178.249 141.769 178.249 140.655 177.055 139.973L119.978 107.009C119.308 106.669 118.567 106.491 117.816 106.491C117.065 106.491 116.324 106.669 115.654 107.009L26.6372 158.416C25.4432 159.092 25.4432 160.207 26.6372 160.903Z" fill="#FF99BA"></path> <path d="M28.4332 152.943L83.8941 184.967C84.5718 185.311 85.3208 185.49 86.0806 185.49C86.8404 185.49 87.5894 185.311 88.2671 184.967L176.2 134.207C177.409 133.511 177.409 132.382 176.2 131.685L120.734 99.6613C120.056 99.3177 119.307 99.1387 118.547 99.1387C117.787 99.1387 117.038 99.3177 116.361 99.6613L28.4332 150.456C27.2243 151.127 27.2243 152.257 28.4332 152.943Z" fill="#37474F"></path> <path d="M83.8941 184.977L28.4331 152.943C27.3536 152.321 27.2391 151.351 28.0899 150.655C27.5493 151.083 27.1054 151.621 26.7873 152.233C26.4692 152.846 26.2841 153.518 26.2441 154.207V156.261C26.2855 157.021 26.5053 157.76 26.8856 158.419C27.2659 159.077 27.7961 159.637 28.4331 160.052L83.8941 192.071C84.5673 192.429 85.3208 192.609 86.083 192.594V185.499C85.3208 185.514 84.5673 185.335 83.8941 184.977Z" fill="#455A64"></path> <path d="M176.2 141.312C176.836 140.897 177.365 140.338 177.745 139.68C178.124 139.022 178.343 138.284 178.384 137.526V135.471C178.344 134.782 178.159 134.11 177.841 133.498C177.523 132.885 177.079 132.347 176.538 131.919C177.389 132.615 177.279 133.586 176.2 134.207L88.267 184.977C87.5952 185.334 86.8436 185.514 86.083 185.499V192.604C86.8436 192.618 87.5952 192.438 88.267 192.081L176.2 141.312Z" fill="#263238"></path> <path d="M58.1984 167.734C59.1394 168.212 60.18 168.462 61.2356 168.462C62.2912 168.462 63.3319 168.212 64.2729 167.734C65.9494 166.739 65.9494 165.196 64.2729 164.226C63.3311 163.751 62.2907 163.503 61.2356 163.503C60.1805 163.503 59.1402 163.751 58.1984 164.226C56.5418 165.196 56.5418 166.769 58.1984 167.734Z" fill="#263238"></path> <path d="M92.5256 178.181L39.4378 147.511C38.7164 147.093 38.7164 146.411 39.4378 145.993L108.59 106.054C108.996 105.848 109.445 105.741 109.901 105.741C110.356 105.741 110.805 105.848 111.212 106.054L164.299 136.725C165.026 137.143 165.026 137.819 164.299 138.217L95.1474 178.161C94.7427 178.37 94.2944 178.481 93.8389 178.484C93.3834 178.488 92.9335 178.384 92.5256 178.181Z" fill="white"></path> <path d="M144.454 117.924C144.693 118.045 144.956 118.107 145.223 118.107C145.49 118.107 145.753 118.045 145.992 117.924C146.074 117.883 146.144 117.82 146.193 117.741C146.241 117.662 146.267 117.572 146.267 117.479C146.267 117.387 146.241 117.296 146.193 117.217C146.144 117.139 146.074 117.075 145.992 117.034C145.753 116.914 145.49 116.851 145.223 116.851C144.956 116.851 144.693 116.914 144.454 117.034C144.026 117.278 144.026 117.676 144.454 117.924Z" fill="#263238"></path> <path d="M146.912 124.899C147.389 125.14 147.915 125.265 148.449 125.265C148.983 125.265 149.51 125.14 149.986 124.899C150.837 124.402 150.837 123.611 149.986 123.123C149.51 122.88 148.984 122.754 148.449 122.754C147.915 122.754 147.388 122.88 146.912 123.123C146.061 123.591 146.061 124.407 146.912 124.899Z" fill="#263238"></path> <path d="M144.763 121.805C145.33 121.481 145.3 120.934 144.693 120.586L134.574 114.74C134.249 114.568 133.887 114.474 133.519 114.467C133.151 114.46 132.786 114.54 132.455 114.701C131.888 115.029 131.918 115.576 132.524 115.924L142.644 121.77C142.969 121.942 143.331 122.035 143.699 122.041C144.067 122.047 144.432 121.966 144.763 121.805Z" fill="#263238"></path> <path d="M107.694 114.303C106.968 114.72 106.968 115.397 107.694 115.795L148.141 139.153C148.548 139.358 148.998 139.466 149.454 139.466C149.911 139.466 150.361 139.358 150.768 139.153L159.723 133.994L116.649 109.119L107.694 114.303Z" fill="#63A8C7"></path> <path d="M107.993 118.357L104.764 116.497C104.629 116.428 104.48 116.392 104.329 116.392C104.177 116.392 104.028 116.428 103.893 116.497L101.859 117.671C101.615 117.81 101.615 118.034 101.859 118.168L102.137 118.332L101.107 118.88C100.988 118.944 100.998 118.984 101.137 118.974L102.948 118.8L105.087 120.034C105.224 120.101 105.373 120.135 105.525 120.135C105.677 120.135 105.827 120.101 105.963 120.034L107.993 118.86C108.044 118.84 108.088 118.806 108.119 118.761C108.15 118.716 108.166 118.663 108.166 118.608C108.166 118.554 108.15 118.501 108.119 118.456C108.088 118.411 108.044 118.377 107.993 118.357Z" fill="#63A8C7"></path> <path d="M108.943 123.213L108.704 122.715C108.396 122.064 108.207 121.178 109.102 120.666C109.441 120.494 109.816 120.404 110.197 120.404C110.577 120.404 110.952 120.494 111.291 120.666C111.759 120.934 111.863 121.337 111.605 121.661C112.185 121.502 112.805 121.565 113.341 121.84C113.474 121.883 113.59 121.967 113.672 122.08C113.754 122.193 113.798 122.329 113.798 122.469C113.798 122.609 113.754 122.745 113.672 122.858C113.59 122.971 113.474 123.055 113.341 123.098C112.465 123.596 110.933 123.506 109.804 123.332L108.943 123.213Z" fill="#63A8C7"></path> <path d="M64.6162 140.685L105.068 164.042C105.475 164.248 105.925 164.356 106.381 164.356C106.837 164.356 107.287 164.248 107.694 164.042L139.196 145.849C139.917 145.431 139.917 144.754 139.196 144.356L98.7444 120.979C98.3373 120.773 97.8874 120.666 97.4311 120.666C96.9748 120.666 96.5249 120.773 96.1177 120.979L64.6162 139.172C63.8898 139.59 63.8898 140.267 64.6162 140.685Z" fill="#63A8C7"></path> <path d="M64.9246 143.227L61.6809 141.361C61.5446 141.295 61.3949 141.26 61.2431 141.26C61.0913 141.26 60.9416 141.295 60.8053 141.361L58.7705 142.536C58.7211 142.556 58.6788 142.59 58.649 142.634C58.6193 142.679 58.6034 142.731 58.6034 142.784C58.6034 142.838 58.6193 142.89 58.649 142.934C58.6788 142.978 58.7211 143.013 58.7705 143.033L59.0541 143.197L58.0243 143.739C57.8999 143.804 57.9148 143.849 58.0243 143.834L59.8352 143.665L61.9744 144.899C62.1107 144.965 62.2605 145 62.4122 145C62.564 145 62.7137 144.965 62.85 144.899L64.8848 143.72C64.9365 143.705 64.9825 143.675 65.0166 143.633C65.0508 143.592 65.0714 143.541 65.0757 143.487C65.08 143.434 65.0679 143.38 65.0409 143.333C65.0138 143.287 64.9733 143.25 64.9246 143.227Z" fill="#63A8C7"></path> <path d="M65.8498 148.078L65.616 147.58C65.3026 146.928 65.1185 146.043 66.014 145.525C66.3524 145.354 66.7265 145.264 67.106 145.264C67.4855 145.264 67.8596 145.354 68.198 145.525C68.6955 145.799 68.7751 146.202 68.5114 146.52C69.0944 146.367 69.7131 146.431 70.2527 146.7C70.385 146.744 70.5 146.829 70.5814 146.942C70.6629 147.056 70.7067 147.192 70.7067 147.331C70.7067 147.471 70.6629 147.607 70.5814 147.72C70.5 147.834 70.385 147.919 70.2527 147.963C69.3771 148.461 67.8448 148.371 66.7105 148.197L65.8498 148.078Z" fill="#63A8C7"></path> <path d="M53.0493 145.849C53.4565 145.643 53.9064 145.536 54.3627 145.536C54.819 145.536 55.2689 145.643 55.6761 145.849L96.1226 169.201C96.8489 169.619 96.8489 170.301 96.1226 170.719L87.8691 175.485L44.8058 150.61L53.0493 145.849Z" fill="#63A8C7"></path> <path d="M97.9981 140.471L74.974 146.655L105.078 164.037C105.485 164.243 105.935 164.351 106.391 164.351C106.847 164.351 107.297 164.243 107.704 164.037L108.356 163.659L121.346 144.6L93.7595 150.013L97.9981 140.471Z" fill="#FF99BA"></path> <path d="M109.336 127.098L98.7444 120.979C98.3372 120.773 97.8873 120.666 97.431 120.666C96.9747 120.666 96.5248 120.773 96.1176 120.979L84.2772 127.82C84.8195 128.849 85.9389 129.81 87.6353 130.64C92.6103 133.018 100.71 133.018 105.699 130.64C107.789 129.645 108.998 128.392 109.336 127.098Z" fill="#FF99BA"></path> <path opacity="0.2" d="M160.414 124.944L107.321 94.2784C106.915 94.0725 106.466 93.9652 106.01 93.9652C105.555 93.9652 105.106 94.0725 104.699 94.2784L35.5474 134.217C34.826 134.635 34.826 135.312 35.5474 135.71L46.7709 142.177L88.6552 166.371C89.0615 166.576 89.5106 166.684 89.9661 166.684C90.4215 166.684 90.8706 166.576 91.277 166.371L153.524 130.407L160.409 126.427C161.14 126.044 161.14 125.362 160.414 124.944Z" fill="white"></path> <path d="M160.543 124.725L116.644 99.3528L107.451 94.0595C107.006 93.8316 106.513 93.7127 106.013 93.7127C105.513 93.7127 105.02 93.8316 104.575 94.0595L35.423 133.998C35.2259 134.074 35.0564 134.208 34.9368 134.382C34.8173 134.556 34.7533 134.762 34.7533 134.974C34.7533 135.185 34.8173 135.391 34.9368 135.565C35.0564 135.739 35.2259 135.873 35.423 135.949L46.6465 142.416L88.5457 166.624C88.9904 166.853 89.4833 166.972 89.9834 166.972C90.4835 166.972 90.9764 166.853 91.4212 166.624L153.663 130.66L160.553 126.68C160.75 126.603 160.919 126.469 161.038 126.295C161.157 126.12 161.221 125.914 161.221 125.703C161.221 125.492 161.157 125.285 161.038 125.111C160.919 124.937 160.75 124.802 160.553 124.725H160.543ZM160.29 126.243L153.399 130.222L91.1575 166.187C90.789 166.37 90.3828 166.466 89.971 166.466C89.5592 166.466 89.1529 166.37 88.7845 166.187L46.9002 141.998L35.6817 135.531C35.5618 135.5 35.4556 135.43 35.3797 135.333C35.3039 135.235 35.2627 135.115 35.2627 134.991C35.2627 134.867 35.3039 134.747 35.3797 134.649C35.4556 134.552 35.5618 134.482 35.6817 134.451L104.834 94.5122C105.203 94.3294 105.609 94.2342 106.02 94.2342C106.432 94.2342 106.838 94.3294 107.207 94.5122L116.405 99.8105L160.305 125.183C160.424 125.214 160.531 125.283 160.607 125.381C160.682 125.479 160.724 125.599 160.724 125.723C160.724 125.846 160.682 125.967 160.607 126.064C160.531 126.162 160.424 126.232 160.305 126.262L160.29 126.243Z" fill="white"></path> <path d="M136.589 0.579836C137.32 0.156963 137.917 0.500235 137.917 1.34598V99.1489C137.892 99.61 137.758 100.059 137.527 100.459C137.297 100.859 136.975 101.199 136.589 101.452L98.421 123.491L93.9435 138.416C93.5405 139.769 92.7346 139.829 92.1476 138.541L88.0482 129.491L76.9043 135.924C76.1729 136.347 75.5759 136.003 75.5759 135.158V37.3548C75.6008 36.8935 75.7341 36.4445 75.9648 36.0443C76.1956 35.6442 76.5175 35.304 76.9043 35.0514L136.589 0.579836Z" fill="#263238"></path> <path d="M131.713 76.0799C131.668 76.7132 131.473 77.3267 131.146 77.8705C130.818 78.4143 130.366 78.873 129.828 79.2092L108.858 91.3183C107.819 91.9153 106.973 91.4924 106.973 90.3631C107.02 89.7302 107.215 89.1173 107.543 88.5737C107.87 88.0302 108.321 87.5712 108.858 87.2338L129.838 75.1297C130.873 74.5278 131.713 74.9556 131.713 76.0799Z" fill="white"></path> <path d="M127.848 88.1741C127.801 88.807 127.606 89.4201 127.279 89.9637C126.951 90.5074 126.5 90.9663 125.962 91.3033L108.545 101.373C107.505 101.975 106.665 101.547 106.665 100.417C106.71 99.7855 106.904 99.1733 107.231 98.6305C107.558 98.0876 108.008 97.6295 108.545 97.2932L125.982 87.2239C127.022 86.6219 127.848 87.0497 127.848 88.1741Z" fill="white"></path> <path d="M96.431 105.378L96.3862 104.79C95.436 107.188 94.0032 108.91 92.4062 109.83C89.5854 111.462 87.0631 110.014 87.0631 105.696C87.0631 101.626 89.0531 97.1638 92.1525 95.3878C94.1873 94.2137 95.5753 95.0793 95.8041 95.5918V94.5968C95.8041 94.0445 96.3663 93.2734 97.0529 92.8754C97.7394 92.4774 98.3066 92.8406 98.3066 93.6913V102.92C98.3066 104.094 98.7444 104.333 99.3662 103.97C100.501 103.318 101.545 100.527 101.545 97.3479C101.545 91.2088 98.3265 88.3482 93.1923 91.3133C88.3815 94.0893 84.5657 101.104 84.5657 107.233C84.5657 113.248 88.1726 115.541 92.8938 112.82C94.2497 111.978 95.4511 110.909 96.4459 109.661C96.9832 109.004 97.5703 108.805 97.829 109.273C98.0877 109.741 97.9285 110.706 97.3961 111.362C96.1374 112.942 94.6242 114.3 92.9187 115.382C87.0432 118.77 82.6006 115.815 82.6006 108.382C82.6006 100.791 87.2522 92.2784 93.2172 88.8308C99.1821 85.3831 103.555 88.4477 103.555 96.1291C103.555 100.786 101.729 104.865 99.1374 106.358C97.7046 107.144 96.6847 106.96 96.431 105.378ZM89.7695 103.98C89.7695 106.358 90.9237 107.661 92.6848 106.646C94.446 105.631 95.6698 103.024 95.6698 100.621C95.6698 98.3081 94.4908 97.139 92.66 98.1937C90.9237 99.1787 89.7695 101.701 89.7695 103.98Z" fill="white"></path> <path d="M106.734 32.0515C117.037 26.0815 125.385 30.9271 125.385 42.8223C125.385 54.7174 117.037 69.1896 106.734 75.1297C96.431 81.0698 88.083 76.2541 88.083 64.3589C88.083 52.4638 96.431 38.0214 106.734 32.0515Z" fill="white"></path> <path d="M106.734 32.0515C117.037 26.0815 125.385 30.9271 125.385 42.8223C125.385 54.7174 117.037 69.1896 106.734 75.1297C96.431 81.0698 88.083 76.2541 88.083 64.3589C88.083 52.4638 96.431 38.0214 106.734 32.0515Z" fill="#F5F5F5"></path> <path d="M99.9334 47.847C99.0786 47.9947 98.315 48.4693 97.8041 49.1703C96.8887 50.3494 97.0777 52.0309 97.8041 55.8169L100.635 55.3841L99.9334 47.847Z" fill="#263238"></path> <path d="M116.43 42.275C117.066 42.1052 117.666 41.8221 118.201 41.4392C119.072 40.7079 119.296 41.6382 118.818 42.6233C118.502 43.3255 118.049 43.9579 117.486 44.4839C116.923 45.01 116.262 45.4192 115.54 45.6879C115.51 45.5685 114.724 43.6979 114.724 43.6979L116.43 42.275Z" fill="#263238"></path> <path d="M101.56 67.3737C101.56 67.3737 96.2868 70.7766 95.1425 71.9756C93.9983 73.1746 93.5257 76.9108 93.1028 81.4827C93.1028 81.4827 99.1076 84.015 108.525 79.3535C117.943 74.6919 118.794 71.0055 118.794 71.0055C118.794 71.0055 117.575 65.4683 117.122 63.9311C116.55 61.9859 115.445 60.5829 109.023 63.4982L101.56 67.3737Z" fill="#263238"></path> <path d="M101.262 55.2199C100.839 55.5831 100.242 54.9363 99.7244 54.5334C99.207 54.1304 97.5155 53.8418 96.6698 55.8467C95.824 57.8517 97.7643 59.772 98.9085 60.2645C99.3 60.4292 99.7309 60.4764 100.149 60.4004C100.567 60.3244 100.953 60.1286 101.262 59.8367L101.56 67.3737C101.56 67.3737 103.053 69.9558 107.132 69.4185C111.212 68.8812 110.361 64.7818 109.028 63.4983V61.9461C109.028 61.9461 111.132 61.8068 112.122 61.2794C112.654 60.9958 113.918 59.1252 114.734 57.195C116.416 53.6392 116.8 49.6065 115.818 45.7973C114.361 39.9866 107.699 41.5835 103.729 45.1456C99.7592 48.7077 101.262 55.2199 101.262 55.2199Z" fill="#FFA8A7"></path> <path d="M117.58 36.4444C117.221 35.2703 117.002 35.4792 114.122 37.504C111.922 39.053 109.467 40.2032 106.868 40.9019C104.839 41.5188 102.063 42.0064 100.635 43.8869C100.021 44.6957 99.7076 45.6931 99.7493 46.7077C99.6283 46.5955 99.4812 46.5152 99.3214 46.4739C98.62 46.2849 97.7593 46.7973 97.3961 47.6231L99.8836 48.2848C99.6896 49.7176 99.1324 54.1403 99.7393 54.5284C100.262 54.8617 101.063 55.9811 101.277 55.9214C101.988 55.7174 102.272 52.5633 102.66 50.6529C103.083 48.4788 103.247 47.6679 104.028 47.5784C106.565 47.1784 109.062 46.5575 111.49 45.7227C114.177 44.673 114.948 43.7825 114.948 43.7825L116.381 42.872C117.02 41.9447 117.457 40.8932 117.664 39.7858C117.871 38.6784 117.842 37.5399 117.58 36.4444Z" fill="#263238"></path> <path d="M109.018 61.9461C109.018 61.9461 105.252 62.1998 103.938 61.8515C103.182 61.6713 102.527 61.1992 102.117 60.5381C102.304 61.2298 102.659 61.8642 103.152 62.3839C104.112 63.3789 109.018 62.951 109.018 62.951V61.9461Z" fill="#F28F8F"></path> <path d="M108.058 57.5731L109.779 57.7571C109.708 58.0125 109.555 58.2374 109.344 58.3974C109.133 58.5574 108.875 58.6436 108.61 58.6427C108.132 58.5929 107.888 58.1153 108.058 57.5731Z" fill="#F28F8F"></path> <path d="M110.545 50.8569L110.794 55.3293L113.167 53.8916L110.545 50.8569Z" fill="#F28F8F"></path> <path d="M108.112 52.4488C108.108 52.6726 108.032 52.8892 107.898 53.0678C107.763 53.2464 107.575 53.378 107.361 53.4438C107.272 53.4745 107.176 53.4825 107.083 53.4672C106.989 53.4519 106.901 53.4137 106.827 53.356C106.752 53.2983 106.692 53.223 106.654 53.1368C106.615 53.0505 106.598 52.9561 106.605 52.8618C106.611 52.6376 106.687 52.4209 106.823 52.2423C106.958 52.0638 107.147 51.9324 107.361 51.8668C107.45 51.8358 107.546 51.8276 107.639 51.8429C107.732 51.8582 107.82 51.8964 107.894 51.9543C107.969 52.0121 108.028 52.0876 108.066 52.1739C108.104 52.2603 108.12 52.3548 108.112 52.4488Z" fill="#263238"></path> <path d="M107.311 49.8071L105.699 51.1305C105.595 50.8906 105.576 50.6224 105.644 50.37C105.713 50.1176 105.866 49.8963 106.077 49.7425C106.157 49.6546 106.255 49.5856 106.364 49.5404C106.474 49.4952 106.592 49.475 106.71 49.4812C106.828 49.4874 106.943 49.5199 107.047 49.5763C107.151 49.6326 107.242 49.7115 107.311 49.8071Z" fill="#263238"></path> <path d="M114.843 48.4141L113.351 47.6779C113.463 47.4476 113.655 47.2658 113.891 47.1661C114.127 47.0664 114.391 47.0556 114.635 47.1356C114.736 47.2025 114.823 47.2898 114.889 47.392C114.955 47.4941 115 47.6089 115.019 47.7291C115.039 47.8492 115.033 47.9721 115.003 48.09C114.973 48.208 114.919 48.3183 114.843 48.4141Z" fill="#263238"></path> <path d="M114.415 50.5434C114.409 50.7668 114.334 50.9827 114.199 51.161C114.064 51.3393 113.877 51.4713 113.664 51.5384C113.575 51.5691 113.479 51.5771 113.386 51.5618C113.293 51.5464 113.205 51.5082 113.13 51.4506C113.055 51.3929 112.995 51.3176 112.957 51.2314C112.918 51.1451 112.901 51.0506 112.908 50.9564C112.914 50.7322 112.99 50.5155 113.126 50.3369C113.261 50.1584 113.45 50.027 113.664 49.9614C113.753 49.9304 113.849 49.9222 113.942 49.9375C114.035 49.9528 114.123 49.991 114.198 50.0488C114.272 50.1066 114.331 50.1821 114.369 50.2685C114.407 50.3549 114.423 50.4494 114.415 50.5434Z" fill="#263238"></path> </svg> 