<?xml version="1.0" encoding="UTF-8"?>
<svg xmlns="http://www.w3.org/2000/svg" xmlns:xlink="http://www.w3.org/1999/xlink" viewBox="0 0 50 50" width="50px" height="50px">
<g id="surface160283047">
<path style=" stroke:none;fill-rule:nonzero;fill:rgb(0%,0%,0%);fill-opacity:1;" d="M 25 5 C 18.371094 5 13 10.371094 13 17 C 13 21.839844 15.871094 26 20 27.898438 L 20 42.316406 C 20 42.746094 20.203125 43.152344 20.546875 43.414062 L 24.261719 46.210938 C 24.679688 46.527344 25.273438 46.476562 25.628906 46.089844 L 30.558594 40.734375 C 30.855469 40.410156 30.902344 39.929688 30.667969 39.558594 L 29 36.898438 L 29 36.820312 L 31.183594 33.753906 C 31.425781 33.410156 31.441406 32.953125 31.214844 32.597656 L 29 29.082031 L 29 28.304688 C 33.65625 26.652344 37 22.222656 37 17 C 37 10.371094 31.628906 5 25 5 Z M 25 9 C 26.65625 9 28 10.34375 28 12 C 28 13.65625 26.65625 15 25 15 C 23.34375 15 22 13.65625 22 12 C 22 10.34375 23.34375 9 25 9 Z M 25 9 "/>
</g>
</svg>
