<?xml version="1.0" encoding="UTF-8"?> <svg xmlns="http://www.w3.org/2000/svg" width="298" height="225" viewBox="0 0 298 225" fill="none"> <path d="M11.5982 8.5L9.0001 0L6.40202 8.5L0.339844 15L9.0001 13L17.6604 15L11.5982 8.5Z" fill="white"></path> <path d="M51.5982 8.5L49.0001 0L46.402 8.5L40.3398 15L49.0001 13L57.6604 15L51.5982 8.5Z" fill="white"></path> <path d="M89.0001 0L91.5982 8.5L97.6604 15L89.0001 13L80.3398 15L86.402 8.5L89.0001 0Z" fill="white"></path> <path d="M131.598 8.5L129 0L126.402 8.5L120.34 15L129 13L137.66 15L131.598 8.5Z" fill="white"></path> <path d="M169 0L171.598 8.5L177.66 15L169 13L160.34 15L166.402 8.5L169 0Z" fill="white"></path> <path d="M211.598 8.5L209 0L206.402 8.5L200.34 15L209 13L217.66 15L211.598 8.5Z" fill="white"></path> <path d="M249 0L251.598 8.5L257.66 15L249 13L240.34 15L246.402 8.5L249 0Z" fill="white"></path> <path d="M291.598 8.5L289 0L286.402 8.5L280.34 15L289 13L297.66 15L291.598 8.5Z" fill="white"></path> <path d="M9.0001 30L11.5982 38.5L17.6604 45L9.0001 43L0.339844 45L6.40202 38.5L9.0001 30Z" fill="white"></path> <path d="M51.5982 38.5L49.0001 30L46.402 38.5L40.3398 45L49.0001 43L57.6604 45L51.5982 38.5Z" fill="white"></path> <path d="M89.0001 30L91.5982 38.5L97.6604 45L89.0001 43L80.3398 45L86.402 38.5L89.0001 30Z" fill="white"></path> <path d="M131.598 38.5L129 30L126.402 38.5L120.34 45L129 43L137.66 45L131.598 38.5Z" fill="white"></path> <path d="M169 30L171.598 38.5L177.66 45L169 43L160.34 45L166.402 38.5L169 30Z" fill="white"></path> <path d="M211.598 38.5L209 30L206.402 38.5L200.34 45L209 43L217.66 45L211.598 38.5Z" fill="white"></path> <path d="M249 30L251.598 38.5L257.66 45L249 43L240.34 45L246.402 38.5L249 30Z" fill="white"></path> <path d="M291.598 38.5L289 30L286.402 38.5L280.34 45L289 43L297.66 45L291.598 38.5Z" fill="white"></path> <path d="M9.0001 60L11.5982 68.5L17.6604 75L9.0001 73L0.339844 75L6.40202 68.5L9.0001 60Z" fill="white"></path> <path d="M51.5982 68.5L49.0001 60L46.402 68.5L40.3398 75L49.0001 73L57.6604 75L51.5982 68.5Z" fill="white"></path> <path d="M89.0001 60L91.5982 68.5L97.6604 75L89.0001 73L80.3398 75L86.402 68.5L89.0001 60Z" fill="white"></path> <path d="M131.598 68.5L129 60L126.402 68.5L120.34 75L129 73L137.66 75L131.598 68.5Z" fill="white"></path> <path d="M169 60L171.598 68.5L177.66 75L169 73L160.34 75L166.402 68.5L169 60Z" fill="white"></path> <path d="M211.598 68.5L209 60L206.402 68.5L200.34 75L209 73L217.66 75L211.598 68.5Z" fill="white"></path> <path d="M249 60L251.598 68.5L257.66 75L249 73L240.34 75L246.402 68.5L249 60Z" fill="white"></path> <path d="M291.598 68.5L289 60L286.402 68.5L280.34 75L289 73L297.66 75L291.598 68.5Z" fill="white"></path> <path d="M9.0001 90L11.5982 98.5L17.6604 105L9.0001 103L0.339844 105L6.40202 98.5L9.0001 90Z" fill="white"></path> <path d="M51.5982 98.5L49.0001 90L46.402 98.5L40.3398 105L49.0001 103L57.6604 105L51.5982 98.5Z" fill="white"></path> <path d="M89.0001 90L91.5982 98.5L97.6604 105L89.0001 103L80.3398 105L86.402 98.5L89.0001 90Z" fill="white"></path> <path d="M131.598 98.5L129 90L126.402 98.5L120.34 105L129 103L137.66 105L131.598 98.5Z" fill="white"></path> <path d="M169 90L171.598 98.5L177.66 105L169 103L160.34 105L166.402 98.5L169 90Z" fill="white"></path> <path d="M211.598 98.5L209 90L206.402 98.5L200.34 105L209 103L217.66 105L211.598 98.5Z" fill="white"></path> <path d="M249 90L251.598 98.5L257.66 105L249 103L240.34 105L246.402 98.5L249 90Z" fill="white"></path> <path d="M291.598 98.5L289 90L286.402 98.5L280.34 105L289 103L297.66 105L291.598 98.5Z" fill="white"></path> <path d="M9.0001 120L11.5982 128.5L17.6604 135L9.0001 133L0.339844 135L6.40202 128.5L9.0001 120Z" fill="white"></path> <path d="M51.5982 128.5L49.0001 120L46.402 128.5L40.3398 135L49.0001 133L57.6604 135L51.5982 128.5Z" fill="white"></path> <path d="M89.0001 120L91.5982 128.5L97.6604 135L89.0001 133L80.3398 135L86.402 128.5L89.0001 120Z" fill="white"></path> <path d="M131.598 128.5L129 120L126.402 128.5L120.34 135L129 133L137.66 135L131.598 128.5Z" fill="white"></path> <path d="M169 120L171.598 128.5L177.66 135L169 133L160.34 135L166.402 128.5L169 120Z" fill="white"></path> <path d="M211.598 128.5L209 120L206.402 128.5L200.34 135L209 133L217.66 135L211.598 128.5Z" fill="white"></path> <path d="M249 120L251.598 128.5L257.66 135L249 133L240.34 135L246.402 128.5L249 120Z" fill="white"></path> <path d="M291.598 128.5L289 120L286.402 128.5L280.34 135L289 133L297.66 135L291.598 128.5Z" fill="white"></path> <path d="M9.0001 150L11.5982 158.5L17.6604 165L9.0001 163L0.339844 165L6.40202 158.5L9.0001 150Z" fill="white"></path> <path d="M51.5982 158.5L49.0001 150L46.402 158.5L40.3398 165L49.0001 163L57.6604 165L51.5982 158.5Z" fill="white"></path> <path d="M89.0001 150L91.5982 158.5L97.6604 165L89.0001 163L80.3398 165L86.402 158.5L89.0001 150Z" fill="white"></path> <path d="M131.598 158.5L129 150L126.402 158.5L120.34 165L129 163L137.66 165L131.598 158.5Z" fill="white"></path> <path d="M169 150L171.598 158.5L177.66 165L169 163L160.34 165L166.402 158.5L169 150Z" fill="white"></path> <path d="M211.598 158.5L209 150L206.402 158.5L200.34 165L209 163L217.66 165L211.598 158.5Z" fill="white"></path> <path d="M249 150L251.598 158.5L257.66 165L249 163L240.34 165L246.402 158.5L249 150Z" fill="white"></path> <path d="M291.598 158.5L289 150L286.402 158.5L280.34 165L289 163L297.66 165L291.598 158.5Z" fill="white"></path> <path d="M9.0001 180L11.5982 188.5L17.6604 195L9.0001 193L0.339844 195L6.40202 188.5L9.0001 180Z" fill="white"></path> <path d="M51.5982 188.5L49.0001 180L46.402 188.5L40.3398 195L49.0001 193L57.6604 195L51.5982 188.5Z" fill="white"></path> <path d="M89.0001 180L91.5982 188.5L97.6604 195L89.0001 193L80.3398 195L86.402 188.5L89.0001 180Z" fill="white"></path> <path d="M131.598 188.5L129 180L126.402 188.5L120.34 195L129 193L137.66 195L131.598 188.5Z" fill="white"></path> <path d="M169 180L171.598 188.5L177.66 195L169 193L160.34 195L166.402 188.5L169 180Z" fill="white"></path> <path d="M211.598 188.5L209 180L206.402 188.5L200.34 195L209 193L217.66 195L211.598 188.5Z" fill="white"></path> <path d="M249 180L251.598 188.5L257.66 195L249 193L240.34 195L246.402 188.5L249 180Z" fill="white"></path> <path d="M291.598 188.5L289 180L286.402 188.5L280.34 195L289 193L297.66 195L291.598 188.5Z" fill="white"></path> <path d="M9.0001 210L11.5982 218.5L17.6604 225L9.0001 223L0.339844 225L6.40202 218.5L9.0001 210Z" fill="white"></path> <path d="M51.5982 218.5L49.0001 210L46.402 218.5L40.3398 225L49.0001 223L57.6604 225L51.5982 218.5Z" fill="white"></path> <path d="M89.0001 210L91.5982 218.5L97.6604 225L89.0001 223L80.3398 225L86.402 218.5L89.0001 210Z" fill="white"></path> <path d="M131.598 218.5L129 210L126.402 218.5L120.34 225L129 223L137.66 225L131.598 218.5Z" fill="white"></path> <path d="M169 210L171.598 218.5L177.66 225L169 223L160.34 225L166.402 218.5L169 210Z" fill="white"></path> <path d="M211.598 218.5L209 210L206.402 218.5L200.34 225L209 223L217.66 225L211.598 218.5Z" fill="white"></path> <path d="M249 210L251.598 218.5L257.66 225L249 223L240.34 225L246.402 218.5L249 210Z" fill="white"></path> <path d="M291.598 218.5L289 210L286.402 218.5L280.34 225L289 223L297.66 225L291.598 218.5Z" fill="white"></path> </svg> 