<?xml version="1.0" encoding="UTF-8"?> <svg xmlns="http://www.w3.org/2000/svg" width="279" height="226" viewBox="0 0 279 226" fill="none"> <path d="M48 95.4731H47.5V95.9731V207.973C47.5 215.981 53.9919 222.473 62 222.473H214C222.008 222.473 228.5 215.981 228.5 207.973V95.9731V95.4731H228H48Z" fill="url(#paint0_linear_1_3)" stroke="#C52024"></path> <mask id="path-2-outside-1_1_3" maskUnits="userSpaceOnUse" x="41.8398" y="40.9731" width="194" height="62" fill="black"> <rect fill="white" x="41.8398" y="40.9731" width="194" height="62"></rect> <path fill-rule="evenodd" clip-rule="evenodd" d="M54.8624 41.9731C52.6865 41.9731 50.7604 43.3803 50.099 45.4533L43.08 67.4533C42.7779 68.4003 42.7719 69.3531 42.9999 70.2268V96.9731C42.9999 99.7345 45.2385 101.973 47.9999 101.973H229C231.761 101.973 234 99.7345 234 96.9731V70.2269C234.228 69.3532 234.222 68.4003 233.92 67.4533L226.901 45.4533C226.239 43.3803 224.313 41.9731 222.137 41.9731H54.8624Z"></path> </mask> <path fill-rule="evenodd" clip-rule="evenodd" d="M54.8624 41.9731C52.6865 41.9731 50.7604 43.3803 50.099 45.4533L43.08 67.4533C42.7779 68.4003 42.7719 69.3531 42.9999 70.2268V96.9731C42.9999 99.7345 45.2385 101.973 47.9999 101.973H229C231.761 101.973 234 99.7345 234 96.9731V70.2269C234.228 69.3532 234.222 68.4003 233.92 67.4533L226.901 45.4533C226.239 43.3803 224.313 41.9731 222.137 41.9731H54.8624Z" fill="#F9443D"></path> <path d="M50.099 45.4533L51.0517 45.7573L50.099 45.4533ZM43.08 67.4533L44.0327 67.7573H44.0327L43.08 67.4533ZM42.9999 70.2268H43.9999V70.0985L43.9675 69.9743L42.9999 70.2268ZM234 70.2269L233.032 69.9744L233 70.0985V70.2269H234ZM233.92 67.4533L234.873 67.1494L233.92 67.4533ZM226.901 45.4533L225.948 45.7573V45.7573L226.901 45.4533ZM51.0517 45.7573C51.5808 44.0989 53.1217 42.9731 54.8624 42.9731V40.9731C52.2513 40.9731 49.9399 42.6618 49.1463 45.1494L51.0517 45.7573ZM44.0327 67.7573L51.0517 45.7573L49.1463 45.1494L42.1273 67.1494L44.0327 67.7573ZM43.9675 69.9743C43.786 69.2788 43.7896 68.519 44.0327 67.7573L42.1273 67.1494C41.7661 68.2815 41.7578 69.4275 42.0323 70.4793L43.9675 69.9743ZM43.9999 96.9731V70.2268H41.9999V96.9731H43.9999ZM47.9999 100.973C45.7908 100.973 43.9999 99.1822 43.9999 96.9731H41.9999C41.9999 100.287 44.6862 102.973 47.9999 102.973V100.973ZM229 100.973H47.9999V102.973H229V100.973ZM233 96.9731C233 99.1822 231.209 100.973 229 100.973V102.973C232.314 102.973 235 100.287 235 96.9731H233ZM233 70.2269V96.9731H235V70.2269H233ZM232.967 67.7573C233.21 68.519 233.214 69.2788 233.032 69.9744L234.967 70.4794C235.242 69.4275 235.234 68.2815 234.873 67.1494L232.967 67.7573ZM225.948 45.7573L232.967 67.7573L234.873 67.1494L227.854 45.1494L225.948 45.7573ZM222.137 42.9731C223.878 42.9731 225.419 44.0989 225.948 45.7573L227.854 45.1494C227.06 42.6618 224.749 40.9731 222.137 40.9731V42.9731ZM54.8624 42.9731H222.137V40.9731H54.8624V42.9731Z" fill="#C52024" mask="url(#path-2-outside-1_1_3)"></path> <rect opacity="0.1" x="48" y="95.9731" width="180" height="19" fill="black"></rect> <path d="M43 68.9731H234V96.9731C234 99.7345 231.761 101.973 229 101.973H48C45.2386 101.973 43 99.7345 43 96.9731V68.9731Z" fill="url(#paint1_linear_1_3)"></path> <path d="M50.0991 45.4533C50.7604 43.3803 52.6866 41.9731 54.8625 41.9731H222.137C224.313 41.9731 226.24 43.3803 226.901 45.4533L233.92 67.4533C234.949 70.6788 232.542 73.9731 229.156 73.9731H47.8435C44.4579 73.9731 42.051 70.6788 43.0801 67.4533L50.0991 45.4533Z" fill="#F9443D"></path> <path d="M276.72 42.9222L277.727 42.4291L276.687 42.0094C265.179 37.3656 251.876 36.9965 239.954 38.4015C228.028 39.8071 217.433 42.9941 211.31 45.5106L211.045 45.6193L211.005 45.9023L209.505 56.4023L209.43 56.9273L209.958 56.9713C221.881 57.9649 234.574 62.1501 245.612 66.9934C256.646 71.8352 265.994 77.3201 271.218 80.886L272.574 81.8114L271.964 80.2874C268.062 70.5325 258.539 59.0997 253.833 54.1219L276.72 42.9222Z" fill="url(#paint2_linear_1_3)" stroke="url(#paint3_linear_1_3)"></path> <path d="M2.78022 42.9222L1.77269 42.4291L2.8129 42.0094C14.3214 37.3656 27.6241 36.9965 39.546 38.4015C51.4724 39.8071 62.0665 42.9941 68.1901 45.5106L68.4545 45.6193L68.495 45.9023L69.995 56.4023L70.07 56.9273L69.5415 56.9713C57.6189 57.9649 44.9262 62.1501 33.8884 66.9934C22.8542 71.8352 13.5063 77.3201 8.28187 80.886L6.92616 81.8114L7.53576 80.2874C11.4377 70.5325 20.9614 59.0997 25.6667 54.1219L2.78022 42.9222Z" fill="url(#paint4_linear_1_3)" stroke="url(#paint5_linear_1_3)"></path> <path d="M151.655 32.611L151.542 32.7191L151.51 32.8727L147.51 52.3727L147.449 52.6717L147.687 52.8629C153.103 57.2172 162.51 59.968 173.478 61.1495C184.468 62.3335 197.113 61.9506 209.082 59.9664C223.396 57.5934 230.983 48.2359 232.19 37.1283C233.393 26.059 228.258 13.3211 217.322 4.09106C213.203 0.614378 207.851 -0.0965242 202.01 0.934094C196.173 1.96399 189.783 4.74136 183.491 8.33071C170.904 15.5116 158.586 26.014 151.655 32.611Z" fill="url(#paint6_linear_1_3)" stroke="url(#paint7_linear_1_3)"></path> <path d="M128.206 32.611L128.32 32.7191L128.351 32.8727L132.351 52.3727L132.413 52.6717L132.175 52.8629C126.758 57.2172 117.352 59.968 106.384 61.1495C95.3931 62.3335 82.7483 61.9506 70.7798 59.9664C56.4653 57.5934 48.8788 48.2359 47.6716 37.1283C46.4684 26.059 51.6032 13.3211 62.5391 4.09106C66.6583 0.614378 72.0101 -0.0965242 77.8515 0.934094C83.6889 1.96399 90.0786 4.74136 96.3704 8.33071C108.958 15.5116 121.275 26.014 128.206 32.611Z" fill="url(#paint8_linear_1_3)" stroke="url(#paint9_linear_1_3)"></path> <path d="M159.122 58.1457L158.682 58.6543L159.296 58.9294C166.206 62.0256 179.366 64.8767 192.019 64.3409C204.644 63.8062 216.994 59.8835 221.954 49.1834C223.193 46.5099 223.472 44.2242 222.87 42.3381C222.266 40.4432 220.805 39.0537 218.784 38.1105C214.774 36.2394 208.384 36.0365 201.197 37.1565C186.8 39.3997 168.756 47.0256 159.122 58.1457Z" fill="#B52930" stroke="#9D131A"></path> <path d="M119.993 58.5811L120.445 59.1031L119.808 59.3697C117.873 60.1798 113.738 61.2071 108.475 61.992C103.198 62.7788 96.7454 63.328 90.159 63.1648C83.5759 63.0017 76.8362 62.1264 70.9963 60.0504C65.1559 57.9742 60.178 54.6828 57.1856 49.6646C55.6946 47.1644 55.2061 44.9962 55.6667 43.1804C56.1307 41.3512 57.5233 40.0114 59.496 39.1004C63.4102 37.2928 69.8596 37.0477 77.1674 38.0845C84.5018 39.1251 92.7945 41.4706 100.454 44.9387C108.109 48.405 115.164 53.0076 119.993 58.5811Z" fill="#B52930" stroke="#9D131A"></path> <path d="M157.929 40.7154L157.923 40.705L157.894 40.6551C157.869 40.611 157.831 40.5455 157.783 40.4604C157.686 40.2904 157.547 40.0424 157.376 39.7321C157.035 39.1114 156.569 38.2423 156.073 37.2495C155.075 35.2533 153.971 32.7949 153.485 30.8518C153.224 29.8072 152.853 28.9819 152.266 28.3523C151.676 27.7181 150.91 27.3271 149.943 27.0756C148.986 26.8265 147.803 26.7071 146.351 26.6334C145.293 26.5798 144.071 26.5498 142.668 26.5153C142.142 26.5024 141.591 26.4889 141.014 26.4733C140.158 26.4501 139.35 26.4205 138.589 26.3926C137.444 26.3506 136.405 26.3124 135.467 26.306C133.899 26.2953 132.548 26.3711 131.354 26.6774C128.901 27.3068 127.221 28.8808 125.552 32.2512C124.421 34.5356 123.89 36.2473 123.433 37.7198C123.297 38.1561 123.168 38.5714 123.032 38.9743C122.443 40.7177 121.699 42.3218 119.628 44.6399C118.457 45.9496 118.05 47.4552 118.476 48.9563C118.893 50.4299 120.087 51.8085 121.924 52.9645C125.596 55.2758 132.03 56.8259 141.004 56.4733C144.356 56.5562 149.382 56.4055 153.586 55.6783C155.686 55.3149 157.619 54.8015 159.039 54.0798C160.438 53.369 161.5 52.3679 161.5 50.9731C161.5 48.6633 160.588 46.0834 159.707 44.1184C159.262 43.1279 158.818 42.2778 158.485 41.675C158.318 41.3734 158.179 41.1332 158.081 40.9677C158.032 40.8849 157.993 40.8208 157.967 40.777L157.936 40.7267L157.929 40.7154Z" fill="url(#paint10_linear_1_3)" stroke="url(#paint11_linear_1_3)"></path> <rect x="117.5" y="53.4731" width="46" height="172" rx="8.5" fill="url(#paint12_linear_1_3)" stroke="#C52024"></rect> <defs> <linearGradient id="paint0_linear_1_3" x1="228" y1="145.973" x2="48" y2="145.973" gradientUnits="userSpaceOnUse"> <stop stop-color="#FA6157"></stop> <stop offset="0.0983215" stop-color="#C52024"></stop> <stop offset="0.917205" stop-color="#CD3236"></stop> <stop offset="1" stop-color="#FA6157"></stop> </linearGradient> <linearGradient id="paint1_linear_1_3" x1="43" y1="101.973" x2="234" y2="101.973" gradientUnits="userSpaceOnUse"> <stop stop-color="#FA6157"></stop> <stop offset="0.0885729" stop-color="#CD3236"></stop> <stop offset="0.884867" stop-color="#CD3236"></stop> <stop offset="1" stop-color="#FA6157"></stop> </linearGradient> <linearGradient id="paint2_linear_1_3" x1="271" y1="40.973" x2="230.5" y2="67.9731" gradientUnits="userSpaceOnUse"> <stop offset="0.169137" stop-color="#F6E343"></stop> <stop offset="1" stop-color="#F9443D"></stop> </linearGradient> <linearGradient id="paint3_linear_1_3" x1="268.5" y1="39.9731" x2="237.5" y2="61.4731" gradientUnits="userSpaceOnUse"> <stop stop-color="#F8DF46"></stop> <stop offset="1" stop-color="#C52024"></stop> </linearGradient> <linearGradient id="paint4_linear_1_3" x1="8.5" y1="40.973" x2="49" y2="67.9731" gradientUnits="userSpaceOnUse"> <stop offset="0.169137" stop-color="#F6E343"></stop> <stop offset="1" stop-color="#F9443D"></stop> </linearGradient> <linearGradient id="paint5_linear_1_3" x1="11" y1="39.9731" x2="42" y2="61.4731" gradientUnits="userSpaceOnUse"> <stop stop-color="#F8DF46"></stop> <stop offset="1" stop-color="#C52024"></stop> </linearGradient> <linearGradient id="paint6_linear_1_3" x1="227" y1="17.9731" x2="156" y2="50.9731" gradientUnits="userSpaceOnUse"> <stop stop-color="#FBC33E"></stop> <stop offset="0.0995261" stop-color="#F6E343"></stop> <stop offset="0.494792" stop-color="#FFCC50"></stop> <stop offset="1" stop-color="#F94E3E"></stop> </linearGradient> <linearGradient id="paint7_linear_1_3" x1="221.773" y1="3.55785" x2="179.699" y2="29.3601" gradientUnits="userSpaceOnUse"> <stop stop-color="#C57920"></stop> <stop offset="1" stop-color="#F8DF46"></stop> </linearGradient> <linearGradient id="paint8_linear_1_3" x1="52.8616" y1="17.9731" x2="123.862" y2="50.9731" gradientUnits="userSpaceOnUse"> <stop stop-color="#FBC33E"></stop> <stop offset="0.0995261" stop-color="#F6E343"></stop> <stop offset="0.494792" stop-color="#FFCC50"></stop> <stop offset="1" stop-color="#F94E3E"></stop> </linearGradient> <linearGradient id="paint9_linear_1_3" x1="58.0885" y1="3.55785" x2="100.163" y2="29.3601" gradientUnits="userSpaceOnUse"> <stop stop-color="#C57920"></stop> <stop offset="1" stop-color="#F8DF46"></stop> </linearGradient> <linearGradient id="paint10_linear_1_3" x1="139.906" y1="26.8051" x2="139.906" y2="56.0233" gradientUnits="userSpaceOnUse"> <stop stop-color="#F33A36"></stop> <stop offset="1" stop-color="#FFCC50"></stop> </linearGradient> <linearGradient id="paint11_linear_1_3" x1="139.906" y1="26.8051" x2="139.906" y2="56.0233" gradientUnits="userSpaceOnUse"> <stop stop-color="#FEB74D"></stop> <stop offset="1" stop-color="#F54E3A"></stop> </linearGradient> <linearGradient id="paint12_linear_1_3" x1="140.5" y1="53.9731" x2="140.5" y2="224.973" gradientUnits="userSpaceOnUse"> <stop stop-color="#FF6B39"></stop> <stop offset="0.125" stop-color="#FBC33E"></stop> <stop offset="0.682292" stop-color="#FBC33E"></stop> <stop offset="1" stop-color="#FF6B39"></stop> </linearGradient> </defs> </svg> 