<?xml version="1.0" encoding="utf-8"?>
<!-- Generator: Adobe Illustrator 23.0.2, SVG Export Plug-In . SVG Version: 6.00 Build 0)  -->
<svg version="1.1" id="Слой_1" xmlns="http://www.w3.org/2000/svg" xmlns:xlink="http://www.w3.org/1999/xlink" x="0px" y="0px"
	 viewBox="0 0 500 500" style="enable-background:new 0 0 500 500;" xml:space="preserve">
<style type="text/css">
	.st0{fill-rule:evenodd;clip-rule:evenodd;fill:#004B96;}
	.st1{fill-rule:evenodd;clip-rule:evenodd;fill:#FFFFFF;}
</style>
<g>
	<path class="st0" d="M255.8,475.2C379.8,475.2,481,374,481,250S379.8,24.8,255.8,24.8S30.6,126,30.6,250S131.7,475.2,255.8,475.2
		L255.8,475.2z"/>
	<path class="st1" d="M111.5,275.3c5.5,5.4,33.2,12.7,41.1,14.8c26.7,6.8,32,1.5,54.4-13.8c14.6-10,29.8-20,44.6-29.9l33.7-22.2
		c3.7-2.4,7.9-6.4,13.3-4.7c0.9,2.1,1.6,3.5,0,5.7c-5.2,7.3-60,58.3-69.5,67.2c-22.5,21.3-5.1,25.8,21.1,44l51.9,34.8
		c30.5,15.8,32.1-14.2,36.8-41c2.8-15.8,6.5-33.4,8.4-49.2c2.9-17,5.5-34,8.1-51c1.9-12.6,7-41.1,5.8-52.7
		c-1.1-9.9-8.3-12.2-18.6-10.1c-13.5,2.8-51,18.6-64.1,24.1c-41.4,17.3-83.7,35.2-124.6,53.3L123.2,258
		C117.2,260.6,103.6,267.6,111.5,275.3L111.5,275.3z"/>
</g>
</svg>
