<?xml version="1.0" encoding="UTF-8"?> <svg xmlns="http://www.w3.org/2000/svg" width="32" height="28" viewBox="0 0 32 28" fill="none"> <rect width="32" height="28" rx="5" fill="#0088CC"></rect> <path fill-rule="evenodd" clip-rule="evenodd" d="M9 13.5C9 17.6421 12.3579 21 16.5 21C20.6421 21 24 17.6421 24 13.5C24 9.35786 20.6421 6 16.5 6C12.3579 6 9 9.35786 9 13.5ZM15.125 16.9375L15.2526 15.0257L15.2524 15.0256L18.7302 11.8872C18.8829 11.7517 18.6969 11.6857 18.4943 11.8085L14.2022 14.5164L12.3483 13.9377C11.9479 13.8151 11.945 13.54 12.4382 13.3422L19.6625 10.5565C19.9925 10.4067 20.311 10.6358 20.185 11.1408L18.9547 16.9385C18.8688 17.3505 18.6199 17.449 18.275 17.2587L16.4008 15.874L15.5 16.75C15.4971 16.7528 15.4943 16.7555 15.4915 16.7583C15.3907 16.8563 15.3074 16.9375 15.125 16.9375Z" fill="white"></path> </svg> 