<?xml version="1.0" encoding="utf-8"?>
<!-- Generator: Adobe Illustrator 23.0.2, SVG Export Plug-In . SVG Version: 6.00 Build 0)  -->
<svg version="1.1" id="Слой_1" xmlns="http://www.w3.org/2000/svg" xmlns:xlink="http://www.w3.org/1999/xlink" x="0px" y="0px"
	 viewBox="0 0 500 500" style="enable-background:new 0 0 500 500;" xml:space="preserve">
<style type="text/css">
	.st0{fill-rule:evenodd;clip-rule:evenodd;fill:#004B96;}
	.st1{fill-rule:evenodd;clip-rule:evenodd;fill:#FFFFFF;stroke:#FFFFFF;stroke-width:12.0189;stroke-miterlimit:10;}
</style>
<g>
	<path class="st0" d="M250,489c130.1,0,236.2-106.1,236.2-236.2S380.1,16.6,250,16.6S13.8,122.7,13.8,252.8S119.9,489,250,489
		L250,489z"/>
	<path class="st1" d="M302.5,330.3c-3.3,12-8.7,21.4-14.9,29.4c-3.4,4.5-6.8,7.7-10.8,11.4c-2.3,2.1-10,7.9-13.4,9.2l-3.6,2.1
		c-1.5,0.8-2.8,1.4-4.4,2.1c-10.4,4.4-20.5,6.7-32.2,6.9c-6.7,0-12.5-0.5-18.7-1.8c-2.9-0.6-5.3-1.4-8.1-2.3c-1.4-0.5-2.6-0.8-4-1.4
		c-0.7-0.3-1.2-0.5-1.9-0.8c-1.4-0.6-0.9-0.2-1.8-1.1c-2.4-0.1-10.7-5.3-12.6-6.7c-2-1.4-3.7-2.5-5.6-4
		c-7.1-5.7-19.7-19.6-22.1-27.1l-0.8-1.3c-1.4-2.6-3.6-7.6-4-10.2c-2.5-3.5-4.4-20.3-4.5-25.6c-0.1-4.8,0.4-9.6,1.1-14.1
		c0.6-4.5,2-8.3,2.9-12.5c0.5-1.5,1-3.7,2.1-4.7c0-3.4,7.5-15.1,9.3-17.7c1.1-2.4,8.3-10.4,10-11.9l9.1-7.4c1.1-0.9,2-1.6,3.5-2.1
		c0.8-1.1,9.5-6,11.2-6c0.4-0.5,0.1-0.2,0.7-0.6c1.4-1,8.8-3.5,10.5-3.8l8.9-1.9v27.6c-0.7,1.1-0.1,0.7-1.7,1.1
		c-0.6,0.2-1.1,0.3-1.8,0.5c-3.5,1.1-9.4,4.2-10.4,4.4c-0.6,0.9-3.6,2.7-5.4,4c-7.8,5.8-12.4,13.2-13.6,14l-1.2,2.6
		c-0.6,0.9-0.8,1.4-1.2,2.3c-0.8,1.6-1.6,3-2.2,4.6c-7.8,20.2-1.8,32-2.2,36.3c0.7,0.8,0.7,1.1,1.1,2.4c0.3,1.1,0.6,1.8,0.9,2.9
		c0.6,0.7,1.8,3.7,2.2,4.7c2.5,4.8,8.3,11.8,8.7,12.6l1.7,1.7c1.1,0.6,2.5,1.8,3.6,2.8c7.5,6.7,21,12.5,31.2,12.6
		c0.3,0,0.3-0.1,0.6,0c1.1,0.4,0.5,0.2,0.9,0.4c3.2-0.9,9.7,0.6,20.8-3.3c1.8-0.6,4.6-2,5.9-2c1-1.3,9.1-4.8,14-10.2
		c1-1.2,2-1.8,3.2-2.9c1.7-1.7,5-6.6,6.4-8.9c0.2-0.3,0.4-0.6,0.6-0.9l0.5-0.6c0.5-1.8,1.5-3.3,2.3-5.1c6.2-14,4.5-30.3,4.5-45.5
		V114.3h28.9c0.4,5.8,3.6,15.1,5.8,19.8c0.8,1.8,2.1,4.2,2.7,5.9c1.1,1.4,2.3,4,3.2,5.4c5,8.1,13.4,17.5,21.1,22.9l10.5,6.7
		c1.5,0.7,4.4,1.7,5.2,2.9c1.4,0.1,4.7,1.5,5.8,2.1l0,30.1c-3.5,0-8.5-1.5-11.8-2.1c-0.9-0.2-1.8-0.5-2.7-0.8
		c-1.1-0.3-1.4-0.2-2.1-1c-2,0-10.7-3.4-12.4-4.4c-2.2-1-10.4-4.6-11.3-6c-2.2-0.1-12.1-6.1-15.2-7.1c0.7,11.3,0,24.9,0,36.5v72
		C305.4,310.6,305.3,317.9,302.5,330.3L302.5,330.3z"/>
</g>
</svg>
