<?xml version="1.0" encoding="UTF-8"?> <svg xmlns="http://www.w3.org/2000/svg" width="32" height="28" viewBox="0 0 32 28" fill="none"> <rect width="32" height="28" rx="5" fill="black"></rect> <circle cx="16.5" cy="13.5" r="7.5" fill="white"></circle> <g clip-path="url(#clip0_209_53)"> <path d="M16.6727 9.90608C17.098 9.9 17.521 9.9036 17.9434 9.9C17.969 10.3592 18.1479 10.827 18.512 11.1517C18.8755 11.4845 19.3895 11.6368 19.8897 11.6883V12.8963C19.421 12.8822 18.9501 12.7922 18.5247 12.6059C18.3395 12.5285 18.1669 12.4288 17.998 12.3269C17.9958 13.2035 18.0019 14.0789 17.9919 14.9519C17.9665 15.3713 17.8166 15.7887 17.5524 16.1343C17.1273 16.7096 16.3895 17.0847 15.6316 17.0964C15.1668 17.1209 14.7025 17.0039 14.3064 16.7884C13.65 16.4311 13.1881 15.777 13.1208 15.075C13.113 14.9249 13.1103 14.7751 13.1169 14.6286C13.1754 14.0578 13.4813 13.5117 13.9561 13.1402C14.4943 12.7076 15.2482 12.5015 15.9541 12.6234C15.9607 13.0678 15.9415 13.5117 15.9415 13.9561C15.619 13.8598 15.2421 13.8868 14.9604 14.0675C14.7546 14.1905 14.5984 14.3791 14.517 14.5924C14.4497 14.7445 14.469 14.9135 14.4729 15.075C14.5501 15.5673 15.063 15.9811 15.6104 15.9363C15.9734 15.9327 16.3212 15.7383 16.5104 15.4537C16.5715 15.354 16.64 15.2521 16.6437 15.1349C16.6756 14.5982 16.663 14.0639 16.6669 13.5272C16.6695 12.3179 16.663 11.1119 16.6729 9.9063L16.6727 9.90608Z" fill="black"></path> </g> <defs> <clipPath id="clip0_209_53"> <rect width="7.8" height="7.2" fill="white" transform="translate(12.6001 9.9)"></rect> </clipPath> </defs> </svg> 