<?xml version="1.0" encoding="UTF-8"?> <svg xmlns="http://www.w3.org/2000/svg" width="1440" height="816" viewBox="0 0 1440 816" fill="none"> <rect width="1440" height="810" fill="white"></rect> <path fill-rule="evenodd" clip-rule="evenodd" d="M0 399.441L60 388.182C120 375.316 240 352.799 360 364.057C480 375.316 600 421.957 720 468.599C840 515.241 960 561.883 1080 549.016C1200 537.758 1320 468.599 1380 433.216L1440 399.441V816H1380C1320 816 1200 816 1080 816C960 816 840 816 720 816C600 816 480 816 360 816C240 816 120 816 60 816H0V399.441Z" fill="#0099FF"></path> </svg> 