<?xml version="1.0" encoding="UTF-8"?> <svg xmlns="http://www.w3.org/2000/svg" width="32" height="28" viewBox="0 0 32 28" fill="none"> <rect width="32" height="28" rx="5" fill="#1877F2"></rect> <path fill-rule="evenodd" clip-rule="evenodd" d="M15.8798 6.72773C11.7378 6.76033 8.35316 10.1445 8.32004 14.2865C8.28692 18.4285 11.6178 21.7598 15.7598 21.7273C19.9019 21.6947 23.2865 18.3105 23.3196 14.1685C23.3527 10.0265 20.0218 6.69514 15.8798 6.72773ZM16.4115 16.5902C16.337 16.6687 16.1924 16.6856 16.1924 16.6856L15.7143 16.6894C15.7143 16.6894 14.659 16.7599 13.7373 15.8178C12.7322 14.7899 11.8538 12.7418 11.8538 12.7418C11.8538 12.7418 11.8032 12.6074 11.8597 12.5421C11.9233 12.4682 12.0951 12.4623 12.0951 12.4623L13.238 12.446C13.238 12.446 13.3455 12.4624 13.4221 12.5175C13.4855 12.5631 13.5205 12.6484 13.5205 12.6484C13.5205 12.6484 13.7015 13.1056 13.9427 13.5184C14.414 14.3247 14.6348 14.5 14.7975 14.4119C15.0348 14.2837 14.9721 13.2657 14.9721 13.2657C14.9721 13.2657 14.9794 12.8962 14.8574 12.7324C14.763 12.6056 14.5833 12.5698 14.504 12.5601C14.4395 12.5521 14.5463 12.4046 14.6838 12.3378C14.8904 12.2375 15.2535 12.2289 15.6827 12.2297C16.0172 12.2305 16.1133 12.2501 16.2437 12.2802C16.5464 12.3497 16.5351 12.58 16.5107 13.0771C16.5034 13.2257 16.495 13.3982 16.4934 13.5975C16.493 13.6422 16.4913 13.6899 16.4895 13.739C16.4804 13.9937 16.4699 14.2853 16.64 14.3924C16.7272 14.447 16.9416 14.3981 17.4844 13.5013C17.7417 13.0761 17.9358 12.5772 17.9358 12.5772C17.9358 12.5772 17.9784 12.4882 18.0433 12.4496C18.1097 12.4103 18.1988 12.4215 18.1988 12.4215L19.4016 12.4048C19.4016 12.4048 19.7635 12.3593 19.8205 12.5194C19.8806 12.6867 19.681 13.0808 19.1845 13.7276C18.7134 14.3413 18.4848 14.5677 18.504 14.7662C18.5181 14.9112 18.6645 15.0413 18.9454 15.2968C19.5318 15.8305 19.6879 16.1125 19.7254 16.1802C19.7285 16.1858 19.7308 16.19 19.7324 16.1927C19.9939 16.6219 19.4349 16.6601 19.4349 16.6601L18.3662 16.6831C18.3662 16.6831 18.1366 16.7295 17.8361 16.5283C17.6788 16.423 17.5255 16.2502 17.3796 16.0856C17.1567 15.8343 16.9508 15.6021 16.773 15.6587C16.4746 15.754 16.4785 16.3834 16.4785 16.3834C16.4785 16.3834 16.4798 16.5182 16.4115 16.5902Z" fill="white"></path> </svg> 