<?xml version="1.0" encoding="utf-8"?>
<!-- Generator: Adobe Illustrator 23.0.2, SVG Export Plug-In . SVG Version: 6.00 Build 0)  -->
<svg version="1.1" id="Слой_1" xmlns="http://www.w3.org/2000/svg" xmlns:xlink="http://www.w3.org/1999/xlink" x="0px" y="0px"
	 viewBox="0 0 500 500" style="enable-background:new 0 0 500 500;" xml:space="preserve">
<style type="text/css">
	.st0{fill-rule:evenodd;clip-rule:evenodd;fill:#004B96;}
	.st1{fill-rule:evenodd;clip-rule:evenodd;fill:#FFFFFF;}
</style>
<g>
	<path class="st0" d="M249.3,481C380.2,481,487,374.2,487,243.3S380.2,5.6,249.3,5.6S11.6,112.4,11.6,243.3S118.3,481,249.3,481
		L249.3,481z"/>
	<path class="st1" d="M198,168.6c3.6,1.1,5.6,1,8.9,2.7c8.8,4.6,9.4,15,9.8,25.1c1,27.6,1,70.6-28.7,26.7
		c-8.9-13.1-17.9-29.8-24.5-45.3c-2.8-6.6-3.5-10.5-10.2-12.9c-4.3-1.6-17-0.7-22.5-0.7c-7.7,0-15.7-0.1-23.4,0.1
		c-16.4,0.4-10.1,10.6-6.1,19.2c14,30.8,34.7,69.1,55.5,96c13.1,16.9,27.5,31.9,50.9,42.1c10.8,4.7,24.4,8.4,37.9,8.3
		c5.8,0,17.6,0.7,22.2-0.8c12-3.8,4.4-14.9,10.6-30.1c0.1-0.3,0.3-0.6,0.4-1l1.6-3c6.8-10.1,15.2-3.3,21.4,3.2c1.8,1.9,4,4,5.6,6.1
		l11.1,12.4c3.5,3.7,7.6,7.1,13,10.1c6.6,3.7,11.2,3.8,19.2,3.6c7.6-0.2,15.5-0.2,23.2-0.3c7.2,0,15.4,0.5,21.4-1.8
		c6.3-2.3,8.9-7.7,5.2-14.8c-2.8-5.3-6-10-9.3-13.9c-0.6-0.7-0.7-0.8-1.2-1.6c-4.4-5.6-19-20-24.5-24.9l-8.8-8.8
		c-4.1-4.8-6.2-9.2-2.5-16.5l3.2-5.2c7.4-10.2,17.3-22.2,23.8-31.5l7.2-10.3c4.7-7.3,9.4-13.9,12.4-22.6c5.5-16-7.8-14-18.2-13.9
		l-34.8,0.2c-9,0.1-14-1.6-17.7,5.4c-1.1,2-2.3,5.7-3.4,8.2c-6.4,14.8-10.9,24.3-20,38.2c-4.7,7.2-14.5,22.3-21.9,24.8
		c-6.6,2.2-9.2-7.6-9.8-13c-0.9-8.4,0.4-35.3,0.7-45.3c0.6-18.9-1.3-24.3-20.6-26c-10.5-0.9-34-1-44,1.5c-3.5,0.9-5.3,1.6-8.1,3.5
		C201.4,162.7,197.6,165.8,198,168.6L198,168.6z"/>
</g>
</svg>
