<?xml version="1.0" encoding="utf-8"?>
<!-- Generator: Adobe Illustrator 23.0.2, SVG Export Plug-In . SVG Version: 6.00 Build 0)  -->
<svg version="1.1" id="Слой_1" xmlns="http://www.w3.org/2000/svg" xmlns:xlink="http://www.w3.org/1999/xlink" x="0px" y="0px"
	 viewBox="0 0 500 500" style="enable-background:new 0 0 500 500;" xml:space="preserve">
<style type="text/css">
	.st0{fill-rule:evenodd;clip-rule:evenodd;fill:#004B96;}
	.st1{fill:#FFFFFF;}
	.st2{fill:#004B96;}
</style>
<g>
	<path class="st0" d="M248.8,483C378.9,483,485,376.9,485,246.8S378.9,10.6,248.8,10.6S12.6,116.7,12.6,246.8S118.7,483,248.8,483
		L248.8,483z"/>
	<path class="st1" d="M248.8,119.6c-69.6,0-126,56.4-126,126c0,23.5,6.4,45.5,17.7,64.3L124.5,374l63.2-18.2
		c18.1,10,38.9,15.8,61.1,15.8c69.6,0,126.1-56.5,126.1-126.1C374.8,175.9,318.4,119.6,248.8,119.6L248.8,119.6z"/>
	<path class="st2" d="M217.4,236.4c1.5-1.7,2.9-3.4,4.4-5c2.5-2.8,6.2-5.6,6.3-9.7c0.2-3.9-1.2-7.9-2.6-11.4
		c-0.9-2.3-1.8-4.6-2.7-6.9c-1.6-4.2-3.7-10.1-6-12.5c-3.2-3.3-8.5-4-12.8-1.9c0,0-24.7,11.9-17.1,35.6c0,0,14.7,67.1,89,80.9
		c0,0,26.6,3.8,33.8-12.4c1.5-3.5,2.6-8.4,2.3-12.2c-0.2-3.7-2.8-6.1-5.9-7.9c-3.9-2.2-7.4-4.4-11.9-6.5c-3.8-1.9-8.3-4.7-12.7-3.5
		c-3.3,0.9-5.6,3.9-7.8,6.2c-2.9,3.1-5.8,6.1-8.8,9.1C265,278.3,227.4,264.5,217.4,236.4L217.4,236.4z"/>
</g>
</svg>
